# Object Export From Tinkercad Server 2015

mtllib obj.mtl

o obj_0
v 11 		-7 		15
v 11 		4 		15
v 11 		-7 		0
v 11 		4 		0
v -9 		4 		15
v -9 		-7 		15
v -9 		4 		0
v -9 		-7 		0
# 8 vertices

g group_0_4634441

usemtl color_4634441
s 0

f 1 	3 	2
f 3 	4 	2
f 5 	7 	6
f 7 	8 	6
f 5 	6 	2
f 6 	1 	2
f 8 	7 	3
f 7 	4 	3
f 6 	8 	1
f 8 	3 	1
f 2 	4 	5
f 4 	7 	5
# 12 faces

 #end of obj_0

o obj_1
v 1.0874 		4.5 		11.9615
v 0.5 		4.5 		12
v 0.5 		4.5 		7.5
v 1.6647 		4.5 		11.8467
v 2.2221 		4.5 		11.6575
v 2.75 		4.5 		11.3971
v 3.2394 		4.5 		11.0701
v 3.682 		4.5 		10.682
v 4.0701 		4.5 		10.2394
v 4.3971 		4.5 		9.75
v 4.6575 		4.5 		9.2221
v 4.8467 		4.5 		8.6647
v 4.9615 		4.5 		8.0874
v 5 		4.5 		7.5
v 4.9615 		4.5 		6.9126
v 4.8467 		4.5 		6.3353
v 4.6575 		4.5 		5.7779
v 4.3971 		4.5 		5.25
v 4.0701 		4.5 		4.7606
v 3.682 		4.5 		4.318
v 3.2394 		4.5 		3.9299
v 2.75 		4.5 		3.6029
v 2.2221 		4.5 		3.3425
v 1.6647 		4.5 		3.1533
v 1.0874 		4.5 		3.0385
v 0.5 		4.5 		3
v -0.0874 		4.5 		3.0385
v -0.6647 		4.5 		3.1533
v -1.2221 		4.5 		3.3425
v -1.75 		4.5 		3.6029
v -2.2394 		4.5 		3.9299
v -2.682 		4.5 		4.318
v -3.0701 		4.5 		4.7606
v -3.3971 		4.5 		5.25
v -3.6575 		4.5 		5.7779
v -3.8467 		4.5 		6.3353
v -3.9615 		4.5 		6.9126
v -4 		4.5 		7.5
v -3.9615 		4.5 		8.0874
v -3.8467 		4.5 		8.6647
v -3.6575 		4.5 		9.2221
v -3.3971 		4.5 		9.75
v -3.0701 		4.5 		10.2394
v -2.682 		4.5 		10.682
v -2.2394 		4.5 		11.0701
v -1.75 		4.5 		11.3971
v -1.2221 		4.5 		11.6575
v -0.6647 		4.5 		11.8467
v -0.0874 		4.5 		11.9615
v 0.5 		-7.75 		12
v 1.0874 		-7.75 		11.9615
v 0.5 		-7.75 		7.5
v 1.6647 		-7.75 		11.8467
v 2.2221 		-7.75 		11.6575
v 2.75 		-7.75 		11.3971
v 3.2394 		-7.75 		11.0701
v 3.682 		-7.75 		10.682
v 4.0701 		-7.75 		10.2394
v 4.3971 		-7.75 		9.75
v 4.6575 		-7.75 		9.2221
v 4.8467 		-7.75 		8.6647
v 4.9615 		-7.75 		8.0874
v 5 		-7.75 		7.5
v 4.9615 		-7.75 		6.9126
v 4.8467 		-7.75 		6.3353
v 4.6575 		-7.75 		5.7779
v 4.3971 		-7.75 		5.25
v 4.0701 		-7.75 		4.7606
v 3.682 		-7.75 		4.318
v 3.2394 		-7.75 		3.9299
v 2.75 		-7.75 		3.6029
v 2.2221 		-7.75 		3.3425
v 1.6647 		-7.75 		3.1533
v 1.0874 		-7.75 		3.0385
v 0.5 		-7.75 		3
v -0.0874 		-7.75 		3.0385
v -0.6647 		-7.75 		3.1533
v -1.2221 		-7.75 		3.3425
v -1.75 		-7.75 		3.6029
v -2.2394 		-7.75 		3.9299
v -2.682 		-7.75 		4.318
v -3.0701 		-7.75 		4.7606
v -3.3971 		-7.75 		5.25
v -3.6575 		-7.75 		5.7779
v -3.8467 		-7.75 		6.3353
v -3.9615 		-7.75 		6.9126
v -4 		-7.75 		7.5
v -3.9615 		-7.75 		8.0874
v -3.8467 		-7.75 		8.6647
v -3.6575 		-7.75 		9.2221
v -3.3971 		-7.75 		9.75
v -3.0701 		-7.75 		10.2394
v -2.682 		-7.75 		10.682
v -2.2394 		-7.75 		11.0701
v -1.75 		-7.75 		11.3971
v -1.2221 		-7.75 		11.6575
v -0.6647 		-7.75 		11.8467
v -0.0874 		-7.75 		11.9615
# 98 vertices

g group_1_16448250

usemtl color_16448250
s 0

f 10 	9 	11
f 9 	12 	11
f 12 	13 	11
f 13 	14 	11
f 14 	15 	11
f 15 	16 	11
f 16 	17 	11
f 17 	18 	11
f 18 	19 	11
f 19 	20 	11
f 20 	21 	11
f 21 	22 	11
f 22 	23 	11
f 23 	24 	11
f 24 	25 	11
f 25 	26 	11
f 26 	27 	11
f 27 	28 	11
f 28 	29 	11
f 29 	30 	11
f 30 	31 	11
f 31 	32 	11
f 32 	33 	11
f 33 	34 	11
f 34 	35 	11
f 35 	36 	11
f 36 	37 	11
f 37 	38 	11
f 38 	39 	11
f 39 	40 	11
f 40 	41 	11
f 41 	42 	11
f 42 	43 	11
f 43 	44 	11
f 44 	45 	11
f 45 	46 	11
f 46 	47 	11
f 47 	48 	11
f 48 	49 	11
f 49 	50 	11
f 50 	51 	11
f 51 	52 	11
f 52 	53 	11
f 53 	54 	11
f 54 	55 	11
f 55 	56 	11
f 56 	57 	11
f 57 	10 	11
f 59 	58 	60
f 61 	59 	60
f 62 	61 	60
f 63 	62 	60
f 64 	63 	60
f 65 	64 	60
f 66 	65 	60
f 67 	66 	60
f 68 	67 	60
f 69 	68 	60
f 70 	69 	60
f 71 	70 	60
f 72 	71 	60
f 73 	72 	60
f 74 	73 	60
f 75 	74 	60
f 76 	75 	60
f 77 	76 	60
f 78 	77 	60
f 79 	78 	60
f 80 	79 	60
f 81 	80 	60
f 82 	81 	60
f 83 	82 	60
f 84 	83 	60
f 85 	84 	60
f 86 	85 	60
f 87 	86 	60
f 88 	87 	60
f 89 	88 	60
f 90 	89 	60
f 91 	90 	60
f 92 	91 	60
f 93 	92 	60
f 94 	93 	60
f 95 	94 	60
f 96 	95 	60
f 97 	96 	60
f 98 	97 	60
f 99 	98 	60
f 100 	99 	60
f 101 	100 	60
f 102 	101 	60
f 103 	102 	60
f 104 	103 	60
f 105 	104 	60
f 106 	105 	60
f 58 	106 	60
f 9 	10 	9
f 12 	9 	12
f 13 	12 	13
f 14 	13 	14
f 15 	14 	15
f 16 	15 	16
f 17 	16 	17
f 18 	17 	18
f 19 	18 	19
f 20 	19 	20
f 21 	20 	21
f 22 	21 	22
f 23 	22 	23
f 24 	23 	24
f 25 	24 	25
f 26 	25 	26
f 27 	26 	27
f 28 	27 	28
f 29 	28 	29
f 30 	29 	30
f 31 	30 	31
f 32 	31 	32
f 33 	32 	33
f 34 	33 	34
f 35 	34 	35
f 36 	35 	36
f 37 	36 	37
f 38 	37 	38
f 39 	38 	39
f 40 	39 	40
f 41 	40 	41
f 42 	41 	42
f 43 	42 	43
f 44 	43 	44
f 45 	44 	45
f 46 	45 	46
f 47 	46 	47
f 48 	47 	48
f 49 	48 	49
f 50 	49 	50
f 51 	50 	51
f 52 	51 	52
f 53 	52 	53
f 54 	53 	54
f 55 	54 	55
f 56 	55 	56
f 57 	56 	57
f 10 	57 	10
f 9 	10 	59
f 59 	10 	58
f 12 	9 	61
f 61 	9 	59
f 13 	12 	62
f 62 	12 	61
f 14 	13 	63
f 63 	13 	62
f 15 	14 	64
f 64 	14 	63
f 16 	15 	65
f 65 	15 	64
f 17 	16 	66
f 66 	16 	65
f 18 	17 	67
f 67 	17 	66
f 19 	18 	68
f 68 	18 	67
f 20 	19 	69
f 69 	19 	68
f 21 	20 	70
f 70 	20 	69
f 22 	21 	71
f 71 	21 	70
f 23 	22 	72
f 72 	22 	71
f 24 	23 	73
f 73 	23 	72
f 25 	24 	74
f 74 	24 	73
f 26 	25 	75
f 75 	25 	74
f 27 	26 	76
f 76 	26 	75
f 28 	27 	77
f 77 	27 	76
f 29 	28 	78
f 78 	28 	77
f 30 	29 	79
f 79 	29 	78
f 31 	30 	80
f 80 	30 	79
f 32 	31 	81
f 81 	31 	80
f 33 	32 	82
f 82 	32 	81
f 34 	33 	83
f 83 	33 	82
f 35 	34 	84
f 84 	34 	83
f 36 	35 	85
f 85 	35 	84
f 37 	36 	86
f 86 	36 	85
f 38 	37 	87
f 87 	37 	86
f 39 	38 	88
f 88 	38 	87
f 40 	39 	89
f 89 	39 	88
f 41 	40 	90
f 90 	40 	89
f 42 	41 	91
f 91 	41 	90
f 43 	42 	92
f 92 	42 	91
f 44 	43 	93
f 93 	43 	92
f 45 	44 	94
f 94 	44 	93
f 46 	45 	95
f 95 	45 	94
f 47 	46 	96
f 96 	46 	95
f 48 	47 	97
f 97 	47 	96
f 49 	48 	98
f 98 	48 	97
f 50 	49 	99
f 99 	49 	98
f 51 	50 	100
f 100 	50 	99
f 52 	51 	101
f 101 	51 	100
f 53 	52 	102
f 102 	52 	101
f 54 	53 	103
f 103 	53 	102
f 55 	54 	104
f 104 	54 	103
f 56 	55 	105
f 105 	55 	104
f 57 	56 	106
f 106 	56 	105
f 10 	57 	58
f 58 	57 	106
f 59 	58 	59
f 61 	59 	61
f 62 	61 	62
f 63 	62 	63
f 64 	63 	64
f 65 	64 	65
f 66 	65 	66
f 67 	66 	67
f 68 	67 	68
f 69 	68 	69
f 70 	69 	70
f 71 	70 	71
f 72 	71 	72
f 73 	72 	73
f 74 	73 	74
f 75 	74 	75
f 76 	75 	76
f 77 	76 	77
f 78 	77 	78
f 79 	78 	79
f 80 	79 	80
f 81 	80 	81
f 82 	81 	82
f 83 	82 	83
f 84 	83 	84
f 85 	84 	85
f 86 	85 	86
f 87 	86 	87
f 88 	87 	88
f 89 	88 	89
f 90 	89 	90
f 91 	90 	91
f 92 	91 	92
f 93 	92 	93
f 94 	93 	94
f 95 	94 	95
f 96 	95 	96
f 97 	96 	97
f 98 	97 	98
f 99 	98 	99
f 100 	99 	100
f 101 	100 	101
f 102 	101 	102
f 103 	102 	103
f 104 	103 	104
f 105 	104 	105
f 106 	105 	106
f 58 	106 	58
# 288 faces

 #end of obj_1

o obj_2
v 1.75 		2.75 		11
v 1.75 		4.75 		11
v 1.75 		2.75 		4
v 1.75 		4.75 		4
v -0.75 		4.75 		11
v -0.75 		2.75 		11
v -0.75 		4.75 		4
v -0.75 		2.75 		4
# 8 vertices

g group_2_4634441

usemtl color_4634441
s 0

f 107 	109 	108
f 109 	110 	108
f 111 	113 	112
f 113 	114 	112
f 111 	112 	108
f 112 	107 	108
f 114 	113 	109
f 113 	110 	109
f 112 	114 	107
f 114 	109 	107
f 108 	110 	111
f 110 	113 	111
# 12 faces

 #end of obj_2

o obj_3
v -3 		3.75 		8.75
v -3 		4.75 		8.75
v 4 		3.75 		8.75
v 4 		4.75 		8.75
v -3 		4.75 		6.25
v -3 		3.75 		6.25
v 4 		4.75 		6.25
v 4 		3.75 		6.25
# 8 vertices

g group_3_4634441

usemtl color_4634441
s 0

f 115 	117 	116
f 117 	118 	116
f 119 	121 	120
f 121 	122 	120
f 119 	120 	116
f 120 	115 	116
f 122 	121 	117
f 121 	118 	117
f 120 	122 	115
f 122 	117 	115
f 116 	118 	119
f 118 	121 	119
# 12 faces

 #end of obj_3

o obj_4
v 1.75 		-8 		11
v 1.75 		-6 		11
v 1.75 		-8 		4
v 1.75 		-6 		4
v -0.75 		-6 		11
v -0.75 		-8 		11
v -0.75 		-6 		4
v -0.75 		-8 		4
# 8 vertices

g group_4_4634441

usemtl color_4634441
s 0

f 123 	125 	124
f 125 	126 	124
f 127 	129 	128
f 129 	130 	128
f 127 	128 	124
f 128 	123 	124
f 130 	129 	125
f 129 	126 	125
f 128 	130 	123
f 130 	125 	123
f 124 	126 	127
f 126 	129 	127
# 12 faces

 #end of obj_4

o obj_5
v -3 		-8 		8.75
v -3 		-7 		8.75
v 4 		-8 		8.75
v 4 		-7 		8.75
v -3 		-7 		6.25
v -3 		-8 		6.25
v 4 		-7 		6.25
v 4 		-8 		6.25
# 8 vertices

g group_5_4634441

usemtl color_4634441
s 0

f 131 	133 	132
f 133 	134 	132
f 135 	137 	136
f 137 	138 	136
f 135 	136 	132
f 136 	131 	132
f 138 	137 	133
f 137 	134 	133
f 136 	138 	131
f 138 	133 	131
f 132 	134 	135
f 134 	137 	135
# 12 faces

 #end of obj_5

o obj_6
v 11.25 		-7.5 		1
v 11.25 		4.25 		1
v 11.25 		-7.5 		0
v 11.25 		4.25 		0
v -9.25 		4.25 		1
v -9.25 		-7.5 		1
v -9.25 		4.25 		0
v -9.25 		-7.5 		0
# 8 vertices

g group_6_16448250

usemtl color_16448250
s 0

f 139 	141 	140
f 141 	142 	140
f 143 	145 	144
f 145 	146 	144
f 143 	144 	140
f 144 	139 	140
f 146 	145 	141
f 145 	142 	141
f 144 	146 	139
f 146 	141 	139
f 140 	142 	143
f 142 	145 	143
# 12 faces

 #end of obj_6

