# Object Export From Tinkercad Server 2015

mtllib obj.mtl

o obj_0
v 12 		-26 		16
v 12 		33 		16
v 12 		-26 		7
v 12 		33 		7
v -14 		33 		16
v -14 		-26 		16
v -14 		33 		7
v -14 		-26 		7
# 8 vertices

g group_0_15277357

usemtl color_15277357
s 0

f 1 	3 	2
f 3 	4 	2
f 5 	7 	6
f 7 	8 	6
f 5 	6 	2
f 6 	1 	2
f 8 	7 	3
f 7 	4 	3
f 6 	8 	1
f 8 	3 	1
f 2 	4 	5
f 4 	7 	5
# 12 faces

 #end of obj_0

o obj_1
v -8 		-24 		7
v -8 		-16 		7
v -8 		-24 		0
v -8 		-16 		0
v -13 		-16 		7
v -13 		-24 		7
v -13 		-16 		0
v -13 		-24 		0
# 8 vertices

g group_1_2829873

usemtl color_2829873
s 0

f 9 	11 	10
f 11 	12 	10
f 13 	15 	14
f 15 	16 	14
f 13 	14 	10
f 14 	9 	10
f 16 	15 	11
f 15 	12 	11
f 14 	16 	9
f 16 	11 	9
f 10 	12 	13
f 12 	15 	13
# 12 faces

 #end of obj_1

o obj_2
v 10 		-24 		7
v 10 		-16 		7
v 10 		-24 		0
v 10 		-16 		0
v 6 		-16 		7
v 6 		-24 		7
v 6 		-16 		0
v 6 		-24 		0
# 8 vertices

g group_2_2829873

usemtl color_2829873
s 0

f 17 	19 	18
f 19 	20 	18
f 21 	23 	22
f 23 	24 	22
f 21 	22 	18
f 22 	17 	18
f 24 	23 	19
f 23 	20 	19
f 22 	24 	17
f 24 	19 	17
f 18 	20 	21
f 20 	23 	21
# 12 faces

 #end of obj_2

o obj_3
v 11 		23 		7
v 11 		31 		7
v 11 		23 		0
v 11 		31 		0
v 7 		31 		7
v 7 		23 		7
v 7 		31 		0
v 7 		23 		0
# 8 vertices

g group_3_2829873

usemtl color_2829873
s 0

f 25 	27 	26
f 27 	28 	26
f 29 	31 	30
f 31 	32 	30
f 29 	30 	26
f 30 	25 	26
f 32 	31 	27
f 31 	28 	27
f 30 	32 	25
f 32 	27 	25
f 26 	28 	29
f 28 	31 	29
# 12 faces

 #end of obj_3

o obj_4
v -8 		23 		7
v -8 		31 		7
v -8 		23 		0
v -8 		31 		0
v -13 		31 		7
v -13 		23 		7
v -13 		31 		0
v -13 		23 		0
# 8 vertices

g group_4_2829873

usemtl color_2829873
s 0

f 33 	35 	34
f 35 	36 	34
f 37 	39 	38
f 39 	40 	38
f 37 	38 	34
f 38 	33 	34
f 40 	39 	35
f 39 	36 	35
f 38 	40 	33
f 40 	35 	33
f 34 	36 	37
f 36 	39 	37
# 12 faces

 #end of obj_4

o obj_5
v 12.2112 		-10 		27
v 12.2112 		24 		27
v 12.2112 		-10 		16
v 12.2112 		24 		16
v -14 		24 		27
v -14 		-10 		27
v -14 		24 		16
v -14 		-10 		16
# 8 vertices

g group_5_15277357

usemtl color_15277357
s 0

f 41 	43 	42
f 43 	44 	42
f 45 	47 	46
f 47 	48 	46
f 45 	46 	42
f 46 	41 	42
f 48 	47 	43
f 47 	44 	43
f 46 	48 	41
f 48 	43 	41
f 42 	44 	45
f 44 	47 	45
# 12 faces

 #end of obj_5

o obj_6
v -13.5 		-7.5 		16.7333
v -13.5 		-7.5 		26.2667
v -14.5 		-7.5 		16.7333
v -14.5 		-7.5 		26.2667
v -13.5 		5.5 		26.2667
v -13.5 		5.5 		16.7333
v -14.5 		5.5 		26.2667
v -14.5 		5.5 		16.7333
# 8 vertices

g group_6_8768998

usemtl color_8768998
s 0

f 51 	49 	50
f 52 	51 	50
f 55 	53 	54
f 56 	55 	54
f 54 	53 	50
f 49 	54 	50
f 55 	56 	51
f 52 	55 	51
f 56 	54 	49
f 51 	56 	49
f 52 	50 	53
f 55 	52 	53
# 12 faces

 #end of obj_6

o obj_7
v -13.5 		7 		16.7333
v -13.5 		7 		26.2667
v -14.5 		7 		16.7333
v -14.5 		7 		26.2667
v -13.5 		20 		26.2667
v -13.5 		20 		16.7333
v -14.5 		20 		26.2667
v -14.5 		20 		16.7333
# 8 vertices

g group_7_8768998

usemtl color_8768998
s 0

f 59 	57 	58
f 60 	59 	58
f 63 	61 	62
f 64 	63 	62
f 62 	61 	58
f 57 	62 	58
f 63 	64 	59
f 60 	63 	59
f 64 	62 	57
f 59 	64 	57
f 60 	58 	61
f 63 	60 	61
# 12 faces

 #end of obj_7

o obj_8
v 11 		-9.5 		16.7333
v 11 		-9.5 		26.2667
v 11 		-10.5 		16.7333
v 11 		-10.5 		26.2667
v -13 		-9.5 		26.2667
v -13 		-9.5 		16.7333
v -13 		-10.5 		26.2667
v -13 		-10.5 		16.7333
# 8 vertices

g group_8_8768998

usemtl color_8768998
s 0

f 67 	65 	66
f 68 	67 	66
f 71 	69 	70
f 72 	71 	70
f 70 	69 	66
f 65 	70 	66
f 71 	72 	67
f 68 	71 	67
f 72 	70 	65
f 67 	72 	65
f 68 	66 	69
f 71 	68 	69
# 12 faces

 #end of obj_8

o obj_9
v 11 		24.5 		16.7333
v 11 		24.5 		26.2667
v 11 		23.5 		16.7333
v 11 		23.5 		26.2667
v -13 		24.5 		26.2667
v -13 		24.5 		16.7333
v -13 		23.5 		26.2667
v -13 		23.5 		16.7333
# 8 vertices

g group_9_8768998

usemtl color_8768998
s 0

f 75 	73 	74
f 76 	75 	74
f 79 	77 	78
f 80 	79 	78
f 78 	77 	74
f 73 	78 	74
f 79 	80 	75
f 76 	79 	75
f 80 	78 	73
f 75 	80 	73
f 76 	74 	77
f 79 	76 	77
# 12 faces

 #end of obj_9

o obj_10
v 13 		7 		16.7333
v 13 		7 		26.2667
v 12 		7 		16.7333
v 12 		7 		26.2667
v 13 		20 		26.2667
v 13 		20 		16.7333
v 12 		20 		26.2667
v 12 		20 		16.7333
# 8 vertices

g group_10_8768998

usemtl color_8768998
s 0

f 83 	81 	82
f 84 	83 	82
f 87 	85 	86
f 88 	87 	86
f 86 	85 	82
f 81 	86 	82
f 87 	88 	83
f 84 	87 	83
f 88 	86 	81
f 83 	88 	81
f 84 	82 	85
f 87 	84 	85
# 12 faces

 #end of obj_10

o obj_11
v 13 		-7.5 		16.7333
v 13 		-7.5 		26.2667
v 12 		-7.5 		16.7333
v 12 		-7.5 		26.2667
v 13 		5.5 		26.2667
v 13 		5.5 		16.7333
v 12 		5.5 		26.2667
v 12 		5.5 		16.7333
# 8 vertices

g group_11_8768998

usemtl color_8768998
s 0

f 91 	89 	90
f 92 	91 	90
f 95 	93 	94
f 96 	95 	94
f 94 	93 	90
f 89 	94 	90
f 95 	96 	91
f 92 	95 	91
f 96 	94 	89
f 91 	96 	89
f 92 	90 	93
f 95 	92 	93
# 12 faces

 #end of obj_11

o obj_12
v -5 		-27 		15
v -5 		-26 		15
v -5 		-27 		13
v -5 		-26 		13
v -13 		-26 		15
v -13 		-27 		15
v -13 		-26 		13
v -13 		-27 		13
# 8 vertices

g group_12_16768282

usemtl color_16768282
s 0

f 97 	99 	98
f 99 	100 	98
f 101 	103 	102
f 103 	104 	102
f 101 	102 	98
f 102 	97 	98
f 104 	103 	99
f 103 	100 	99
f 102 	104 	97
f 104 	99 	97
f 98 	100 	101
f 100 	103 	101
# 12 faces

 #end of obj_12

o obj_13
v 11 		-27 		15
v 11 		-26 		15
v 11 		-27 		13
v 11 		-26 		13
v 3 		-26 		15
v 3 		-27 		15
v 3 		-26 		13
v 3 		-27 		13
# 8 vertices

g group_13_16768282

usemtl color_16768282
s 0

f 105 	107 	106
f 107 	108 	106
f 109 	111 	110
f 111 	112 	110
f 109 	110 	106
f 110 	105 	106
f 112 	111 	107
f 111 	108 	107
f 110 	112 	105
f 112 	107 	105
f 106 	108 	109
f 108 	111 	109
# 12 faces

 #end of obj_13

o obj_14
v 11 		33 		15
v 11 		34 		15
v 11 		33 		13
v 11 		34 		13
v 3 		34 		15
v 3 		33 		15
v 3 		34 		13
v 3 		33 		13
# 8 vertices

g group_14_9771553

usemtl color_9771553
s 0

f 113 	115 	114
f 115 	116 	114
f 117 	119 	118
f 119 	120 	118
f 117 	118 	114
f 118 	113 	114
f 120 	119 	115
f 119 	116 	115
f 118 	120 	113
f 120 	115 	113
f 114 	116 	117
f 116 	119 	117
# 12 faces

 #end of obj_14

o obj_15
v -5 		33 		15
v -5 		34 		15
v -5 		33 		13
v -5 		34 		13
v -13 		34 		15
v -13 		33 		15
v -13 		34 		13
v -13 		33 		13
# 8 vertices

g group_15_9771553

usemtl color_9771553
s 0

f 121 	123 	122
f 123 	124 	122
f 125 	127 	126
f 127 	128 	126
f 125 	126 	122
f 126 	121 	122
f 128 	127 	123
f 127 	124 	123
f 126 	128 	121
f 128 	123 	121
f 122 	124 	125
f 124 	127 	125
# 12 faces

 #end of obj_15

o obj_16
v 12 		-27 		9
v 12 		-26 		9
v 12 		-27 		7
v 12 		-26 		7
v -14 		-26 		9
v -14 		-27 		9
v -14 		-26 		7
v -14 		-27 		7
# 8 vertices

g group_16_10988977

usemtl color_10988977
s 0

f 129 	131 	130
f 131 	132 	130
f 133 	135 	134
f 135 	136 	134
f 133 	134 	130
f 134 	129 	130
f 136 	135 	131
f 135 	132 	131
f 134 	136 	129
f 136 	131 	129
f 130 	132 	133
f 132 	135 	133
# 12 faces

 #end of obj_16

o obj_17
v 12 		32.5 		9
v 12 		33.5 		9
v 12 		32.5 		7
v 12 		33.5 		7
v -14 		33.5 		9
v -14 		32.5 		9
v -14 		33.5 		7
v -14 		32.5 		7
# 8 vertices

g group_17_10988977

usemtl color_10988977
s 0

f 137 	139 	138
f 139 	140 	138
f 141 	143 	142
f 143 	144 	142
f 141 	142 	138
f 142 	137 	138
f 144 	143 	139
f 143 	140 	139
f 142 	144 	137
f 144 	139 	137
f 138 	140 	141
f 140 	143 	141
# 12 faces

 #end of obj_17

o obj_18
v -13.5464 		32.9732 		9
v -14.5462 		33.0135 		9
v -13.5464 		32.9732 		7
v -14.5462 		33.0135 		7
v -15 		-26.9597 		9
v -14.0002 		-27 		9
v -15 		-26.9597 		7
v -14.0002 		-27 		7
# 8 vertices

g group_18_10988977

usemtl color_10988977
s 0

f 145 	147 	146
f 147 	148 	146
f 149 	151 	150
f 151 	152 	150
f 149 	150 	146
f 150 	145 	146
f 152 	151 	147
f 151 	148 	147
f 150 	152 	145
f 152 	147 	145
f 146 	148 	149
f 148 	151 	149
# 12 faces

 #end of obj_18

o obj_19
v 13 		32.9732 		9
v 12.0002 		33.0135 		9
v 13 		32.9732 		7
v 12.0002 		33.0135 		7
v 11.5464 		-26.9597 		9
v 12.5462 		-27 		9
v 11.5464 		-26.9597 		7
v 12.5462 		-27 		7
# 8 vertices

g group_19_10988977

usemtl color_10988977
s 0

f 153 	155 	154
f 155 	156 	154
f 157 	159 	158
f 159 	160 	158
f 157 	158 	154
f 158 	153 	154
f 160 	159 	155
f 159 	156 	155
f 158 	160 	153
f 160 	155 	153
f 154 	156 	157
f 156 	159 	157
# 12 faces

 #end of obj_19

