# Object Export From Tinkercad Server 2015

mtllib obj.mtl

o obj_0
v 18 		-33 		26
v 18 		33 		26
v 18 		-33 		23.1111
v 18 		33 		23.1111
v -19 		33 		26
v -19 		-33 		26
v -19 		33 		23.1111
v -19 		-33 		23.1111
# 8 vertices

g group_0_6306067

usemtl color_6306067
s 0

f 1 	3 	2
f 3 	4 	2
f 5 	7 	6
f 7 	8 	6
f 5 	6 	2
f 6 	1 	2
f 8 	7 	3
f 7 	4 	3
f 6 	8 	1
f 8 	3 	1
f 2 	4 	5
f 4 	7 	5
# 12 faces

 #end of obj_0

o obj_1
v -15 		27 		26
v -15 		33 		26
v -15 		27 		0
v -15 		33 		0
v -19 		33 		26
v -19 		27 		26
v -19 		33 		0
v -19 		27 		0
# 8 vertices

g group_1_6306067

usemtl color_6306067
s 0

f 9 	11 	10
f 11 	12 	10
f 13 	15 	14
f 15 	16 	14
f 13 	14 	10
f 14 	9 	10
f 16 	15 	11
f 15 	12 	11
f 14 	16 	9
f 16 	11 	9
f 10 	12 	13
f 12 	15 	13
# 12 faces

 #end of obj_1

o obj_2
v 18 		27 		26
v 18 		33 		26
v 18 		27 		0
v 18 		33 		0
v 14 		33 		26
v 14 		27 		26
v 14 		33 		0
v 14 		27 		0
# 8 vertices

g group_2_6306067

usemtl color_6306067
s 0

f 17 	19 	18
f 19 	20 	18
f 21 	23 	22
f 23 	24 	22
f 21 	22 	18
f 22 	17 	18
f 24 	23 	19
f 23 	20 	19
f 22 	24 	17
f 24 	19 	17
f 18 	20 	21
f 20 	23 	21
# 12 faces

 #end of obj_2

o obj_3
v 18 		-33 		26
v 18 		-27 		26
v 18 		-33 		0
v 18 		-27 		0
v 14 		-27 		26
v 14 		-33 		26
v 14 		-27 		0
v 14 		-33 		0
# 8 vertices

g group_3_6306067

usemtl color_6306067
s 0

f 25 	27 	26
f 27 	28 	26
f 29 	31 	30
f 31 	32 	30
f 29 	30 	26
f 30 	25 	26
f 32 	31 	27
f 31 	28 	27
f 30 	32 	25
f 32 	27 	25
f 26 	28 	29
f 28 	31 	29
# 12 faces

 #end of obj_3

o obj_4
v -15 		-33 		26
v -15 		-27 		26
v -15 		-33 		0
v -15 		-27 		0
v -19 		-27 		26
v -19 		-33 		26
v -19 		-27 		0
v -19 		-33 		0
# 8 vertices

g group_4_6306067

usemtl color_6306067
s 0

f 33 	35 	34
f 35 	36 	34
f 37 	39 	38
f 39 	40 	38
f 37 	38 	34
f 38 	33 	34
f 40 	39 	35
f 39 	36 	35
f 38 	40 	33
f 40 	35 	33
f 34 	36 	37
f 36 	39 	37
# 12 faces

 #end of obj_4

