# Object Export From Tinkercad Server 2015

mtllib obj.mtl

o obj_0
v 1 		-11.3223 		14.9239
v 1 		-6.7029 		13.0104
v 1 		-16.2971 		2.9134
v 1 		-11.6777 		1
v -1 		-6.7029 		13.0104
v -1 		-11.3223 		14.9239
v -1 		-11.6777 		1
v -1 		-16.2971 		2.9134
# 8 vertices

g group_0_4212297

usemtl color_4212297
s 0

f 1 	3 	2
f 3 	4 	2
f 5 	7 	6
f 7 	8 	6
f 5 	6 	2
f 6 	1 	2
f 8 	7 	3
f 7 	4 	3
f 6 	8 	1
f 8 	3 	1
f 2 	4 	5
f 4 	7 	5
# 12 faces

 #end of obj_0

o obj_1
v 1.5 		8.5 		14
v 1.5 		8.5 		11
v 1.5 		-13.5 		14
v 1.5 		-13.5 		11
v -1.5 		8.5 		11
v -1.5 		8.5 		14
v -1.5 		-13.5 		11
v -1.5 		-13.5 		14
# 8 vertices

g group_1_4212297

usemtl color_4212297
s 0

f 9 	11 	10
f 11 	12 	10
f 13 	15 	14
f 15 	16 	14
f 13 	14 	10
f 14 	9 	10
f 16 	15 	11
f 15 	12 	11
f 14 	16 	9
f 16 	11 	9
f 10 	12 	13
f 12 	15 	13
# 12 faces

 #end of obj_1

o obj_2
v 1.2 		-12.3703 		12
v 1.2 		-9 		10.6258
v 1.2 		-16 		3.3742
v 1.2 		-12.6297 		2
v 0.49 		-9 		10.6258
v 0.49 		-12.3703 		12
v 0.49 		-12.6297 		2
v 0.49 		-16 		3.3742
# 8 vertices

g group_2_6306067

usemtl color_6306067
s 0

f 17 	19 	18
f 19 	20 	18
f 21 	23 	22
f 23 	24 	22
f 21 	22 	18
f 22 	17 	18
f 24 	23 	19
f 23 	20 	19
f 22 	24 	17
f 24 	19 	17
f 18 	20 	21
f 20 	23 	21
# 12 faces

 #end of obj_2

o obj_3
v -0.445 		-12.3703 		12
v -0.445 		-9 		10.6258
v -0.445 		-16 		3.3742
v -0.445 		-12.6297 		2
v -1.155 		-9 		10.6258
v -1.155 		-12.3703 		12
v -1.155 		-12.6297 		2
v -1.155 		-16 		3.3742
# 8 vertices

g group_3_6306067

usemtl color_6306067
s 0

f 25 	27 	26
f 27 	28 	26
f 29 	31 	30
f 31 	32 	30
f 29 	30 	26
f 30 	25 	26
f 32 	31 	27
f 31 	28 	27
f 30 	32 	25
f 32 	27 	25
f 26 	28 	29
f 28 	31 	29
# 12 faces

 #end of obj_3

o obj_4
v -0.505 		-8.375 		10
v -0.505 		-8.359 		9.8042
v -0.505 		-8.9786 		9.7389
v -0.505 		-9 		10
v -0.505 		-8.3111 		9.6118
v -0.505 		-8.9148 		9.4824
v -0.505 		-8.2323 		9.426
v -0.505 		-8.8097 		9.2346
v -0.505 		-8.1238 		9.25
v -0.505 		-8.6651 		9
v -0.505 		-7.9875 		9.0869
v -0.505 		-8.4834 		8.7825
v -0.505 		-7.8258 		8.9393
v -0.505 		-8.2678 		8.5858
v -0.505 		-7.6414 		8.81
v -0.505 		-8.0219 		8.4133
v -0.505 		-7.4375 		8.701
v -0.505 		-7.75 		8.2679
v -0.505 		-7.2175 		8.6142
v -0.505 		-7.4567 		8.1522
v -0.505 		-6.9853 		8.5511
v -0.505 		-7.147 		8.0681
v -0.505 		-6.7447 		8.5128
v -0.505 		-6.8263 		8.0171
v -0.505 		-6.5 		8.5
v -0.505 		-6.5 		8
v -0.505 		-6.2553 		8.5128
v -0.505 		-6.1737 		8.0171
v -0.505 		-6.0147 		8.5511
v -0.505 		-5.853 		8.0681
v -0.505 		-5.7825 		8.6142
v -0.505 		-5.5433 		8.1522
v -0.505 		-5.5625 		8.701
v -0.505 		-5.25 		8.2679
v -0.505 		-5.3586 		8.81
v -0.505 		-4.9781 		8.4133
v -0.505 		-5.1742 		8.9393
v -0.505 		-4.7322 		8.5858
v -0.505 		-5.0125 		9.0869
v -0.505 		-4.5166 		8.7825
v -0.505 		-4.8762 		9.25
v -0.505 		-4.3349 		9
v -0.505 		-4.7677 		9.426
v -0.505 		-4.1903 		9.2346
v -0.505 		-4.6889 		9.6118
v -0.505 		-4.0852 		9.4824
v -0.505 		-4.641 		9.8042
v -0.505 		-4.0214 		9.7389
v -0.505 		-4.625 		10
v -0.505 		-4 		10
v -0.505 		-4.641 		10.1958
v -0.505 		-4.0214 		10.2611
v -0.505 		-4.6889 		10.3882
v -0.505 		-4.0852 		10.5176
v -0.505 		-4.7677 		10.574
v -0.505 		-4.1903 		10.7654
v -0.505 		-4.8762 		10.75
v -0.505 		-4.3349 		11
v -0.505 		-5.0125 		10.9131
v -0.505 		-4.5166 		11.2175
v -0.505 		-5.1742 		11.0607
v -0.505 		-4.7322 		11.4142
v -0.505 		-5.3586 		11.19
v -0.505 		-4.9781 		11.5867
v -0.505 		-5.5625 		11.299
v -0.505 		-5.25 		11.7321
v -0.505 		-5.7825 		11.3858
v -0.505 		-5.5433 		11.8478
v -0.505 		-6.0147 		11.4489
v -0.505 		-5.853 		11.9319
v -0.505 		-6.2553 		11.4872
v -0.505 		-6.1737 		11.9829
v -0.505 		-6.5 		11.5
v -0.505 		-6.5 		12
v -0.505 		-6.7447 		11.4872
v -0.505 		-6.8263 		11.9829
v -0.505 		-6.9853 		11.4489
v -0.505 		-7.147 		11.9319
v -0.505 		-7.2175 		11.3858
v -0.505 		-7.4567 		11.8478
v -0.505 		-7.4375 		11.299
v -0.505 		-7.75 		11.7321
v -0.505 		-7.6414 		11.19
v -0.505 		-8.0219 		11.5867
v -0.505 		-7.8258 		11.0607
v -0.505 		-8.2678 		11.4142
v -0.505 		-7.9875 		10.9131
v -0.505 		-8.4834 		11.2175
v -0.505 		-8.1238 		10.75
v -0.505 		-8.6651 		11
v -0.505 		-8.2323 		10.574
v -0.505 		-8.8097 		10.7654
v -0.505 		-8.3111 		10.3882
v -0.505 		-8.9148 		10.5176
v -0.505 		-8.359 		10.1958
v -0.505 		-8.9786 		10.2611
v 0 		-8.375 		10
v 0 		-8.359 		9.8042
v 0 		-8.3111 		9.6118
v 0 		-8.2323 		9.426
v 0 		-8.1238 		9.25
v 0 		-7.9875 		9.0869
v 0 		-7.8258 		8.9393
v 0 		-7.6414 		8.81
v 0 		-7.4375 		8.701
v 0 		-7.2175 		8.6142
v 0 		-6.9853 		8.5511
v 0 		-6.7447 		8.5128
v 0 		-6.5 		8.5
v 0 		-6.2553 		8.5128
v 0 		-6.0147 		8.5511
v 0 		-5.7825 		8.6142
v 0 		-5.5625 		8.701
v 0 		-5.3586 		8.81
v 0 		-5.1742 		8.9393
v 0 		-5.0125 		9.0869
v 0 		-4.8762 		9.25
v 0 		-4.7677 		9.426
v 0 		-4.6889 		9.6118
v 0 		-4.641 		9.8042
v 0 		-4.625 		10
v 0 		-4.641 		10.1958
v 0 		-4.6889 		10.3882
v 0 		-4.7677 		10.574
v 0 		-4.8762 		10.75
v 0 		-5.0125 		10.9131
v 0 		-5.1742 		11.0607
v 0 		-5.3586 		11.19
v 0 		-5.5625 		11.299
v 0 		-5.7825 		11.3858
v 0 		-6.0147 		11.4489
v 0 		-6.2553 		11.4872
v 0 		-6.5 		11.5
v 0 		-6.7447 		11.4872
v 0 		-6.9853 		11.4489
v 0 		-7.2175 		11.3858
v 0 		-7.4375 		11.299
v 0 		-7.6414 		11.19
v 0 		-7.8258 		11.0607
v 0 		-7.9875 		10.9131
v 0 		-8.1238 		10.75
v 0 		-8.2323 		10.574
v 0 		-8.3111 		10.3882
v 0 		-8.359 		10.1958
v 0 		-9 		10
v 0 		-8.9786 		9.7389
v 0 		-8.9148 		9.4824
v 0 		-8.8097 		9.2346
v 0 		-8.6651 		9
v 0 		-8.4834 		8.7825
v 0 		-8.2678 		8.5858
v 0 		-8.0219 		8.4133
v 0 		-7.75 		8.2679
v 0 		-7.4567 		8.1522
v 0 		-7.147 		8.0681
v 0 		-6.8263 		8.0171
v 0 		-6.5 		8
v 0 		-6.1737 		8.0171
v 0 		-5.853 		8.0681
v 0 		-5.5433 		8.1522
v 0 		-5.25 		8.2679
v 0 		-4.9781 		8.4133
v 0 		-4.7322 		8.5858
v 0 		-4.5166 		8.7825
v 0 		-4.3349 		9
v 0 		-4.1903 		9.2346
v 0 		-4.0852 		9.4824
v 0 		-4.0214 		9.7389
v 0 		-4 		10
v 0 		-4.0214 		10.2611
v 0 		-4.0852 		10.5176
v 0 		-4.1903 		10.7654
v 0 		-4.3349 		11
v 0 		-4.5166 		11.2175
v 0 		-4.7322 		11.4142
v 0 		-4.9781 		11.5867
v 0 		-5.25 		11.7321
v 0 		-5.5433 		11.8478
v 0 		-5.853 		11.9319
v 0 		-6.1737 		11.9829
v 0 		-6.5 		12
v 0 		-6.8263 		11.9829
v 0 		-7.147 		11.9319
v 0 		-7.4567 		11.8478
v 0 		-7.75 		11.7321
v 0 		-8.0219 		11.5867
v 0 		-8.2678 		11.4142
v 0 		-8.4834 		11.2175
v 0 		-8.6651 		11
v 0 		-8.8097 		10.7654
v 0 		-8.9148 		10.5176
v 0 		-8.9786 		10.2611
# 192 vertices

g group_4_4212297

usemtl color_4212297
s 0

f 33 	34 	35
f 33 	35 	36
f 34 	37 	38
f 34 	38 	35
f 37 	39 	40
f 37 	40 	38
f 39 	41 	42
f 39 	42 	40
f 41 	43 	44
f 41 	44 	42
f 43 	45 	46
f 43 	46 	44
f 45 	47 	48
f 45 	48 	46
f 47 	49 	50
f 47 	50 	48
f 49 	51 	52
f 49 	52 	50
f 51 	53 	54
f 51 	54 	52
f 53 	55 	56
f 53 	56 	54
f 55 	57 	58
f 55 	58 	56
f 57 	59 	60
f 57 	60 	58
f 59 	61 	62
f 59 	62 	60
f 61 	63 	64
f 61 	64 	62
f 63 	65 	66
f 63 	66 	64
f 65 	67 	68
f 65 	68 	66
f 67 	69 	70
f 67 	70 	68
f 69 	71 	72
f 69 	72 	70
f 71 	73 	74
f 71 	74 	72
f 73 	75 	76
f 73 	76 	74
f 75 	77 	78
f 75 	78 	76
f 77 	79 	80
f 77 	80 	78
f 79 	81 	82
f 79 	82 	80
f 81 	83 	84
f 81 	84 	82
f 83 	85 	86
f 83 	86 	84
f 85 	87 	88
f 85 	88 	86
f 87 	89 	90
f 87 	90 	88
f 89 	91 	92
f 89 	92 	90
f 91 	93 	94
f 91 	94 	92
f 93 	95 	96
f 93 	96 	94
f 95 	97 	98
f 95 	98 	96
f 97 	99 	100
f 97 	100 	98
f 99 	101 	102
f 99 	102 	100
f 101 	103 	104
f 101 	104 	102
f 103 	105 	106
f 103 	106 	104
f 105 	107 	108
f 105 	108 	106
f 107 	109 	110
f 107 	110 	108
f 109 	111 	112
f 109 	112 	110
f 111 	113 	114
f 111 	114 	112
f 113 	115 	116
f 113 	116 	114
f 115 	117 	118
f 115 	118 	116
f 117 	119 	120
f 117 	120 	118
f 119 	121 	122
f 119 	122 	120
f 121 	123 	124
f 121 	124 	122
f 123 	125 	126
f 123 	126 	124
f 125 	127 	128
f 125 	128 	126
f 127 	33 	36
f 127 	36 	128
f 129 	130 	34
f 129 	34 	33
f 130 	131 	37
f 130 	37 	34
f 131 	132 	39
f 131 	39 	37
f 132 	133 	41
f 132 	41 	39
f 133 	134 	43
f 133 	43 	41
f 134 	135 	45
f 134 	45 	43
f 135 	136 	47
f 135 	47 	45
f 136 	137 	49
f 136 	49 	47
f 137 	138 	51
f 137 	51 	49
f 138 	139 	53
f 138 	53 	51
f 139 	140 	55
f 139 	55 	53
f 140 	141 	57
f 140 	57 	55
f 141 	142 	59
f 141 	59 	57
f 142 	143 	61
f 142 	61 	59
f 143 	144 	63
f 143 	63 	61
f 144 	145 	65
f 144 	65 	63
f 145 	146 	67
f 145 	67 	65
f 146 	147 	69
f 146 	69 	67
f 147 	148 	71
f 147 	71 	69
f 148 	149 	73
f 148 	73 	71
f 149 	150 	75
f 149 	75 	73
f 150 	151 	77
f 150 	77 	75
f 151 	152 	79
f 151 	79 	77
f 152 	153 	81
f 152 	81 	79
f 153 	154 	83
f 153 	83 	81
f 154 	155 	85
f 154 	85 	83
f 155 	156 	87
f 155 	87 	85
f 156 	157 	89
f 156 	89 	87
f 157 	158 	91
f 157 	91 	89
f 158 	159 	93
f 158 	93 	91
f 159 	160 	95
f 159 	95 	93
f 160 	161 	97
f 160 	97 	95
f 161 	162 	99
f 161 	99 	97
f 162 	163 	101
f 162 	101 	99
f 163 	164 	103
f 163 	103 	101
f 164 	165 	105
f 164 	105 	103
f 165 	166 	107
f 165 	107 	105
f 166 	167 	109
f 166 	109 	107
f 167 	168 	111
f 167 	111 	109
f 168 	169 	113
f 168 	113 	111
f 169 	170 	115
f 169 	115 	113
f 170 	171 	117
f 170 	117 	115
f 171 	172 	119
f 171 	119 	117
f 172 	173 	121
f 172 	121 	119
f 173 	174 	123
f 173 	123 	121
f 174 	175 	125
f 174 	125 	123
f 175 	176 	127
f 175 	127 	125
f 176 	129 	33
f 176 	33 	127
f 177 	178 	130
f 177 	130 	129
f 178 	179 	131
f 178 	131 	130
f 179 	180 	132
f 179 	132 	131
f 180 	181 	133
f 180 	133 	132
f 181 	182 	134
f 181 	134 	133
f 182 	183 	135
f 182 	135 	134
f 183 	184 	136
f 183 	136 	135
f 184 	185 	137
f 184 	137 	136
f 185 	186 	138
f 185 	138 	137
f 186 	187 	139
f 186 	139 	138
f 187 	188 	140
f 187 	140 	139
f 188 	189 	141
f 188 	141 	140
f 189 	190 	142
f 189 	142 	141
f 190 	191 	143
f 190 	143 	142
f 191 	192 	144
f 191 	144 	143
f 192 	193 	145
f 192 	145 	144
f 193 	194 	146
f 193 	146 	145
f 194 	195 	147
f 194 	147 	146
f 195 	196 	148
f 195 	148 	147
f 196 	197 	149
f 196 	149 	148
f 197 	198 	150
f 197 	150 	149
f 198 	199 	151
f 198 	151 	150
f 199 	200 	152
f 199 	152 	151
f 200 	201 	153
f 200 	153 	152
f 201 	202 	154
f 201 	154 	153
f 202 	203 	155
f 202 	155 	154
f 203 	204 	156
f 203 	156 	155
f 204 	205 	157
f 204 	157 	156
f 205 	206 	158
f 205 	158 	157
f 206 	207 	159
f 206 	159 	158
f 207 	208 	160
f 207 	160 	159
f 208 	209 	161
f 208 	161 	160
f 209 	210 	162
f 209 	162 	161
f 210 	211 	163
f 210 	163 	162
f 211 	212 	164
f 211 	164 	163
f 212 	213 	165
f 212 	165 	164
f 213 	214 	166
f 213 	166 	165
f 214 	215 	167
f 214 	167 	166
f 215 	216 	168
f 215 	168 	167
f 216 	217 	169
f 216 	169 	168
f 217 	218 	170
f 217 	170 	169
f 218 	219 	171
f 218 	171 	170
f 219 	220 	172
f 219 	172 	171
f 220 	221 	173
f 220 	173 	172
f 221 	222 	174
f 221 	174 	173
f 222 	223 	175
f 222 	175 	174
f 223 	224 	176
f 223 	176 	175
f 224 	177 	129
f 224 	129 	176
f 36 	35 	35
f 35 	38 	38
f 38 	40 	40
f 40 	42 	42
f 42 	44 	44
f 44 	46 	46
f 46 	48 	48
f 48 	50 	50
f 50 	52 	52
f 52 	54 	54
f 54 	56 	56
f 56 	58 	58
f 58 	60 	60
f 60 	62 	62
f 62 	64 	64
f 64 	66 	66
f 66 	68 	68
f 68 	70 	70
f 70 	72 	72
f 72 	74 	74
f 74 	76 	76
f 76 	78 	78
f 78 	80 	80
f 80 	82 	82
f 82 	84 	84
f 84 	86 	86
f 86 	88 	88
f 88 	90 	90
f 90 	92 	92
f 92 	94 	94
f 94 	96 	96
f 96 	98 	98
f 98 	100 	100
f 100 	102 	102
f 102 	104 	104
f 104 	106 	106
f 106 	108 	108
f 108 	110 	110
f 110 	112 	112
f 112 	114 	114
f 114 	116 	116
f 116 	118 	118
f 118 	120 	120
f 120 	122 	122
f 122 	124 	124
f 124 	126 	126
f 126 	128 	128
f 128 	36 	36
f 36 	35 	178
f 36 	178 	177
f 35 	38 	179
f 35 	179 	178
f 38 	40 	180
f 38 	180 	179
f 40 	42 	181
f 40 	181 	180
f 42 	44 	182
f 42 	182 	181
f 44 	46 	183
f 44 	183 	182
f 46 	48 	184
f 46 	184 	183
f 48 	50 	185
f 48 	185 	184
f 50 	52 	186
f 50 	186 	185
f 52 	54 	187
f 52 	187 	186
f 54 	56 	188
f 54 	188 	187
f 56 	58 	189
f 56 	189 	188
f 58 	60 	190
f 58 	190 	189
f 60 	62 	191
f 60 	191 	190
f 62 	64 	192
f 62 	192 	191
f 64 	66 	193
f 64 	193 	192
f 66 	68 	194
f 66 	194 	193
f 68 	70 	195
f 68 	195 	194
f 70 	72 	196
f 70 	196 	195
f 72 	74 	197
f 72 	197 	196
f 74 	76 	198
f 74 	198 	197
f 76 	78 	199
f 76 	199 	198
f 78 	80 	200
f 78 	200 	199
f 80 	82 	201
f 80 	201 	200
f 82 	84 	202
f 82 	202 	201
f 84 	86 	203
f 84 	203 	202
f 86 	88 	204
f 86 	204 	203
f 88 	90 	205
f 88 	205 	204
f 90 	92 	206
f 90 	206 	205
f 92 	94 	207
f 92 	207 	206
f 94 	96 	208
f 94 	208 	207
f 96 	98 	209
f 96 	209 	208
f 98 	100 	210
f 98 	210 	209
f 100 	102 	211
f 100 	211 	210
f 102 	104 	212
f 102 	212 	211
f 104 	106 	213
f 104 	213 	212
f 106 	108 	214
f 106 	214 	213
f 108 	110 	215
f 108 	215 	214
f 110 	112 	216
f 110 	216 	215
f 112 	114 	217
f 112 	217 	216
f 114 	116 	218
f 114 	218 	217
f 116 	118 	219
f 116 	219 	218
f 118 	120 	220
f 118 	220 	219
f 120 	122 	221
f 120 	221 	220
f 122 	124 	222
f 122 	222 	221
f 124 	126 	223
f 124 	223 	222
f 126 	128 	224
f 126 	224 	223
f 128 	36 	177
f 128 	177 	224
f 177 	178 	178
f 178 	179 	179
f 179 	180 	180
f 180 	181 	181
f 181 	182 	182
f 182 	183 	183
f 183 	184 	184
f 184 	185 	185
f 185 	186 	186
f 186 	187 	187
f 187 	188 	188
f 188 	189 	189
f 189 	190 	190
f 190 	191 	191
f 191 	192 	192
f 192 	193 	193
f 193 	194 	194
f 194 	195 	195
f 195 	196 	196
f 196 	197 	197
f 197 	198 	198
f 198 	199 	199
f 199 	200 	200
f 200 	201 	201
f 201 	202 	202
f 202 	203 	203
f 203 	204 	204
f 204 	205 	205
f 205 	206 	206
f 206 	207 	207
f 207 	208 	208
f 208 	209 	209
f 209 	210 	210
f 210 	211 	211
f 211 	212 	212
f 212 	213 	213
f 213 	214 	214
f 214 	215 	215
f 215 	216 	216
f 216 	217 	217
f 217 	218 	218
f 218 	219 	219
f 219 	220 	220
f 220 	221 	221
f 221 	222 	222
f 222 	223 	223
f 223 	224 	224
f 224 	177 	177
# 480 faces

 #end of obj_4

o obj_5
v 2 		9.5 		15
v 2 		9.5 		13
v 2 		-14 		15
v 2 		-14 		13
v -2 		9.5 		13
v -2 		9.5 		15
v -2 		-14 		13
v -2 		-14 		15
# 8 vertices

g group_5_6383466

usemtl color_6383466
s 0

f 225 	227 	226
f 227 	228 	226
f 229 	231 	230
f 231 	232 	230
f 229 	230 	226
f 230 	225 	226
f 232 	231 	227
f 231 	228 	227
f 230 	232 	225
f 232 	227 	225
f 226 	228 	229
f 228 	231 	229
# 12 faces

 #end of obj_5

