# Object Export From Tinkercad Server 2015

mtllib obj.mtl

o obj_0
v 17 		1 		75
v 17 		1 		0
v 17 		-20 		75
v 17 		-20 		0
v -4 		-20 		75
v -4 		-20 		0
v -4 		1 		75
v -4 		1 		0
# 8 vertices

g group_0_9262360

usemtl color_9262360
s 0

f 2 	1 	3
f 4 	2 	3
f 6 	5 	7
f 8 	6 	7
f 7 	5 	3
f 1 	7 	3
f 6 	8 	2
f 4 	6 	2
f 8 	7 	1
f 2 	8 	1
f 4 	3 	5
f 6 	4 	5
# 12 faces

 #end of obj_0

o obj_1
v 20 		-22 		26
v 20 		-22 		0
v 20 		3 		26
v 20 		3 		0
v -7 		3 		26
v -7 		3 		0
v -7 		-22 		26
v -7 		-22 		0
# 8 vertices

g group_1_14860437

usemtl color_14860437
s 0

f 9 	10 	11
f 10 	12 	11
f 13 	14 	15
f 14 	16 	15
f 13 	15 	11
f 15 	9 	11
f 16 	14 	10
f 14 	12 	10
f 15 	16 	9
f 16 	10 	9
f 11 	12 	13
f 12 	14 	13
# 12 faces

 #end of obj_1

o obj_2
v 20 		-22 		87
v 20 		-22 		61
v 20 		2 		87
v 20 		2 		61
v -7 		2 		87
v -7 		2 		61
v -7 		-22 		87
v -7 		-22 		61
# 8 vertices

g group_2_14860437

usemtl color_14860437
s 0

f 17 	18 	19
f 18 	20 	19
f 21 	22 	23
f 22 	24 	23
f 21 	23 	19
f 23 	17 	19
f 24 	22 	18
f 22 	20 	18
f 23 	24 	17
f 24 	18 	17
f 19 	20 	21
f 20 	22 	21
# 12 faces

 #end of obj_2

o obj_3
v 7.4222 		4 		64.6121
v 6.2846 		4 		64.5374
v 6.2846 		4 		73.2687
v 8.5403 		4 		64.835
v 9.6198 		4 		65.2021
v 10.6423 		4 		65.7072
v 11.5902 		4 		66.3417
v 12.4473 		4 		67.0948
v 13.199 		4 		67.9535
v 13.8324 		4 		68.9031
v 14.3366 		4 		69.9274
v 14.703 		4 		71.0089
v 14.9254 		4 		72.1291
v 15 		4 		73.2687
v 14.9254 		4 		74.4084
v 14.703 		4 		75.5285
v 14.3366 		4 		76.61
v 13.8324 		4 		77.6344
v 13.199 		4 		78.584
v 12.4473 		4 		79.4427
v 11.5902 		4 		80.1957
v 10.6423 		4 		80.8302
v 9.6198 		4 		81.3354
v 8.5403 		4 		81.7025
v 7.4222 		4 		81.9253
v 6.2846 		4 		82
v 5.147 		4 		81.9253
v 4.0289 		4 		81.7025
v 2.9494 		4 		81.3354
v 1.9269 		4 		80.8302
v 0.979 		4 		80.1957
v 0.1219 		4 		79.4427
v -0.6298 		4 		78.584
v -1.2631 		4 		77.6344
v -1.7674 		4 		76.61
v -2.1338 		4 		75.5285
v -2.3562 		4 		74.4084
v -2.4308 		4 		73.2687
v -2.3562 		4 		72.1291
v -2.1338 		4 		71.0089
v -1.7674 		4 		69.9274
v -1.2631 		4 		68.9031
v -0.6298 		4 		67.9535
v 0.1219 		4 		67.0948
v 0.979 		4 		66.3417
v 1.9269 		4 		65.7072
v 2.9494 		4 		65.2021
v 4.0289 		4 		64.835
v 5.147 		4 		64.6121
v 6.2846 		-23 		64.5374
v 7.4222 		-23 		64.6121
v 6.2846 		-23 		73.2687
v 8.5403 		-23 		64.835
v 9.6198 		-23 		65.2021
v 10.6423 		-23 		65.7072
v 11.5902 		-23 		66.3417
v 12.4473 		-23 		67.0948
v 13.199 		-23 		67.9535
v 13.8324 		-23 		68.9031
v 14.3366 		-23 		69.9274
v 14.703 		-23 		71.0089
v 14.9254 		-23 		72.1291
v 15 		-23 		73.2687
v 14.9254 		-23 		74.4084
v 14.703 		-23 		75.5285
v 14.3366 		-23 		76.61
v 13.8324 		-23 		77.6344
v 13.199 		-23 		78.584
v 12.4473 		-23 		79.4427
v 11.5902 		-23 		80.1957
v 10.6423 		-23 		80.8302
v 9.6198 		-23 		81.3354
v 8.5403 		-23 		81.7025
v 7.4222 		-23 		81.9253
v 6.2846 		-23 		82
v 5.147 		-23 		81.9253
v 4.0289 		-23 		81.7025
v 2.9494 		-23 		81.3354
v 1.9269 		-23 		80.8302
v 0.979 		-23 		80.1957
v 0.1219 		-23 		79.4427
v -0.6298 		-23 		78.584
v -1.2631 		-23 		77.6344
v -1.7674 		-23 		76.61
v -2.1338 		-23 		75.5285
v -2.3562 		-23 		74.4084
v -2.4308 		-23 		73.2687
v -2.3562 		-23 		72.1291
v -2.1338 		-23 		71.0089
v -1.7674 		-23 		69.9274
v -1.2631 		-23 		68.9031
v -0.6298 		-23 		67.9535
v 0.1219 		-23 		67.0948
v 0.979 		-23 		66.3417
v 1.9269 		-23 		65.7072
v 2.9494 		-23 		65.2021
v 4.0289 		-23 		64.835
v 5.147 		-23 		64.6121
# 98 vertices

g group_3_16448250

usemtl color_16448250
s 0

f 25 	26 	27
f 28 	25 	27
f 29 	28 	27
f 30 	29 	27
f 31 	30 	27
f 32 	31 	27
f 33 	32 	27
f 34 	33 	27
f 35 	34 	27
f 36 	35 	27
f 37 	36 	27
f 38 	37 	27
f 39 	38 	27
f 40 	39 	27
f 41 	40 	27
f 42 	41 	27
f 43 	42 	27
f 44 	43 	27
f 45 	44 	27
f 46 	45 	27
f 47 	46 	27
f 48 	47 	27
f 49 	48 	27
f 50 	49 	27
f 51 	50 	27
f 52 	51 	27
f 53 	52 	27
f 54 	53 	27
f 55 	54 	27
f 56 	55 	27
f 57 	56 	27
f 58 	57 	27
f 59 	58 	27
f 60 	59 	27
f 61 	60 	27
f 62 	61 	27
f 63 	62 	27
f 64 	63 	27
f 65 	64 	27
f 66 	65 	27
f 67 	66 	27
f 68 	67 	27
f 69 	68 	27
f 70 	69 	27
f 71 	70 	27
f 72 	71 	27
f 73 	72 	27
f 26 	73 	27
f 74 	75 	76
f 75 	77 	76
f 77 	78 	76
f 78 	79 	76
f 79 	80 	76
f 80 	81 	76
f 81 	82 	76
f 82 	83 	76
f 83 	84 	76
f 84 	85 	76
f 85 	86 	76
f 86 	87 	76
f 87 	88 	76
f 88 	89 	76
f 89 	90 	76
f 90 	91 	76
f 91 	92 	76
f 92 	93 	76
f 93 	94 	76
f 94 	95 	76
f 95 	96 	76
f 96 	97 	76
f 97 	98 	76
f 98 	99 	76
f 99 	100 	76
f 100 	101 	76
f 101 	102 	76
f 102 	103 	76
f 103 	104 	76
f 104 	105 	76
f 105 	106 	76
f 106 	107 	76
f 107 	108 	76
f 108 	109 	76
f 109 	110 	76
f 110 	111 	76
f 111 	112 	76
f 112 	113 	76
f 113 	114 	76
f 114 	115 	76
f 115 	116 	76
f 116 	117 	76
f 117 	118 	76
f 118 	119 	76
f 119 	120 	76
f 120 	121 	76
f 121 	122 	76
f 122 	74 	76
f 26 	25 	25
f 25 	28 	28
f 28 	29 	29
f 29 	30 	30
f 30 	31 	31
f 31 	32 	32
f 32 	33 	33
f 33 	34 	34
f 34 	35 	35
f 35 	36 	36
f 36 	37 	37
f 37 	38 	38
f 38 	39 	39
f 39 	40 	40
f 40 	41 	41
f 41 	42 	42
f 42 	43 	43
f 43 	44 	44
f 44 	45 	45
f 45 	46 	46
f 46 	47 	47
f 47 	48 	48
f 48 	49 	49
f 49 	50 	50
f 50 	51 	51
f 51 	52 	52
f 52 	53 	53
f 53 	54 	54
f 54 	55 	55
f 55 	56 	56
f 56 	57 	57
f 57 	58 	58
f 58 	59 	59
f 59 	60 	60
f 60 	61 	61
f 61 	62 	62
f 62 	63 	63
f 63 	64 	64
f 64 	65 	65
f 65 	66 	66
f 66 	67 	67
f 67 	68 	68
f 68 	69 	69
f 69 	70 	70
f 70 	71 	71
f 71 	72 	72
f 72 	73 	73
f 73 	26 	26
f 26 	25 	75
f 26 	75 	74
f 25 	28 	77
f 25 	77 	75
f 28 	29 	78
f 28 	78 	77
f 29 	30 	79
f 29 	79 	78
f 30 	31 	80
f 30 	80 	79
f 31 	32 	81
f 31 	81 	80
f 32 	33 	82
f 32 	82 	81
f 33 	34 	83
f 33 	83 	82
f 34 	35 	84
f 34 	84 	83
f 35 	36 	85
f 35 	85 	84
f 36 	37 	86
f 36 	86 	85
f 37 	38 	87
f 37 	87 	86
f 38 	39 	88
f 38 	88 	87
f 39 	40 	89
f 39 	89 	88
f 40 	41 	90
f 40 	90 	89
f 41 	42 	91
f 41 	91 	90
f 42 	43 	92
f 42 	92 	91
f 43 	44 	93
f 43 	93 	92
f 44 	45 	94
f 44 	94 	93
f 45 	46 	95
f 45 	95 	94
f 46 	47 	96
f 46 	96 	95
f 47 	48 	97
f 47 	97 	96
f 48 	49 	98
f 48 	98 	97
f 49 	50 	99
f 49 	99 	98
f 50 	51 	100
f 50 	100 	99
f 51 	52 	101
f 51 	101 	100
f 52 	53 	102
f 52 	102 	101
f 53 	54 	103
f 53 	103 	102
f 54 	55 	104
f 54 	104 	103
f 55 	56 	105
f 55 	105 	104
f 56 	57 	106
f 56 	106 	105
f 57 	58 	107
f 57 	107 	106
f 58 	59 	108
f 58 	108 	107
f 59 	60 	109
f 59 	109 	108
f 60 	61 	110
f 60 	110 	109
f 61 	62 	111
f 61 	111 	110
f 62 	63 	112
f 62 	112 	111
f 63 	64 	113
f 63 	113 	112
f 64 	65 	114
f 64 	114 	113
f 65 	66 	115
f 65 	115 	114
f 66 	67 	116
f 66 	116 	115
f 67 	68 	117
f 67 	117 	116
f 68 	69 	118
f 68 	118 	117
f 69 	70 	119
f 69 	119 	118
f 70 	71 	120
f 70 	120 	119
f 71 	72 	121
f 71 	121 	120
f 72 	73 	122
f 72 	122 	121
f 73 	26 	74
f 73 	74 	122
f 74 	75 	75
f 75 	77 	77
f 77 	78 	78
f 78 	79 	79
f 79 	80 	80
f 80 	81 	81
f 81 	82 	82
f 82 	83 	83
f 83 	84 	84
f 84 	85 	85
f 85 	86 	86
f 86 	87 	87
f 87 	88 	88
f 88 	89 	89
f 89 	90 	90
f 90 	91 	91
f 91 	92 	92
f 92 	93 	93
f 93 	94 	94
f 94 	95 	95
f 95 	96 	96
f 96 	97 	97
f 97 	98 	98
f 98 	99 	99
f 99 	100 	100
f 100 	101 	101
f 101 	102 	102
f 102 	103 	103
f 103 	104 	104
f 104 	105 	105
f 105 	106 	106
f 106 	107 	107
f 107 	108 	108
f 108 	109 	109
f 109 	110 	110
f 110 	111 	111
f 111 	112 	112
f 112 	113 	113
f 113 	114 	114
f 114 	115 	115
f 115 	116 	116
f 116 	117 	117
f 117 	118 	118
f 118 	119 	119
f 119 	120 	120
f 120 	121 	121
f 121 	122 	122
f 122 	74 	74
# 288 faces

 #end of obj_3

o obj_4
v 6.016 		5 		72
v 6.016 		4 		72
v 5.6955 		5 		72.1328
v 5.6955 		4 		72.1328
v 8.914 		5 		79.9031
v 8.914 		4 		79.9031
v 9.2346 		5 		79.7703
v 9.2346 		4 		79.7703
# 8 vertices

g group_4_2829873

usemtl color_2829873
s 0

f 123 	124 	125
f 124 	126 	125
f 127 	128 	129
f 128 	130 	129
f 127 	129 	125
f 129 	123 	125
f 130 	128 	124
f 128 	126 	124
f 129 	130 	123
f 130 	124 	123
f 125 	126 	127
f 126 	128 	127
# 12 faces

 #end of obj_4

o obj_5
v 1.2808 		5 		73.3355
v 1.2808 		4 		73.3355
v 1.298 		5 		73.6753
v 1.298 		4 		73.6753
v 7.821 		5 		74.0429
v 7.821 		4 		74.0429
v 7.8038 		5 		73.7031
v 7.8038 		4 		73.7031
# 8 vertices

g group_5_2829873

usemtl color_2829873
s 0

f 131 	132 	133
f 132 	134 	133
f 135 	136 	137
f 136 	138 	137
f 135 	137 	133
f 137 	131 	133
f 138 	136 	132
f 136 	134 	132
f 137 	138 	131
f 138 	132 	131
f 133 	134 	135
f 134 	136 	135
# 12 faces

 #end of obj_5

o obj_6
v 6.0391 		-23 		72
v 6.0391 		-24 		72
v 5.7186 		-23 		72.1328
v 5.7186 		-24 		72.1328
v 8.9371 		-23 		79.9031
v 8.9371 		-24 		79.9031
v 9.2577 		-23 		79.7703
v 9.2577 		-24 		79.7703
# 8 vertices

g group_6_2829873

usemtl color_2829873
s 0

f 139 	140 	141
f 140 	142 	141
f 143 	144 	145
f 144 	146 	145
f 143 	145 	141
f 145 	139 	141
f 146 	144 	140
f 144 	142 	140
f 145 	146 	139
f 146 	140 	139
f 141 	142 	143
f 142 	144 	143
# 12 faces

 #end of obj_6

o obj_7
v 1.3039 		-23 		73.3355
v 1.3039 		-24 		73.3355
v 1.3211 		-23 		73.6753
v 1.3211 		-24 		73.6753
v 7.8441 		-23 		74.0429
v 7.8441 		-24 		74.0429
v 7.8269 		-23 		73.7031
v 7.8269 		-24 		73.7031
# 8 vertices

g group_7_2829873

usemtl color_2829873
s 0

f 147 	148 	149
f 148 	150 	149
f 151 	152 	153
f 152 	154 	153
f 151 	153 	149
f 153 	147 	149
f 154 	152 	148
f 152 	150 	148
f 153 	154 	147
f 154 	148 	147
f 149 	150 	151
f 150 	152 	151
# 12 faces

 #end of obj_7

o obj_8
v 16.8185 		-19.2633 		103
v 16.8185 		-19.2633 		87
v 16.8185 		0.7367 		103
v 16.8185 		0.7367 		87
v -3.1815 		0.7367 		103
v -3.1815 		0.7367 		87
v -3.1815 		-19.2633 		103
v -3.1815 		-19.2633 		87
# 8 vertices

g group_8_2829873

usemtl color_2829873
s 0

f 155 	156 	157
f 156 	158 	157
f 159 	160 	161
f 160 	162 	161
f 159 	161 	157
f 161 	155 	157
f 162 	160 	156
f 160 	158 	156
f 161 	162 	155
f 162 	156 	155
f 157 	158 	159
f 158 	160 	159
# 12 faces

 #end of obj_8

o obj_9
v 56 		-8 		55
v 56 		-8 		0
v 56 		30 		55
v 56 		30 		0
v -50 		30 		55
v -50 		30 		0
v -50 		-8 		55
v -50 		-8 		0
# 8 vertices

g group_9_14860437

usemtl color_14860437
s 0

f 163 	164 	165
f 164 	166 	165
f 167 	168 	169
f 168 	170 	169
f 167 	169 	165
f 169 	163 	165
f 170 	168 	164
f 168 	166 	164
f 169 	170 	163
f 170 	164 	163
f 165 	166 	167
f 166 	168 	167
# 12 faces

 #end of obj_9

o obj_10
v 56 		-7.6886 		55
v 56 		-7.5955 		55.9802
v 14 		-7.5955 		55.9802
v 14 		-7.6886 		55
v 56 		-7.3169 		56.9509
v 14 		-7.3169 		56.9509
v 56 		-6.8557 		57.9028
v 14 		-6.8557 		57.9028
v 56 		-6.2161 		58.8268
v 14 		-6.2161 		58.8268
v 56 		-5.4045 		59.714
v 14 		-5.4045 		59.714
v 56 		-4.4285 		60.5557
v 14 		-4.4285 		60.5557
v 56 		-3.2977 		61.3439
v 14 		-3.2977 		61.3439
v 56 		-2.0228 		62.0711
v 14 		-2.0228 		62.0711
v 56 		-0.6162 		62.7301
v 14 		-0.6162 		62.7301
v 56 		0.9086 		63.3147
v 14 		0.9086 		63.3147
v 56 		2.5368 		63.8192
v 14 		2.5368 		63.8192
v 56 		4.2529 		64.2388
v 14 		4.2529 		64.2388
v 56 		6.0403 		64.5694
v 14 		6.0403 		64.5694
v 56 		7.8818 		64.8079
v 14 		7.8818 		64.8079
v 56 		9.7596 		64.9518
v 14 		9.7596 		64.9518
v 56 		11.6557 		65
v 14 		11.6557 		65
v 56 		13.5518 		64.9518
v 14 		13.5518 		64.9518
v 56 		15.4296 		64.8079
v 14 		15.4296 		64.8079
v 56 		17.271 		64.5694
v 14 		17.271 		64.5694
v 56 		19.0584 		64.2388
v 14 		19.0584 		64.2388
v 56 		20.7745 		63.8192
v 14 		20.7745 		63.8192
v 56 		22.4028 		63.3147
v 14 		22.4028 		63.3147
v 56 		23.9276 		62.7301
v 14 		23.9276 		62.7301
v 56 		25.3342 		62.0711
v 14 		25.3342 		62.0711
v 56 		26.609 		61.3439
v 14 		26.609 		61.3439
v 56 		27.7399 		60.5557
v 14 		27.7399 		60.5557
v 56 		28.7158 		59.714
v 14 		28.7158 		59.714
v 56 		29.5275 		58.8268
v 14 		29.5275 		58.8268
v 56 		30.167 		57.9028
v 14 		30.167 		57.9028
v 56 		30.6283 		56.9509
v 14 		30.6283 		56.9509
v 56 		30.9069 		55.9802
v 14 		30.9069 		55.9802
v 56 		31 		55
v 14 		31 		55
v 14 		11.6557 		55
v 56 		11.6557 		55
# 68 vertices

g group_10_6383466

usemtl color_6383466
s 0

f 171 	172 	173
f 174 	171 	173
f 172 	175 	176
f 173 	172 	176
f 175 	177 	178
f 176 	175 	178
f 177 	179 	180
f 178 	177 	180
f 179 	181 	182
f 180 	179 	182
f 181 	183 	184
f 182 	181 	184
f 183 	185 	186
f 184 	183 	186
f 185 	187 	188
f 186 	185 	188
f 187 	189 	190
f 188 	187 	190
f 189 	191 	192
f 190 	189 	192
f 191 	193 	194
f 192 	191 	194
f 193 	195 	196
f 194 	193 	196
f 195 	197 	198
f 196 	195 	198
f 197 	199 	200
f 198 	197 	200
f 199 	201 	202
f 200 	199 	202
f 201 	203 	204
f 202 	201 	204
f 203 	205 	206
f 204 	203 	206
f 205 	207 	208
f 206 	205 	208
f 207 	209 	210
f 208 	207 	210
f 209 	211 	212
f 210 	209 	212
f 211 	213 	214
f 212 	211 	214
f 213 	215 	216
f 214 	213 	216
f 215 	217 	218
f 216 	215 	218
f 217 	219 	220
f 218 	217 	220
f 219 	221 	222
f 220 	219 	222
f 221 	223 	224
f 222 	221 	224
f 223 	225 	226
f 224 	223 	226
f 225 	227 	228
f 226 	225 	228
f 227 	229 	230
f 228 	227 	230
f 229 	231 	232
f 230 	229 	232
f 231 	233 	234
f 232 	231 	234
f 233 	235 	236
f 234 	233 	236
f 174 	173 	237
f 173 	176 	237
f 176 	178 	237
f 178 	180 	237
f 180 	182 	237
f 182 	184 	237
f 184 	186 	237
f 186 	188 	237
f 188 	190 	237
f 190 	192 	237
f 192 	194 	237
f 194 	196 	237
f 196 	198 	237
f 198 	200 	237
f 200 	202 	237
f 202 	204 	237
f 204 	206 	237
f 206 	208 	237
f 208 	210 	237
f 210 	212 	237
f 212 	214 	237
f 214 	216 	237
f 216 	218 	237
f 218 	220 	237
f 220 	222 	237
f 222 	224 	237
f 224 	226 	237
f 226 	228 	237
f 228 	230 	237
f 230 	232 	237
f 232 	234 	237
f 234 	236 	237
f 172 	171 	238
f 175 	172 	238
f 177 	175 	238
f 179 	177 	238
f 181 	179 	238
f 183 	181 	238
f 185 	183 	238
f 187 	185 	238
f 189 	187 	238
f 191 	189 	238
f 193 	191 	238
f 195 	193 	238
f 197 	195 	238
f 199 	197 	238
f 201 	199 	238
f 203 	201 	238
f 205 	203 	238
f 207 	205 	238
f 209 	207 	238
f 211 	209 	238
f 213 	211 	238
f 215 	213 	238
f 217 	215 	238
f 219 	217 	238
f 221 	219 	238
f 223 	221 	238
f 225 	223 	238
f 227 	225 	238
f 229 	227 	238
f 231 	229 	238
f 233 	231 	238
f 235 	233 	238
f 174 	236 	171
f 171 	236 	235
# 130 faces

 #end of obj_10

o obj_11
v 35 		-7.6886 		55
v 35 		-7.5955 		55.9802
v -10 		-7.5955 		55.9802
v -10 		-7.6886 		55
v 35 		-7.3169 		56.9509
v -10 		-7.3169 		56.9509
v 35 		-6.8557 		57.9028
v -10 		-6.8557 		57.9028
v 35 		-6.2161 		58.8268
v -10 		-6.2161 		58.8268
v 35 		-5.4045 		59.714
v -10 		-5.4045 		59.714
v 35 		-4.4285 		60.5557
v -10 		-4.4285 		60.5557
v 35 		-3.2977 		61.3439
v -10 		-3.2977 		61.3439
v 35 		-2.0228 		62.0711
v -10 		-2.0228 		62.0711
v 35 		-0.6162 		62.7301
v -10 		-0.6162 		62.7301
v 35 		0.9086 		63.3147
v -10 		0.9086 		63.3147
v 35 		2.5368 		63.8192
v -10 		2.5368 		63.8192
v 35 		4.2529 		64.2388
v -10 		4.2529 		64.2388
v 35 		6.0403 		64.5694
v -10 		6.0403 		64.5694
v 35 		7.8818 		64.8079
v -10 		7.8818 		64.8079
v 35 		9.7596 		64.9518
v -10 		9.7596 		64.9518
v 35 		11.6557 		65
v -10 		11.6557 		65
v 35 		13.5518 		64.9518
v -10 		13.5518 		64.9518
v 35 		15.4296 		64.8079
v -10 		15.4296 		64.8079
v 35 		17.271 		64.5694
v -10 		17.271 		64.5694
v 35 		19.0584 		64.2388
v -10 		19.0584 		64.2388
v 35 		20.7745 		63.8192
v -10 		20.7745 		63.8192
v 35 		22.4028 		63.3147
v -10 		22.4028 		63.3147
v 35 		23.9276 		62.7301
v -10 		23.9276 		62.7301
v 35 		25.3342 		62.0711
v -10 		25.3342 		62.0711
v 35 		26.609 		61.3439
v -10 		26.609 		61.3439
v 35 		27.7399 		60.5557
v -10 		27.7399 		60.5557
v 35 		28.7158 		59.714
v -10 		28.7158 		59.714
v 35 		29.5275 		58.8268
v -10 		29.5275 		58.8268
v 35 		30.167 		57.9028
v -10 		30.167 		57.9028
v 35 		30.6283 		56.9509
v -10 		30.6283 		56.9509
v 35 		30.9069 		55.9802
v -10 		30.9069 		55.9802
v 35 		31 		55
v -10 		31 		55
v -10 		11.6557 		55
v 35 		11.6557 		55
# 68 vertices

g group_11_6383466

usemtl color_6383466
s 0

f 239 	240 	241
f 242 	239 	241
f 240 	243 	244
f 241 	240 	244
f 243 	245 	246
f 244 	243 	246
f 245 	247 	248
f 246 	245 	248
f 247 	249 	250
f 248 	247 	250
f 249 	251 	252
f 250 	249 	252
f 251 	253 	254
f 252 	251 	254
f 253 	255 	256
f 254 	253 	256
f 255 	257 	258
f 256 	255 	258
f 257 	259 	260
f 258 	257 	260
f 259 	261 	262
f 260 	259 	262
f 261 	263 	264
f 262 	261 	264
f 263 	265 	266
f 264 	263 	266
f 265 	267 	268
f 266 	265 	268
f 267 	269 	270
f 268 	267 	270
f 269 	271 	272
f 270 	269 	272
f 271 	273 	274
f 272 	271 	274
f 273 	275 	276
f 274 	273 	276
f 275 	277 	278
f 276 	275 	278
f 277 	279 	280
f 278 	277 	280
f 279 	281 	282
f 280 	279 	282
f 281 	283 	284
f 282 	281 	284
f 283 	285 	286
f 284 	283 	286
f 285 	287 	288
f 286 	285 	288
f 287 	289 	290
f 288 	287 	290
f 289 	291 	292
f 290 	289 	292
f 291 	293 	294
f 292 	291 	294
f 293 	295 	296
f 294 	293 	296
f 295 	297 	298
f 296 	295 	298
f 297 	299 	300
f 298 	297 	300
f 299 	301 	302
f 300 	299 	302
f 301 	303 	304
f 302 	301 	304
f 242 	241 	305
f 241 	244 	305
f 244 	246 	305
f 246 	248 	305
f 248 	250 	305
f 250 	252 	305
f 252 	254 	305
f 254 	256 	305
f 256 	258 	305
f 258 	260 	305
f 260 	262 	305
f 262 	264 	305
f 264 	266 	305
f 266 	268 	305
f 268 	270 	305
f 270 	272 	305
f 272 	274 	305
f 274 	276 	305
f 276 	278 	305
f 278 	280 	305
f 280 	282 	305
f 282 	284 	305
f 284 	286 	305
f 286 	288 	305
f 288 	290 	305
f 290 	292 	305
f 292 	294 	305
f 294 	296 	305
f 296 	298 	305
f 298 	300 	305
f 300 	302 	305
f 302 	304 	305
f 240 	239 	306
f 243 	240 	306
f 245 	243 	306
f 247 	245 	306
f 249 	247 	306
f 251 	249 	306
f 253 	251 	306
f 255 	253 	306
f 257 	255 	306
f 259 	257 	306
f 261 	259 	306
f 263 	261 	306
f 265 	263 	306
f 267 	265 	306
f 269 	267 	306
f 271 	269 	306
f 273 	271 	306
f 275 	273 	306
f 277 	275 	306
f 279 	277 	306
f 281 	279 	306
f 283 	281 	306
f 285 	283 	306
f 287 	285 	306
f 289 	287 	306
f 291 	289 	306
f 293 	291 	306
f 295 	293 	306
f 297 	295 	306
f 299 	297 	306
f 301 	299 	306
f 303 	301 	306
f 242 	304 	239
f 239 	304 	303
# 130 faces

 #end of obj_11

o obj_12
v 50 		-9 		10.5286
v 50 		31 		10.5286
v 50 		-9 		30.5286
v 50 		31 		30.5286
v 42 		-9 		30.5286
v 42 		31 		30.5286
v 42 		-9 		10.5286
v 42 		31 		10.5286
# 8 vertices

g group_12_2829873

usemtl color_2829873
s 0

f 307 	308 	309
f 308 	310 	309
f 311 	312 	313
f 312 	314 	313
f 311 	313 	309
f 313 	307 	309
f 314 	312 	308
f 312 	310 	308
f 313 	314 	307
f 314 	308 	307
f 309 	310 	311
f 310 	312 	311
# 12 faces

 #end of obj_12

o obj_13
v -14 		-9 		10.5286
v -14 		31 		10.5286
v -14 		-9 		30.5286
v -14 		31 		30.5286
v -22 		-9 		30.5286
v -22 		31 		30.5286
v -22 		-9 		10.5286
v -22 		31 		10.5286
# 8 vertices

g group_13_2829873

usemtl color_2829873
s 0

f 315 	316 	317
f 316 	318 	317
f 319 	320 	321
f 320 	322 	321
f 319 	321 	317
f 321 	315 	317
f 322 	320 	316
f 320 	318 	316
f 321 	322 	315
f 322 	316 	315
f 317 	318 	319
f 318 	320 	319
# 12 faces

 #end of obj_13

o obj_14
v 34 		-9 		10.5286
v 34 		31 		10.5286
v 34 		-9 		30.5286
v 34 		31 		30.5286
v 26 		-9 		30.5286
v 26 		31 		30.5286
v 26 		-9 		10.5286
v 26 		31 		10.5286
# 8 vertices

g group_14_2829873

usemtl color_2829873
s 0

f 323 	324 	325
f 324 	326 	325
f 327 	328 	329
f 328 	330 	329
f 327 	329 	325
f 329 	323 	325
f 330 	328 	324
f 328 	326 	324
f 329 	330 	323
f 330 	324 	323
f 325 	326 	327
f 326 	328 	327
# 12 faces

 #end of obj_14

o obj_15
v -30 		-9 		10.5286
v -30 		31 		10.5286
v -30 		-9 		30.5286
v -30 		31 		30.5286
v -38 		-9 		30.5286
v -38 		31 		30.5286
v -38 		-9 		10.5286
v -38 		31 		10.5286
# 8 vertices

g group_15_2829873

usemtl color_2829873
s 0

f 331 	332 	333
f 332 	334 	333
f 335 	336 	337
f 336 	338 	337
f 335 	337 	333
f 337 	331 	333
f 338 	336 	332
f 336 	334 	332
f 337 	338 	331
f 338 	332 	331
f 333 	334 	335
f 334 	336 	335
# 12 faces

 #end of obj_15

o obj_16
v -4.9261 		-8.3388 		60
v -4.9261 		-8.3388 		55
v -4.9261 		27 		60
v -4.9261 		27 		55
v -50 		27 		60
v -50 		27 		55
v -50 		-8.3388 		60
v -50 		-8.3388 		55
# 8 vertices

g group_16_6383466

usemtl color_6383466
s 0

f 339 	340 	341
f 340 	342 	341
f 343 	344 	345
f 344 	346 	345
f 343 	345 	341
f 345 	339 	341
f 346 	344 	340
f 344 	342 	340
f 345 	346 	339
f 346 	340 	339
f 341 	342 	343
f 342 	344 	343
# 12 faces

 #end of obj_16

o obj_17
v 16 		-23 		0.0328
v 16 		-22 		0.0328
v 16 		-23 		22.0328
v 16 		-22 		22.0328
v -3 		-23 		22.0328
v -3 		-22 		22.0328
v -3 		-23 		0.0328
v -3 		-22 		0.0328
# 8 vertices

g group_17_6306067

usemtl color_6306067
s 0

f 347 	348 	349
f 348 	350 	349
f 351 	352 	353
f 352 	354 	353
f 351 	353 	349
f 353 	347 	349
f 354 	352 	348
f 352 	350 	348
f 353 	354 	347
f 354 	348 	347
f 349 	350 	351
f 350 	352 	351
# 12 faces

 #end of obj_17

o obj_18
v 20.7231 		-10.1376 		64.6121
v 20.7231 		-9 		64.5374
v 20.7231 		-9 		73.2687
v 20.7231 		-11.2557 		64.835
v 20.7231 		-12.3352 		65.2021
v 20.7231 		-13.3577 		65.7072
v 20.7231 		-14.3056 		66.3417
v 20.7231 		-15.1627 		67.0948
v 20.7231 		-15.9144 		67.9535
v 20.7231 		-16.5478 		68.9031
v 20.7231 		-17.052 		69.9274
v 20.7231 		-17.4184 		71.0089
v 20.7231 		-17.6408 		72.1291
v 20.7231 		-17.7154 		73.2687
v 20.7231 		-17.6408 		74.4084
v 20.7231 		-17.4184 		75.5285
v 20.7231 		-17.052 		76.61
v 20.7231 		-16.5478 		77.6344
v 20.7231 		-15.9144 		78.584
v 20.7231 		-15.1627 		79.4427
v 20.7231 		-14.3056 		80.1957
v 20.7231 		-13.3577 		80.8302
v 20.7231 		-12.3352 		81.3354
v 20.7231 		-11.2557 		81.7025
v 20.7231 		-10.1376 		81.9253
v 20.7231 		-9 		82
v 20.7231 		-7.8624 		81.9253
v 20.7231 		-6.7443 		81.7025
v 20.7231 		-5.6648 		81.3354
v 20.7231 		-4.6423 		80.8302
v 20.7231 		-3.6944 		80.1957
v 20.7231 		-2.8373 		79.4427
v 20.7231 		-2.0856 		78.584
v 20.7231 		-1.4522 		77.6344
v 20.7231 		-0.948 		76.61
v 20.7231 		-0.5816 		75.5285
v 20.7231 		-0.3592 		74.4084
v 20.7231 		-0.2846 		73.2687
v 20.7231 		-0.3592 		72.1291
v 20.7231 		-0.5816 		71.0089
v 20.7231 		-0.948 		69.9274
v 20.7231 		-1.4522 		68.9031
v 20.7231 		-2.0856 		67.9535
v 20.7231 		-2.8373 		67.0948
v 20.7231 		-3.6944 		66.3417
v 20.7231 		-4.6423 		65.7072
v 20.7231 		-5.6648 		65.2021
v 20.7231 		-6.7443 		64.835
v 20.7231 		-7.8624 		64.6121
v -7.9385 		-9 		64.5374
v -7.9385 		-10.1376 		64.6121
v -7.9385 		-9 		73.2687
v -7.9385 		-11.2557 		64.835
v -7.9385 		-12.3352 		65.2021
v -7.9385 		-13.3577 		65.7072
v -7.9385 		-14.3056 		66.3417
v -7.9385 		-15.1627 		67.0948
v -7.9385 		-15.9144 		67.9535
v -7.9385 		-16.5478 		68.9031
v -7.9385 		-17.052 		69.9274
v -7.9385 		-17.4184 		71.0089
v -7.9385 		-17.6408 		72.1291
v -7.9385 		-17.7154 		73.2687
v -7.9385 		-17.6408 		74.4084
v -7.9385 		-17.4184 		75.5285
v -7.9385 		-17.052 		76.61
v -7.9385 		-16.5478 		77.6344
v -7.9385 		-15.9144 		78.584
v -7.9385 		-15.1627 		79.4427
v -7.9385 		-14.3056 		80.1957
v -7.9385 		-13.3577 		80.8302
v -7.9385 		-12.3352 		81.3354
v -7.9385 		-11.2557 		81.7025
v -7.9385 		-10.1376 		81.9253
v -7.9385 		-9 		82
v -7.9385 		-7.8624 		81.9253
v -7.9385 		-6.7443 		81.7025
v -7.9385 		-5.6648 		81.3354
v -7.9385 		-4.6423 		80.8302
v -7.9385 		-3.6944 		80.1957
v -7.9385 		-2.8373 		79.4427
v -7.9385 		-2.0856 		78.584
v -7.9385 		-1.4522 		77.6344
v -7.9385 		-0.948 		76.61
v -7.9385 		-0.5816 		75.5285
v -7.9385 		-0.3592 		74.4084
v -7.9385 		-0.2846 		73.2687
v -7.9385 		-0.3592 		72.1291
v -7.9385 		-0.5816 		71.0089
v -7.9385 		-0.948 		69.9274
v -7.9385 		-1.4522 		68.9031
v -7.9385 		-2.0856 		67.9535
v -7.9385 		-2.8373 		67.0948
v -7.9385 		-3.6944 		66.3417
v -7.9385 		-4.6423 		65.7072
v -7.9385 		-5.6648 		65.2021
v -7.9385 		-6.7443 		64.835
v -7.9385 		-7.8624 		64.6121
# 98 vertices

g group_18_16448250

usemtl color_16448250
s 0

f 355 	356 	357
f 358 	355 	357
f 359 	358 	357
f 360 	359 	357
f 361 	360 	357
f 362 	361 	357
f 363 	362 	357
f 364 	363 	357
f 365 	364 	357
f 366 	365 	357
f 367 	366 	357
f 368 	367 	357
f 369 	368 	357
f 370 	369 	357
f 371 	370 	357
f 372 	371 	357
f 373 	372 	357
f 374 	373 	357
f 375 	374 	357
f 376 	375 	357
f 377 	376 	357
f 378 	377 	357
f 379 	378 	357
f 380 	379 	357
f 381 	380 	357
f 382 	381 	357
f 383 	382 	357
f 384 	383 	357
f 385 	384 	357
f 386 	385 	357
f 387 	386 	357
f 388 	387 	357
f 389 	388 	357
f 390 	389 	357
f 391 	390 	357
f 392 	391 	357
f 393 	392 	357
f 394 	393 	357
f 395 	394 	357
f 396 	395 	357
f 397 	396 	357
f 398 	397 	357
f 399 	398 	357
f 400 	399 	357
f 401 	400 	357
f 402 	401 	357
f 403 	402 	357
f 356 	403 	357
f 404 	405 	406
f 405 	407 	406
f 407 	408 	406
f 408 	409 	406
f 409 	410 	406
f 410 	411 	406
f 411 	412 	406
f 412 	413 	406
f 413 	414 	406
f 414 	415 	406
f 415 	416 	406
f 416 	417 	406
f 417 	418 	406
f 418 	419 	406
f 419 	420 	406
f 420 	421 	406
f 421 	422 	406
f 422 	423 	406
f 423 	424 	406
f 424 	425 	406
f 425 	426 	406
f 426 	427 	406
f 427 	428 	406
f 428 	429 	406
f 429 	430 	406
f 430 	431 	406
f 431 	432 	406
f 432 	433 	406
f 433 	434 	406
f 434 	435 	406
f 435 	436 	406
f 436 	437 	406
f 437 	438 	406
f 438 	439 	406
f 439 	440 	406
f 440 	441 	406
f 441 	442 	406
f 442 	443 	406
f 443 	444 	406
f 444 	445 	406
f 445 	446 	406
f 446 	447 	406
f 447 	448 	406
f 448 	449 	406
f 449 	450 	406
f 450 	451 	406
f 451 	452 	406
f 452 	404 	406
f 356 	355 	355
f 355 	358 	358
f 358 	359 	359
f 359 	360 	360
f 360 	361 	361
f 361 	362 	362
f 362 	363 	363
f 363 	364 	364
f 364 	365 	365
f 365 	366 	366
f 366 	367 	367
f 367 	368 	368
f 368 	369 	369
f 369 	370 	370
f 370 	371 	371
f 371 	372 	372
f 372 	373 	373
f 373 	374 	374
f 374 	375 	375
f 375 	376 	376
f 376 	377 	377
f 377 	378 	378
f 378 	379 	379
f 379 	380 	380
f 380 	381 	381
f 381 	382 	382
f 382 	383 	383
f 383 	384 	384
f 384 	385 	385
f 385 	386 	386
f 386 	387 	387
f 387 	388 	388
f 388 	389 	389
f 389 	390 	390
f 390 	391 	391
f 391 	392 	392
f 392 	393 	393
f 393 	394 	394
f 394 	395 	395
f 395 	396 	396
f 396 	397 	397
f 397 	398 	398
f 398 	399 	399
f 399 	400 	400
f 400 	401 	401
f 401 	402 	402
f 402 	403 	403
f 403 	356 	356
f 356 	355 	405
f 356 	405 	404
f 355 	358 	407
f 355 	407 	405
f 358 	359 	408
f 358 	408 	407
f 359 	360 	409
f 359 	409 	408
f 360 	361 	410
f 360 	410 	409
f 361 	362 	411
f 361 	411 	410
f 362 	363 	412
f 362 	412 	411
f 363 	364 	413
f 363 	413 	412
f 364 	365 	414
f 364 	414 	413
f 365 	366 	415
f 365 	415 	414
f 366 	367 	416
f 366 	416 	415
f 367 	368 	417
f 367 	417 	416
f 368 	369 	418
f 368 	418 	417
f 369 	370 	419
f 369 	419 	418
f 370 	371 	420
f 370 	420 	419
f 371 	372 	421
f 371 	421 	420
f 372 	373 	422
f 372 	422 	421
f 373 	374 	423
f 373 	423 	422
f 374 	375 	424
f 374 	424 	423
f 375 	376 	425
f 375 	425 	424
f 376 	377 	426
f 376 	426 	425
f 377 	378 	427
f 377 	427 	426
f 378 	379 	428
f 378 	428 	427
f 379 	380 	429
f 379 	429 	428
f 380 	381 	430
f 380 	430 	429
f 381 	382 	431
f 381 	431 	430
f 382 	383 	432
f 382 	432 	431
f 383 	384 	433
f 383 	433 	432
f 384 	385 	434
f 384 	434 	433
f 385 	386 	435
f 385 	435 	434
f 386 	387 	436
f 386 	436 	435
f 387 	388 	437
f 387 	437 	436
f 388 	389 	438
f 388 	438 	437
f 389 	390 	439
f 389 	439 	438
f 390 	391 	440
f 390 	440 	439
f 391 	392 	441
f 391 	441 	440
f 392 	393 	442
f 392 	442 	441
f 393 	394 	443
f 393 	443 	442
f 394 	395 	444
f 394 	444 	443
f 395 	396 	445
f 395 	445 	444
f 396 	397 	446
f 396 	446 	445
f 397 	398 	447
f 397 	447 	446
f 398 	399 	448
f 398 	448 	447
f 399 	400 	449
f 399 	449 	448
f 400 	401 	450
f 400 	450 	449
f 401 	402 	451
f 401 	451 	450
f 402 	403 	452
f 402 	452 	451
f 403 	356 	404
f 403 	404 	452
f 404 	405 	405
f 405 	407 	407
f 407 	408 	408
f 408 	409 	409
f 409 	410 	410
f 410 	411 	411
f 411 	412 	412
f 412 	413 	413
f 413 	414 	414
f 414 	415 	415
f 415 	416 	416
f 416 	417 	417
f 417 	418 	418
f 418 	419 	419
f 419 	420 	420
f 420 	421 	421
f 421 	422 	422
f 422 	423 	423
f 423 	424 	424
f 424 	425 	425
f 425 	426 	426
f 426 	427 	427
f 427 	428 	428
f 428 	429 	429
f 429 	430 	430
f 430 	431 	431
f 431 	432 	432
f 432 	433 	433
f 433 	434 	434
f 434 	435 	435
f 435 	436 	436
f 436 	437 	437
f 437 	438 	438
f 438 	439 	439
f 439 	440 	440
f 440 	441 	441
f 441 	442 	442
f 442 	443 	443
f 443 	444 	444
f 444 	445 	445
f 445 	446 	446
f 446 	447 	447
f 447 	448 	448
f 448 	449 	449
f 449 	450 	450
f 450 	451 	451
f 451 	452 	452
f 452 	404 	404
# 288 faces

 #end of obj_18

o obj_19
v -7.9385 		-4.0193 		73.3355
v -9 		-4.0193 		73.3355
v -7.9385 		-4.0365 		73.6753
v -9 		-4.0365 		73.6753
v -7.9385 		-10.5595 		74.0429
v -9 		-10.5595 		74.0429
v -7.9385 		-10.5423 		73.7031
v -9 		-10.5423 		73.7031
# 8 vertices

g group_19_2829873

usemtl color_2829873
s 0

f 453 	454 	455
f 454 	456 	455
f 457 	458 	459
f 458 	460 	459
f 457 	459 	455
f 459 	453 	455
f 460 	458 	454
f 458 	456 	454
f 459 	460 	453
f 460 	454 	453
f 455 	456 	457
f 456 	458 	457
# 12 faces

 #end of obj_19

o obj_20
v -7.9385 		-8.7545 		72
v -9 		-8.7545 		72
v -7.9385 		-8.434 		72.1328
v -9 		-8.434 		72.1328
v -7.9385 		-11.6525 		79.9031
v -9 		-11.6525 		79.9031
v -7.9385 		-11.9731 		79.7703
v -9 		-11.9731 		79.7703
# 8 vertices

g group_20_2829873

usemtl color_2829873
s 0

f 461 	462 	463
f 462 	464 	463
f 465 	466 	467
f 466 	468 	467
f 465 	467 	463
f 467 	461 	463
f 468 	466 	462
f 466 	464 	462
f 467 	468 	461
f 468 	462 	461
f 463 	464 	465
f 464 	466 	465
# 12 faces

 #end of obj_20

o obj_21
v 21.7846 		-3.9962 		73.3355
v 20.7231 		-3.9962 		73.3355
v 21.7846 		-4.0134 		73.6753
v 20.7231 		-4.0134 		73.6753
v 21.7846 		-10.5364 		74.0429
v 20.7231 		-10.5364 		74.0429
v 21.7846 		-10.5192 		73.7031
v 20.7231 		-10.5192 		73.7031
# 8 vertices

g group_21_2829873

usemtl color_2829873
s 0

f 469 	470 	471
f 470 	472 	471
f 473 	474 	475
f 474 	476 	475
f 473 	475 	471
f 475 	469 	471
f 476 	474 	470
f 474 	472 	470
f 475 	476 	469
f 476 	470 	469
f 471 	472 	473
f 472 	474 	473
# 12 faces

 #end of obj_21

o obj_22
v 21.7846 		-8.7314 		72
v 20.7231 		-8.7314 		72
v 21.7846 		-8.4109 		72.1328
v 20.7231 		-8.4109 		72.1328
v 21.7846 		-11.6294 		79.9031
v 20.7231 		-11.6294 		79.9031
v 21.7846 		-11.9499 		79.7703
v 20.7231 		-11.9499 		79.7703
# 8 vertices

g group_22_2829873

usemtl color_2829873
s 0

f 477 	478 	479
f 478 	480 	479
f 481 	482 	483
f 482 	484 	483
f 481 	483 	479
f 483 	477 	479
f 484 	482 	478
f 482 	480 	478
f 483 	484 	477
f 484 	478 	477
f 479 	480 	481
f 480 	482 	481
# 12 faces

 #end of obj_22

o obj_23
v -10 		-5.3388 		60
v -10 		-5.3388 		55
v -10 		30 		60
v -10 		30 		55
v -50 		30 		60
v -50 		30 		55
v -50 		-5.3388 		60
v -50 		-5.3388 		55
# 8 vertices

g group_23_6383466

usemtl color_6383466
s 0

f 485 	486 	487
f 486 	488 	487
f 489 	490 	491
f 490 	492 	491
f 489 	491 	487
f 491 	485 	487
f 492 	490 	486
f 490 	488 	486
f 491 	492 	485
f 492 	486 	485
f 487 	488 	489
f 488 	490 	489
# 12 faces

 #end of obj_23

o obj_24
v -51 		-3 		10.5286
v 57 		-3 		10.5286
v -51 		-3 		30.5286
v 57 		-3 		30.5286
v -51 		5 		30.5286
v 57 		5 		30.5286
v -51 		5 		10.5286
v 57 		5 		10.5286
# 8 vertices

g group_24_2829873

usemtl color_2829873
s 0

f 493 	494 	495
f 494 	496 	495
f 497 	498 	499
f 498 	500 	499
f 497 	499 	495
f 499 	493 	495
f 500 	498 	494
f 498 	496 	494
f 499 	500 	493
f 500 	494 	493
f 495 	496 	497
f 496 	498 	497
# 12 faces

 #end of obj_24

o obj_25
v -51 		14 		10.5286
v 57 		14 		10.5286
v -51 		14 		30.5286
v 57 		14 		30.5286
v -51 		22 		30.5286
v 57 		22 		30.5286
v -51 		22 		10.5286
v 57 		22 		10.5286
# 8 vertices

g group_25_2829873

usemtl color_2829873
s 0

f 501 	502 	503
f 502 	504 	503
f 505 	506 	507
f 506 	508 	507
f 505 	507 	503
f 507 	501 	503
f 508 	506 	502
f 506 	504 	502
f 507 	508 	501
f 508 	502 	501
f 503 	504 	505
f 504 	506 	505
# 12 faces

 #end of obj_25

o obj_26
v -1.7285 		33 		0.9696
v -1.7285 		30 		0.9696
v -1.7285 		33 		54.9696
v -1.7285 		30 		54.9696
v 18.2715 		33 		54.9696
v 18.2715 		30 		54.9696
v 18.2715 		33 		0.9696
v 18.2715 		30 		0.9696
# 8 vertices

g group_26_11107152

usemtl color_11107152
s 0

f 509 	510 	511
f 510 	512 	511
f 513 	514 	515
f 514 	516 	515
f 513 	515 	511
f 515 	509 	511
f 516 	514 	510
f 514 	512 	510
f 515 	516 	509
f 516 	510 	509
f 511 	512 	513
f 512 	514 	513
# 12 faces

 #end of obj_26

