# Object Export From Tinkercad Server 2015

mtllib obj.mtl

o obj_0
v 62.3206 		-29 		0
v 62.3206 		35 		0
v -79.6794 		-29 		0
v -79.6794 		35 		0
v 62.3206 		35 		64
v 62.3206 		-29 		64
v -79.6794 		35 		64
v -79.6794 		-29 		64
# 8 vertices

g group_0_10988977

usemtl color_10988977
s 0

f 1 	3 	2
f 3 	4 	2
f 5 	7 	6
f 7 	8 	6
f 5 	6 	2
f 6 	1 	2
f 8 	7 	3
f 7 	4 	3
f 6 	8 	1
f 8 	3 	1
f 2 	4 	5
f 4 	7 	5
# 12 faces

 #end of obj_0

o obj_1
v -54.6794 		-30 		36
v -54.6794 		-28.99 		36
v -74.6794 		-30 		36
v -74.6794 		-28.99 		36
v -54.6794 		-28.99 		56
v -54.6794 		-30 		56
v -74.6794 		-28.99 		56
v -74.6794 		-30 		56
# 8 vertices

g group_1_16766010

usemtl color_16766010
s 0

f 9 	11 	10
f 11 	12 	10
f 13 	15 	14
f 15 	16 	14
f 13 	14 	10
f 14 	9 	10
f 16 	15 	11
f 15 	12 	11
f 14 	16 	9
f 16 	11 	9
f 10 	12 	13
f 12 	15 	13
# 12 faces

 #end of obj_1

o obj_2
v -54.6794 		-30 		6
v -54.6794 		-28.99 		6
v -74.6794 		-30 		6
v -74.6794 		-28.99 		6
v -54.6794 		-28.99 		26
v -54.6794 		-30 		26
v -74.6794 		-28.99 		26
v -74.6794 		-30 		26
# 8 vertices

g group_2_16766010

usemtl color_16766010
s 0

f 17 	19 	18
f 19 	20 	18
f 21 	23 	22
f 23 	24 	22
f 21 	22 	18
f 22 	17 	18
f 24 	23 	19
f 23 	20 	19
f 22 	24 	17
f 24 	19 	17
f 18 	20 	21
f 20 	23 	21
# 12 faces

 #end of obj_2

o obj_3
v -21.6794 		-30 		6
v -21.6794 		-28.99 		6
v -41.6794 		-30 		6
v -41.6794 		-28.99 		6
v -21.6794 		-28.99 		26
v -21.6794 		-30 		26
v -41.6794 		-28.99 		26
v -41.6794 		-30 		26
# 8 vertices

g group_3_16766010

usemtl color_16766010
s 0

f 25 	27 	26
f 27 	28 	26
f 29 	31 	30
f 31 	32 	30
f 29 	30 	26
f 30 	25 	26
f 32 	31 	27
f 31 	28 	27
f 30 	32 	25
f 32 	27 	25
f 26 	28 	29
f 28 	31 	29
# 12 faces

 #end of obj_3

o obj_4
v -21.6794 		-30 		36
v -21.6794 		-28.99 		36
v -41.6794 		-30 		36
v -41.6794 		-28.99 		36
v -21.6794 		-28.99 		56
v -21.6794 		-30 		56
v -41.6794 		-28.99 		56
v -41.6794 		-30 		56
# 8 vertices

g group_4_4276023

usemtl color_4276023
s 0

f 33 	35 	34
f 35 	36 	34
f 37 	39 	38
f 39 	40 	38
f 37 	38 	34
f 38 	33 	34
f 40 	39 	35
f 39 	36 	35
f 38 	40 	33
f 40 	35 	33
f 34 	36 	37
f 36 	39 	37
# 12 faces

 #end of obj_4

o obj_5
v 10.3206 		-30 		36
v 10.3206 		-28.99 		36
v -9.6794 		-30 		36
v -9.6794 		-28.99 		36
v 10.3206 		-28.99 		56
v 10.3206 		-30 		56
v -9.6794 		-28.99 		56
v -9.6794 		-30 		56
# 8 vertices

g group_5_4276023

usemtl color_4276023
s 0

f 41 	43 	42
f 43 	44 	42
f 45 	47 	46
f 47 	48 	46
f 45 	46 	42
f 46 	41 	42
f 48 	47 	43
f 47 	44 	43
f 46 	48 	41
f 48 	43 	41
f 42 	44 	45
f 44 	47 	45
# 12 faces

 #end of obj_5

o obj_6
v 10.3206 		-30 		6
v 10.3206 		-28.99 		6
v -9.6794 		-30 		6
v -9.6794 		-28.99 		6
v 10.3206 		-28.99 		26
v 10.3206 		-30 		26
v -9.6794 		-28.99 		26
v -9.6794 		-30 		26
# 8 vertices

g group_6_4276023

usemtl color_4276023
s 0

f 49 	51 	50
f 51 	52 	50
f 53 	55 	54
f 55 	56 	54
f 53 	54 	50
f 54 	49 	50
f 56 	55 	51
f 55 	52 	51
f 54 	56 	49
f 56 	51 	49
f 50 	52 	53
f 52 	55 	53
# 12 faces

 #end of obj_6

o obj_7
v 63 		0 		6
v 61.99 		0 		6
v 63 		-20 		6
v 61.99 		-20 		6
v 61.99 		0 		26
v 63 		0 		26
v 61.99 		-20 		26
v 63 		-20 		26
# 8 vertices

g group_7_16766010

usemtl color_16766010
s 0

f 57 	59 	58
f 59 	60 	58
f 61 	63 	62
f 63 	64 	62
f 61 	62 	58
f 62 	57 	58
f 64 	63 	59
f 63 	60 	59
f 62 	64 	57
f 64 	59 	57
f 58 	60 	61
f 60 	63 	61
# 12 faces

 #end of obj_7

o obj_8
v 41.3206 		-30 		36
v 41.3206 		-28.99 		36
v 21.3206 		-30 		36
v 21.3206 		-28.99 		36
v 41.3206 		-28.99 		56
v 41.3206 		-30 		56
v 21.3206 		-28.99 		56
v 21.3206 		-30 		56
# 8 vertices

g group_8_4276023

usemtl color_4276023
s 0

f 65 	67 	66
f 67 	68 	66
f 69 	71 	70
f 71 	72 	70
f 69 	70 	66
f 70 	65 	66
f 72 	71 	67
f 71 	68 	67
f 70 	72 	65
f 72 	67 	65
f 66 	68 	69
f 68 	71 	69
# 12 faces

 #end of obj_8

o obj_9
v 41.3206 		35 		36
v 41.3206 		36.01 		36
v 21.3206 		35 		36
v 21.3206 		36.01 		36
v 41.3206 		36.01 		56
v 41.3206 		35 		56
v 21.3206 		36.01 		56
v 21.3206 		35 		56
# 8 vertices

g group_9_16766010

usemtl color_16766010
s 0

f 73 	75 	74
f 75 	76 	74
f 77 	79 	78
f 79 	80 	78
f 77 	78 	74
f 78 	73 	74
f 80 	79 	75
f 79 	76 	75
f 78 	80 	73
f 80 	75 	73
f 74 	76 	77
f 76 	79 	77
# 12 faces

 #end of obj_9

o obj_10
v 41.3206 		34.505 		6
v 41.3206 		35.515 		6
v 21.3206 		34.505 		6
v 21.3206 		35.515 		6
v 41.3206 		35.515 		26
v 41.3206 		34.505 		26
v 21.3206 		35.515 		26
v 21.3206 		34.505 		26
# 8 vertices

g group_10_4276023

usemtl color_4276023
s 0

f 81 	83 	82
f 83 	84 	82
f 85 	87 	86
f 87 	88 	86
f 85 	86 	82
f 86 	81 	82
f 88 	87 	83
f 87 	84 	83
f 86 	88 	81
f 88 	83 	81
f 82 	84 	85
f 84 	87 	85
# 12 faces

 #end of obj_10

o obj_11
v 10.3206 		34.505 		6
v 10.3206 		35.515 		6
v -9.6794 		34.505 		6
v -9.6794 		35.515 		6
v 10.3206 		35.515 		26
v 10.3206 		34.505 		26
v -9.6794 		35.515 		26
v -9.6794 		34.505 		26
# 8 vertices

g group_11_4276023

usemtl color_4276023
s 0

f 89 	91 	90
f 91 	92 	90
f 93 	95 	94
f 95 	96 	94
f 93 	94 	90
f 94 	89 	90
f 96 	95 	91
f 95 	92 	91
f 94 	96 	89
f 96 	91 	89
f 90 	92 	93
f 92 	95 	93
# 12 faces

 #end of obj_11

o obj_12
v 10.3206 		34.505 		36
v 10.3206 		35.515 		36
v -9.6794 		34.505 		36
v -9.6794 		35.515 		36
v 10.3206 		35.515 		56
v 10.3206 		34.505 		56
v -9.6794 		35.515 		56
v -9.6794 		34.505 		56
# 8 vertices

g group_12_16766010

usemtl color_16766010
s 0

f 97 	99 	98
f 99 	100 	98
f 101 	103 	102
f 103 	104 	102
f 101 	102 	98
f 102 	97 	98
f 104 	103 	99
f 103 	100 	99
f 102 	104 	97
f 104 	99 	97
f 98 	100 	101
f 100 	103 	101
# 12 faces

 #end of obj_12

o obj_13
v -21.6794 		34.505 		36
v -21.6794 		35.515 		36
v -41.6794 		34.505 		36
v -41.6794 		35.515 		36
v -21.6794 		35.515 		56
v -21.6794 		34.505 		56
v -41.6794 		35.515 		56
v -41.6794 		34.505 		56
# 8 vertices

g group_13_4276023

usemtl color_4276023
s 0

f 105 	107 	106
f 107 	108 	106
f 109 	111 	110
f 111 	112 	110
f 109 	110 	106
f 110 	105 	106
f 112 	111 	107
f 111 	108 	107
f 110 	112 	105
f 112 	107 	105
f 106 	108 	109
f 108 	111 	109
# 12 faces

 #end of obj_13

o obj_14
v -21.6794 		34.505 		6
v -21.6794 		35.515 		6
v -41.6794 		34.505 		6
v -41.6794 		35.515 		6
v -21.6794 		35.515 		26
v -21.6794 		34.505 		26
v -41.6794 		35.515 		26
v -41.6794 		34.505 		26
# 8 vertices

g group_14_16766010

usemtl color_16766010
s 0

f 113 	115 	114
f 115 	116 	114
f 117 	119 	118
f 119 	120 	118
f 117 	118 	114
f 118 	113 	114
f 120 	119 	115
f 119 	116 	115
f 118 	120 	113
f 120 	115 	113
f 114 	116 	117
f 116 	119 	117
# 12 faces

 #end of obj_14

o obj_15
v -54.6794 		34.505 		36
v -54.6794 		35.515 		36
v -74.6794 		34.505 		36
v -74.6794 		35.515 		36
v -54.6794 		35.515 		56
v -54.6794 		34.505 		56
v -74.6794 		35.515 		56
v -74.6794 		34.505 		56
# 8 vertices

g group_15_4276023

usemtl color_4276023
s 0

f 121 	123 	122
f 123 	124 	122
f 125 	127 	126
f 127 	128 	126
f 125 	126 	122
f 126 	121 	122
f 128 	127 	123
f 127 	124 	123
f 126 	128 	121
f 128 	123 	121
f 122 	124 	125
f 124 	127 	125
# 12 faces

 #end of obj_15

o obj_16
v -54.6794 		34.505 		6
v -54.6794 		35.515 		6
v -74.6794 		34.505 		6
v -74.6794 		35.515 		6
v -54.6794 		35.515 		26
v -54.6794 		34.505 		26
v -74.6794 		35.515 		26
v -74.6794 		34.505 		26
# 8 vertices

g group_16_16766010

usemtl color_16766010
s 0

f 129 	131 	130
f 131 	132 	130
f 133 	135 	134
f 135 	136 	134
f 133 	134 	130
f 134 	129 	130
f 136 	135 	131
f 135 	132 	131
f 134 	136 	129
f 136 	131 	129
f 130 	132 	133
f 132 	135 	133
# 12 faces

 #end of obj_16

o obj_17
v 10.3206 		11 		0.0098
v 10.3206 		11.0176 		-1
v -9.6794 		11 		0.0098
v -9.6794 		11.0176 		-1
v 10.3206 		31.0146 		-0.651
v 10.3206 		30.997 		0.3589
v -9.6794 		31.0146 		-0.651
v -9.6794 		30.997 		0.3589
# 8 vertices

g group_17_16766010

usemtl color_16766010
s 0

f 137 	139 	138
f 139 	140 	138
f 141 	143 	142
f 143 	144 	142
f 141 	142 	138
f 142 	137 	138
f 144 	143 	139
f 143 	140 	139
f 142 	144 	137
f 144 	139 	137
f 138 	140 	141
f 140 	143 	141
# 12 faces

 #end of obj_17

o obj_18
v 10.3206 		-18.9927 		0.0098
v 10.3206 		-18.9751 		-1
v -9.6794 		-18.9927 		0.0098
v -9.6794 		-18.9751 		-1
v 10.3206 		1.0219 		-0.651
v 10.3206 		1.0042 		0.3589
v -9.6794 		1.0219 		-0.651
v -9.6794 		1.0042 		0.3589
# 8 vertices

g group_18_4276023

usemtl color_4276023
s 0

f 145 	147 	146
f 147 	148 	146
f 149 	151 	150
f 151 	152 	150
f 149 	150 	146
f 150 	145 	146
f 152 	151 	147
f 151 	148 	147
f 150 	152 	145
f 152 	147 	145
f 146 	148 	149
f 148 	151 	149
# 12 faces

 #end of obj_18

o obj_19
v 40.3206 		-18.9854 		0.0098
v 40.3206 		-18.9678 		-1
v 20.3206 		-18.9854 		0.0098
v 20.3206 		-18.9678 		-1
v 40.3206 		1.0292 		-0.651
v 40.3206 		1.0115 		0.3589
v 20.3206 		1.0292 		-0.651
v 20.3206 		1.0115 		0.3589
# 8 vertices

g group_19_4276023

usemtl color_4276023
s 0

f 153 	155 	154
f 155 	156 	154
f 157 	159 	158
f 159 	160 	158
f 157 	158 	154
f 158 	153 	154
f 160 	159 	155
f 159 	156 	155
f 158 	160 	153
f 160 	155 	153
f 154 	156 	157
f 156 	159 	157
# 12 faces

 #end of obj_19

o obj_20
v 40.3206 		11.0219 		0.0098
v 40.3206 		11.0395 		-1
v 20.3206 		11.0219 		0.0098
v 20.3206 		11.0395 		-1
v 40.3206 		31.0365 		-0.651
v 40.3206 		31.0188 		0.3589
v 20.3206 		31.0365 		-0.651
v 20.3206 		31.0188 		0.3589
# 8 vertices

g group_20_4276023

usemtl color_4276023
s 0

f 161 	163 	162
f 163 	164 	162
f 165 	167 	166
f 167 	168 	166
f 165 	166 	162
f 166 	161 	162
f 168 	167 	163
f 167 	164 	163
f 166 	168 	161
f 168 	163 	161
f 162 	164 	165
f 164 	167 	165
# 12 faces

 #end of obj_20

o obj_21
v -22.6794 		11.0292 		0.0098
v -22.6794 		11.0468 		-1
v -42.6794 		11.0292 		0.0098
v -42.6794 		11.0468 		-1
v -22.6794 		31.0437 		-0.651
v -22.6794 		31.0261 		0.3589
v -42.6794 		31.0437 		-0.651
v -42.6794 		31.0261 		0.3589
# 8 vertices

g group_21_4276023

usemtl color_4276023
s 0

f 169 	171 	170
f 171 	172 	170
f 173 	175 	174
f 175 	176 	174
f 173 	174 	170
f 174 	169 	170
f 176 	175 	171
f 175 	172 	171
f 174 	176 	169
f 176 	171 	169
f 170 	172 	173
f 172 	175 	173
# 12 faces

 #end of obj_21

o obj_22
v -22.6794 		-18.9635 		0.0098
v -22.6794 		-18.9459 		-1
v -42.6794 		-18.9635 		0.0098
v -42.6794 		-18.9459 		-1
v -22.6794 		1.051 		-0.651
v -22.6794 		1.0334 		0.3589
v -42.6794 		1.051 		-0.651
v -42.6794 		1.0334 		0.3589
# 8 vertices

g group_22_16766010

usemtl color_16766010
s 0

f 177 	179 	178
f 179 	180 	178
f 181 	183 	182
f 183 	184 	182
f 181 	182 	178
f 182 	177 	178
f 184 	183 	179
f 183 	180 	179
f 182 	184 	177
f 184 	179 	177
f 178 	180 	181
f 180 	183 	181
# 12 faces

 #end of obj_22

o obj_23
v -53.6794 		-18.9563 		0.0098
v -53.6794 		-18.9386 		-1
v -73.6794 		-18.9563 		0.0098
v -73.6794 		-18.9386 		-1
v -53.6794 		1.0583 		-0.651
v -53.6794 		1.0407 		0.3589
v -73.6794 		1.0583 		-0.651
v -73.6794 		1.0407 		0.3589
# 8 vertices

g group_23_16766010

usemtl color_16766010
s 0

f 185 	187 	186
f 187 	188 	186
f 189 	191 	190
f 191 	192 	190
f 189 	190 	186
f 190 	185 	186
f 192 	191 	187
f 191 	188 	187
f 190 	192 	185
f 192 	187 	185
f 186 	188 	189
f 188 	191 	189
# 12 faces

 #end of obj_23

o obj_24
v -53.6794 		11.051 		0.0098
v -53.6794 		11.0687 		-1
v -73.6794 		11.051 		0.0098
v -73.6794 		11.0687 		-1
v -53.6794 		31.0656 		-0.651
v -53.6794 		31.048 		0.3589
v -73.6794 		31.0656 		-0.651
v -73.6794 		31.048 		0.3589
# 8 vertices

g group_24_4276023

usemtl color_4276023
s 0

f 193 	195 	194
f 195 	196 	194
f 197 	199 	198
f 199 	200 	198
f 197 	198 	194
f 198 	193 	194
f 200 	199 	195
f 199 	196 	195
f 198 	200 	193
f 200 	195 	193
f 194 	196 	197
f 196 	199 	197
# 12 faces

 #end of obj_24

o obj_25
v 63 		0 		36
v 61.99 		0 		36
v 63 		-20 		36
v 61.99 		-20 		36
v 61.99 		0 		56
v 63 		0 		56
v 61.99 		-20 		56
v 63 		-20 		56
# 8 vertices

g group_25_4276023

usemtl color_4276023
s 0

f 201 	203 	202
f 203 	204 	202
f 205 	207 	206
f 207 	208 	206
f 205 	206 	202
f 206 	201 	202
f 208 	207 	203
f 207 	204 	203
f 206 	208 	201
f 208 	203 	201
f 202 	204 	205
f 204 	207 	205
# 12 faces

 #end of obj_25

o obj_26
v 41.3206 		-29.495 		6
v 41.3206 		-28.485 		6
v 21.3206 		-29.495 		6
v 21.3206 		-28.485 		6
v 41.3206 		-28.485 		26
v 41.3206 		-29.495 		26
v 21.3206 		-28.485 		26
v 21.3206 		-29.495 		26
# 8 vertices

g group_26_16766010

usemtl color_16766010
s 0

f 209 	211 	210
f 211 	212 	210
f 213 	215 	214
f 215 	216 	214
f 213 	214 	210
f 214 	209 	210
f 216 	215 	211
f 215 	212 	211
f 214 	216 	209
f 216 	211 	209
f 210 	212 	213
f 212 	215 	213
# 12 faces

 #end of obj_26

o obj_27
v 63 		30 		36
v 61.99 		30 		36
v 63 		10 		36
v 61.99 		10 		36
v 61.99 		30 		56
v 63 		30 		56
v 61.99 		10 		56
v 63 		10 		56
# 8 vertices

g group_27_16766010

usemtl color_16766010
s 0

f 217 	219 	218
f 219 	220 	218
f 221 	223 	222
f 223 	224 	222
f 221 	222 	218
f 222 	217 	218
f 224 	223 	219
f 223 	220 	219
f 222 	224 	217
f 224 	219 	217
f 218 	220 	221
f 220 	223 	221
# 12 faces

 #end of obj_27

o obj_28
v 63 		30 		6
v 61.99 		30 		6
v 63 		10 		6
v 61.99 		10 		6
v 61.99 		30 		26
v 63 		30 		26
v 61.99 		10 		26
v 63 		10 		26
# 8 vertices

g group_28_16766010

usemtl color_16766010
s 0

f 225 	227 	226
f 227 	228 	226
f 229 	231 	230
f 231 	232 	230
f 229 	230 	226
f 230 	225 	226
f 232 	231 	227
f 231 	228 	227
f 230 	232 	225
f 232 	227 	225
f 226 	228 	229
f 228 	231 	229
# 12 faces

 #end of obj_28

o obj_29
v -80 		30 		6
v -81.01 		30 		6
v -80 		10 		6
v -81.01 		10 		6
v -81.01 		30 		26
v -80 		30 		26
v -81.01 		10 		26
v -80 		10 		26
# 8 vertices

g group_29_16766010

usemtl color_16766010
s 0

f 233 	235 	234
f 235 	236 	234
f 237 	239 	238
f 239 	240 	238
f 237 	238 	234
f 238 	233 	234
f 240 	239 	235
f 239 	236 	235
f 238 	240 	233
f 240 	235 	233
f 234 	236 	237
f 236 	239 	237
# 12 faces

 #end of obj_29

o obj_30
v -80 		0 		6
v -81.01 		0 		6
v -80 		-20 		6
v -81.01 		-20 		6
v -81.01 		0 		26
v -80 		0 		26
v -81.01 		-20 		26
v -80 		-20 		26
# 8 vertices

g group_30_16766010

usemtl color_16766010
s 0

f 241 	243 	242
f 243 	244 	242
f 245 	247 	246
f 247 	248 	246
f 245 	246 	242
f 246 	241 	242
f 248 	247 	243
f 247 	244 	243
f 246 	248 	241
f 248 	243 	241
f 242 	244 	245
f 244 	247 	245
# 12 faces

 #end of obj_30

o obj_31
v -79.495 		0 		36
v -80.505 		0 		36
v -79.495 		-20 		36
v -80.505 		-20 		36
v -80.505 		0 		56
v -79.495 		0 		56
v -80.505 		-20 		56
v -79.495 		-20 		56
# 8 vertices

g group_31_4276023

usemtl color_4276023
s 0

f 249 	251 	250
f 251 	252 	250
f 253 	255 	254
f 255 	256 	254
f 253 	254 	250
f 254 	249 	250
f 256 	255 	251
f 255 	252 	251
f 254 	256 	249
f 256 	251 	249
f 250 	252 	253
f 252 	255 	253
# 12 faces

 #end of obj_31

o obj_32
v -79.495 		30 		36
v -80.505 		30 		36
v -79.495 		10 		36
v -80.505 		10 		36
v -80.505 		30 		56
v -79.495 		30 		56
v -80.505 		10 		56
v -79.495 		10 		56
# 8 vertices

g group_32_4276023

usemtl color_4276023
s 0

f 257 	259 	258
f 259 	260 	258
f 261 	263 	262
f 263 	264 	262
f 261 	262 	258
f 262 	257 	258
f 264 	263 	259
f 263 	260 	259
f 262 	264 	257
f 264 	259 	257
f 258 	260 	261
f 260 	263 	261
# 12 faces

 #end of obj_32

