{
  "asset": {
    "version": "2.0",
    "generator": "gltfeditor.com"
  },
  "buffers": [
    {
      "uri": "untitled.bin",
      "byteLength": 11428
    }
  ],
  "bufferViews": [
    {
      "buffer": 0,
      "byteOffset": 0,
      "byteLength": 288,
      "byteStride": 12,
      "target": 34962
    },
    {
      "buffer": 0,
      "byteOffset": 288,
      "byteLength": 288,
      "byteStride": 12,
      "target": 34962
    },
    {
      "buffer": 0,
      "byteOffset": 576,
      "byteLength": 192,
      "byteStride": 8,
      "target": 34962
    },
    {
      "buffer": 0,
      "byteOffset": 768,
      "byteLength": 72,
      "target": 34963
    },
    {
      "buffer": 0,
      "byteOffset": 840,
      "byteLength": 288,
      "byteStride": 12,
      "target": 34962
    },
    {
      "buffer": 0,
      "byteOffset": 1128,
      "byteLength": 288,
      "byteStride": 12,
      "target": 34962
    },
    {
      "buffer": 0,
      "byteOffset": 1416,
      "byteLength": 192,
      "byteStride": 8,
      "target": 34962
    },
    {
      "buffer": 0,
      "byteOffset": 1608,
      "byteLength": 72,
      "target": 34963
    },
    {
      "buffer": 0,
      "byteOffset": 1680,
      "byteLength": 288,
      "byteStride": 12,
      "target": 34962
    },
    {
      "buffer": 0,
      "byteOffset": 1968,
      "byteLength": 288,
      "byteStride": 12,
      "target": 34962
    },
    {
      "buffer": 0,
      "byteOffset": 2256,
      "byteLength": 192,
      "byteStride": 8,
      "target": 34962
    },
    {
      "buffer": 0,
      "byteOffset": 2448,
      "byteLength": 72,
      "target": 34963
    },
    {
      "buffer": 0,
      "byteOffset": 2520,
      "byteLength": 288,
      "byteStride": 12,
      "target": 34962
    },
    {
      "buffer": 0,
      "byteOffset": 2808,
      "byteLength": 288,
      "byteStride": 12,
      "target": 34962
    },
    {
      "buffer": 0,
      "byteOffset": 3096,
      "byteLength": 192,
      "byteStride": 8,
      "target": 34962
    },
    {
      "buffer": 0,
      "byteOffset": 3288,
      "byteLength": 72,
      "target": 34963
    },
    {
      "buffer": 0,
      "byteOffset": 3360,
      "byteLength": 288,
      "byteStride": 12,
      "target": 34962
    },
    {
      "buffer": 0,
      "byteOffset": 3648,
      "byteLength": 288,
      "byteStride": 12,
      "target": 34962
    },
    {
      "buffer": 0,
      "byteOffset": 3936,
      "byteLength": 192,
      "byteStride": 8,
      "target": 34962
    },
    {
      "buffer": 0,
      "byteOffset": 4128,
      "byteLength": 72,
      "target": 34963
    },
    {
      "buffer": 0,
      "byteOffset": 4200,
      "byteLength": 288,
      "byteStride": 12,
      "target": 34962
    },
    {
      "buffer": 0,
      "byteOffset": 4488,
      "byteLength": 288,
      "byteStride": 12,
      "target": 34962
    },
    {
      "buffer": 0,
      "byteOffset": 4776,
      "byteLength": 192,
      "byteStride": 8,
      "target": 34962
    },
    {
      "buffer": 0,
      "byteOffset": 4968,
      "byteLength": 72,
      "target": 34963
    },
    {
      "buffer": 0,
      "byteOffset": 5040,
      "byteLength": 288,
      "byteStride": 12,
      "target": 34962
    },
    {
      "buffer": 0,
      "byteOffset": 5328,
      "byteLength": 288,
      "byteStride": 12,
      "target": 34962
    },
    {
      "buffer": 0,
      "byteOffset": 5616,
      "byteLength": 192,
      "byteStride": 8,
      "target": 34962
    },
    {
      "buffer": 0,
      "byteOffset": 5808,
      "byteLength": 72,
      "target": 34963
    },
    {
      "buffer": 0,
      "byteOffset": 5880,
      "byteLength": 288,
      "byteStride": 12,
      "target": 34962
    },
    {
      "buffer": 0,
      "byteOffset": 6168,
      "byteLength": 288,
      "byteStride": 12,
      "target": 34962
    },
    {
      "buffer": 0,
      "byteOffset": 6456,
      "byteLength": 192,
      "byteStride": 8,
      "target": 34962
    },
    {
      "buffer": 0,
      "byteOffset": 6648,
      "byteLength": 72,
      "target": 34963
    },
    {
      "buffer": 0,
      "byteOffset": 6720,
      "byteLength": 288,
      "byteStride": 12,
      "target": 34962
    },
    {
      "buffer": 0,
      "byteOffset": 7008,
      "byteLength": 288,
      "byteStride": 12,
      "target": 34962
    },
    {
      "buffer": 0,
      "byteOffset": 7296,
      "byteLength": 192,
      "byteStride": 8,
      "target": 34962
    },
    {
      "buffer": 0,
      "byteOffset": 7488,
      "byteLength": 72,
      "target": 34963
    },
    {
      "buffer": 0,
      "byteOffset": 7560,
      "byteLength": 288,
      "byteStride": 12,
      "target": 34962
    },
    {
      "buffer": 0,
      "byteOffset": 7848,
      "byteLength": 288,
      "byteStride": 12,
      "target": 34962
    },
    {
      "buffer": 0,
      "byteOffset": 8136,
      "byteLength": 192,
      "byteStride": 8,
      "target": 34962
    },
    {
      "buffer": 0,
      "byteOffset": 8328,
      "byteLength": 72,
      "target": 34963
    },
    {
      "buffer": 0,
      "byteOffset": 8400,
      "byteLength": 288,
      "byteStride": 12,
      "target": 34962
    },
    {
      "buffer": 0,
      "byteOffset": 8688,
      "byteLength": 288,
      "byteStride": 12,
      "target": 34962
    },
    {
      "buffer": 0,
      "byteOffset": 8976,
      "byteLength": 192,
      "byteStride": 8,
      "target": 34962
    },
    {
      "buffer": 0,
      "byteOffset": 9168,
      "byteLength": 72,
      "target": 34963
    },
    {
      "buffer": 0,
      "byteOffset": 9240,
      "byteLength": 20
    },
    {
      "buffer": 0,
      "byteOffset": 9260,
      "byteLength": 60
    },
    {
      "buffer": 0,
      "byteOffset": 9320,
      "byteLength": 20
    },
    {
      "buffer": 0,
      "byteOffset": 9340,
      "byteLength": 80
    },
    {
      "buffer": 0,
      "byteOffset": 9420,
      "byteLength": 20
    },
    {
      "buffer": 0,
      "byteOffset": 9440,
      "byteLength": 80
    },
    {
      "buffer": 0,
      "byteOffset": 9520,
      "byteLength": 20
    },
    {
      "buffer": 0,
      "byteOffset": 9540,
      "byteLength": 80
    },
    {
      "buffer": 0,
      "byteOffset": 9620,
      "byteLength": 20
    },
    {
      "buffer": 0,
      "byteOffset": 9640,
      "byteLength": 80
    },
    {
      "buffer": 0,
      "byteOffset": 9720,
      "byteLength": 20
    },
    {
      "buffer": 0,
      "byteOffset": 9740,
      "byteLength": 80
    },
    {
      "buffer": 0,
      "byteOffset": 9820,
      "byteLength": 20
    },
    {
      "buffer": 0,
      "byteOffset": 9840,
      "byteLength": 80
    },
    {
      "buffer": 0,
      "byteOffset": 9920,
      "byteLength": 4
    },
    {
      "buffer": 0,
      "byteOffset": 9924,
      "byteLength": 12
    },
    {
      "buffer": 0,
      "byteOffset": 9936,
      "byteLength": 12
    },
    {
      "buffer": 0,
      "byteOffset": 9948,
      "byteLength": 36
    },
    {
      "buffer": 0,
      "byteOffset": 9984,
      "byteLength": 12
    },
    {
      "buffer": 0,
      "byteOffset": 9996,
      "byteLength": 48
    },
    {
      "buffer": 0,
      "byteOffset": 10044,
      "byteLength": 12
    },
    {
      "buffer": 0,
      "byteOffset": 10056,
      "byteLength": 48
    },
    {
      "buffer": 0,
      "byteOffset": 10104,
      "byteLength": 12
    },
    {
      "buffer": 0,
      "byteOffset": 10116,
      "byteLength": 48
    },
    {
      "buffer": 0,
      "byteOffset": 10164,
      "byteLength": 12
    },
    {
      "buffer": 0,
      "byteOffset": 10176,
      "byteLength": 36
    },
    {
      "buffer": 0,
      "byteOffset": 10212,
      "byteLength": 12
    },
    {
      "buffer": 0,
      "byteOffset": 10224,
      "byteLength": 48
    },
    {
      "buffer": 0,
      "byteOffset": 10272,
      "byteLength": 12
    },
    {
      "buffer": 0,
      "byteOffset": 10284,
      "byteLength": 48
    },
    {
      "buffer": 0,
      "byteOffset": 10332,
      "byteLength": 12
    },
    {
      "buffer": 0,
      "byteOffset": 10344,
      "byteLength": 48
    },
    {
      "buffer": 0,
      "byteOffset": 10392,
      "byteLength": 12
    },
    {
      "buffer": 0,
      "byteOffset": 10404,
      "byteLength": 48
    },
    {
      "buffer": 0,
      "byteOffset": 10452,
      "byteLength": 12
    },
    {
      "buffer": 0,
      "byteOffset": 10464,
      "byteLength": 48
    },
    {
      "buffer": 0,
      "byteOffset": 10512,
      "byteLength": 12
    },
    {
      "buffer": 0,
      "byteOffset": 10524,
      "byteLength": 48
    },
    {
      "buffer": 0,
      "byteOffset": 10572,
      "byteLength": 16
    },
    {
      "buffer": 0,
      "byteOffset": 10588,
      "byteLength": 64
    },
    {
      "buffer": 0,
      "byteOffset": 10652,
      "byteLength": 52
    },
    {
      "buffer": 0,
      "byteOffset": 10704,
      "byteLength": 156
    },
    {
      "buffer": 0,
      "byteOffset": 10860,
      "byteLength": 4
    },
    {
      "buffer": 0,
      "byteOffset": 10864,
      "byteLength": 16
    },
    {
      "buffer": 0,
      "byteOffset": 10880,
      "byteLength": 4
    },
    {
      "buffer": 0,
      "byteOffset": 10884,
      "byteLength": 16
    },
    {
      "buffer": 0,
      "byteOffset": 10900,
      "byteLength": 4
    },
    {
      "buffer": 0,
      "byteOffset": 10904,
      "byteLength": 16
    },
    {
      "buffer": 0,
      "byteOffset": 10920,
      "byteLength": 4
    },
    {
      "buffer": 0,
      "byteOffset": 10924,
      "byteLength": 16
    },
    {
      "buffer": 0,
      "byteOffset": 10940,
      "byteLength": 4
    },
    {
      "buffer": 0,
      "byteOffset": 10944,
      "byteLength": 16
    },
    {
      "buffer": 0,
      "byteOffset": 10960,
      "byteLength": 4
    },
    {
      "buffer": 0,
      "byteOffset": 10964,
      "byteLength": 16
    },
    {
      "buffer": 0,
      "byteOffset": 10980,
      "byteLength": 12
    },
    {
      "buffer": 0,
      "byteOffset": 10992,
      "byteLength": 48
    },
    {
      "buffer": 0,
      "byteOffset": 11040,
      "byteLength": 12
    },
    {
      "buffer": 0,
      "byteOffset": 11052,
      "byteLength": 36
    },
    {
      "buffer": 0,
      "byteOffset": 11088,
      "byteLength": 12
    },
    {
      "buffer": 0,
      "byteOffset": 11100,
      "byteLength": 48
    },
    {
      "buffer": 0,
      "byteOffset": 11148,
      "byteLength": 12
    },
    {
      "buffer": 0,
      "byteOffset": 11160,
      "byteLength": 48
    },
    {
      "buffer": 0,
      "byteOffset": 11208,
      "byteLength": 12
    },
    {
      "buffer": 0,
      "byteOffset": 11220,
      "byteLength": 48
    },
    {
      "buffer": 0,
      "byteOffset": 11268,
      "byteLength": 12
    },
    {
      "buffer": 0,
      "byteOffset": 11280,
      "byteLength": 48
    },
    {
      "buffer": 0,
      "byteOffset": 11328,
      "byteLength": 8
    },
    {
      "buffer": 0,
      "byteOffset": 11336,
      "byteLength": 32
    },
    {
      "buffer": 0,
      "byteOffset": 11368,
      "byteLength": 12
    },
    {
      "buffer": 0,
      "byteOffset": 11380,
      "byteLength": 48
    }
  ],
  "accessors": [
    {
      "bufferView": 0,
      "byteOffset": 0,
      "componentType": 5126,
      "normalized": false,
      "count": 24,
      "min": [
        -0.1875,
        -0.03125,
        -0.0625
      ],
      "max": [
        0,
        0.03125,
        0.0625
      ],
      "type": "VEC3"
    },
    {
      "bufferView": 1,
      "byteOffset": 0,
      "componentType": 5126,
      "normalized": false,
      "count": 24,
      "min": [
        -1,
        -1,
        -1
      ],
      "max": [
        1,
        1,
        1
      ],
      "type": "VEC3"
    },
    {
      "bufferView": 2,
      "byteOffset": 0,
      "componentType": 5126,
      "normalized": false,
      "count": 24,
      "min": [
        0,
        0
      ],
      "max": [
        0.375,
        0.25
      ],
      "type": "VEC2"
    },
    {
      "bufferView": 3,
      "byteOffset": 0,
      "componentType": 5123,
      "normalized": false,
      "count": 36,
      "min": [
        0
      ],
      "max": [
        23
      ],
      "type": "SCALAR"
    },
    {
      "bufferView": 4,
      "byteOffset": 0,
      "componentType": 5126,
      "normalized": false,
      "count": 24,
      "min": [
        0,
        -0.03125,
        -0.0625
      ],
      "max": [
        0.1875,
        0.03125,
        0.0625
      ],
      "type": "VEC3"
    },
    {
      "bufferView": 5,
      "byteOffset": 0,
      "componentType": 5126,
      "normalized": false,
      "count": 24,
      "min": [
        -1,
        -1,
        -1
      ],
      "max": [
        1,
        1,
        1
      ],
      "type": "VEC3"
    },
    {
      "bufferView": 6,
      "byteOffset": 0,
      "componentType": 5126,
      "normalized": false,
      "count": 24,
      "min": [
        0,
        0
      ],
      "max": [
        0.375,
        0.25
      ],
      "type": "VEC2"
    },
    {
      "bufferView": 7,
      "byteOffset": 0,
      "componentType": 5123,
      "normalized": false,
      "count": 36,
      "min": [
        0
      ],
      "max": [
        23
      ],
      "type": "SCALAR"
    },
    {
      "bufferView": 8,
      "byteOffset": 0,
      "componentType": 5126,
      "normalized": false,
      "count": 24,
      "min": [
        -0.0625,
        -0.0625,
        0.0625
      ],
      "max": [
        0.0625,
        0.0625,
        0.21875
      ],
      "type": "VEC3"
    },
    {
      "bufferView": 9,
      "byteOffset": 0,
      "componentType": 5126,
      "normalized": false,
      "count": 24,
      "min": [
        -1,
        -1,
        -1
      ],
      "max": [
        1,
        1,
        1
      ],
      "type": "VEC3"
    },
    {
      "bufferView": 10,
      "byteOffset": 0,
      "componentType": 5126,
      "normalized": false,
      "count": 24,
      "min": [
        0,
        0
      ],
      "max": [
        0.4375,
        0.375
      ],
      "type": "VEC2"
    },
    {
      "bufferView": 11,
      "byteOffset": 0,
      "componentType": 5123,
      "normalized": false,
      "count": 36,
      "min": [
        0
      ],
      "max": [
        23
      ],
      "type": "SCALAR"
    },
    {
      "bufferView": 12,
      "byteOffset": 0,
      "componentType": 5126,
      "normalized": false,
      "count": 24,
      "min": [
        -0.1875,
        0,
        -0.1875
      ],
      "max": [
        0.1875,
        0.375,
        0.1875
      ],
      "type": "VEC3"
    },
    {
      "bufferView": 13,
      "byteOffset": 0,
      "componentType": 5126,
      "normalized": false,
      "count": 24,
      "min": [
        -1,
        -1,
        -1
      ],
      "max": [
        1,
        1,
        1
      ],
      "type": "VEC3"
    },
    {
      "bufferView": 14,
      "byteOffset": 0,
      "componentType": 5126,
      "normalized": false,
      "count": 24,
      "min": [
        0,
        0
      ],
      "max": [
        0.5625,
        0.5625
      ],
      "type": "VEC2"
    },
    {
      "bufferView": 15,
      "byteOffset": 0,
      "componentType": 5123,
      "normalized": false,
      "count": 36,
      "min": [
        0
      ],
      "max": [
        23
      ],
      "type": "SCALAR"
    },
    {
      "bufferView": 16,
      "byteOffset": 0,
      "componentType": 5126,
      "normalized": false,
      "count": 24,
      "min": [
        -0.25,
        0,
        -0.125
      ],
      "max": [
        0.25,
        0.3125,
        0.125
      ],
      "type": "VEC3"
    },
    {
      "bufferView": 17,
      "byteOffset": 0,
      "componentType": 5126,
      "normalized": false,
      "count": 24,
      "min": [
        -1,
        -1,
        -1
      ],
      "max": [
        1,
        1,
        1
      ],
      "type": "VEC3"
    },
    {
      "bufferView": 18,
      "byteOffset": 0,
      "componentType": 5126,
      "normalized": false,
      "count": 24,
      "min": [
        0,
        0
      ],
      "max": [
        1,
        0.9375
      ],
      "type": "VEC2"
    },
    {
      "bufferView": 19,
      "byteOffset": 0,
      "componentType": 5123,
      "normalized": false,
      "count": 36,
      "min": [
        0
      ],
      "max": [
        23
      ],
      "type": "SCALAR"
    },
    {
      "bufferView": 20,
      "byteOffset": 0,
      "componentType": 5126,
      "normalized": false,
      "count": 24,
      "min": [
        -0.0625,
        -0.1875,
        -0.0625
      ],
      "max": [
        0.0625,
        0,
        0.0625
      ],
      "type": "VEC3"
    },
    {
      "bufferView": 21,
      "byteOffset": 0,
      "componentType": 5126,
      "normalized": false,
      "count": 24,
      "min": [
        -1,
        -1,
        -1
      ],
      "max": [
        1,
        1,
        1
      ],
      "type": "VEC3"
    },
    {
      "bufferView": 22,
      "byteOffset": 0,
      "componentType": 5126,
      "normalized": false,
      "count": 24,
      "min": [
        0,
        0
      ],
      "max": [
        0.375,
        0.375
      ],
      "type": "VEC2"
    },
    {
      "bufferView": 23,
      "byteOffset": 0,
      "componentType": 5123,
      "normalized": false,
      "count": 36,
      "min": [
        0
      ],
      "max": [
        23
      ],
      "type": "SCALAR"
    },
    {
      "bufferView": 24,
      "byteOffset": 0,
      "componentType": 5126,
      "normalized": false,
      "count": 24,
      "min": [
        -0.0625,
        -0.25,
        -0.0625
      ],
      "max": [
        0.0625,
        -5.551115123125783e-17,
        0.0625
      ],
      "type": "VEC3"
    },
    {
      "bufferView": 25,
      "byteOffset": 0,
      "componentType": 5126,
      "normalized": false,
      "count": 24,
      "min": [
        -1,
        -1,
        -1
      ],
      "max": [
        1,
        1,
        1
      ],
      "type": "VEC3"
    },
    {
      "bufferView": 26,
      "byteOffset": 0,
      "componentType": 5126,
      "normalized": false,
      "count": 24,
      "min": [
        0,
        0
      ],
      "max": [
        0.375,
        0.5
      ],
      "type": "VEC2"
    },
    {
      "bufferView": 27,
      "byteOffset": 0,
      "componentType": 5123,
      "normalized": false,
      "count": 36,
      "min": [
        0
      ],
      "max": [
        23
      ],
      "type": "SCALAR"
    },
    {
      "bufferView": 28,
      "byteOffset": 0,
      "componentType": 5126,
      "normalized": false,
      "count": 24,
      "min": [
        -0.0625,
        -0.1875,
        -0.0625
      ],
      "max": [
        0.0625,
        0,
        0.0625
      ],
      "type": "VEC3"
    },
    {
      "bufferView": 29,
      "byteOffset": 0,
      "componentType": 5126,
      "normalized": false,
      "count": 24,
      "min": [
        -1,
        -1,
        -1
      ],
      "max": [
        1,
        1,
        1
      ],
      "type": "VEC3"
    },
    {
      "bufferView": 30,
      "byteOffset": 0,
      "componentType": 5126,
      "normalized": false,
      "count": 24,
      "min": [
        0,
        0
      ],
      "max": [
        0.375,
        0.375
      ],
      "type": "VEC2"
    },
    {
      "bufferView": 31,
      "byteOffset": 0,
      "componentType": 5123,
      "normalized": false,
      "count": 36,
      "min": [
        0
      ],
      "max": [
        23
      ],
      "type": "SCALAR"
    },
    {
      "bufferView": 32,
      "byteOffset": 0,
      "componentType": 5126,
      "normalized": false,
      "count": 24,
      "min": [
        -0.0625,
        -0.25,
        -0.0625
      ],
      "max": [
        0.0625,
        -5.551115123125783e-17,
        0.0625
      ],
      "type": "VEC3"
    },
    {
      "bufferView": 33,
      "byteOffset": 0,
      "componentType": 5126,
      "normalized": false,
      "count": 24,
      "min": [
        -1,
        -1,
        -1
      ],
      "max": [
        1,
        1,
        1
      ],
      "type": "VEC3"
    },
    {
      "bufferView": 34,
      "byteOffset": 0,
      "componentType": 5126,
      "normalized": false,
      "count": 24,
      "min": [
        0,
        0
      ],
      "max": [
        0.375,
        0.5
      ],
      "type": "VEC2"
    },
    {
      "bufferView": 35,
      "byteOffset": 0,
      "componentType": 5123,
      "normalized": false,
      "count": 36,
      "min": [
        0
      ],
      "max": [
        23
      ],
      "type": "SCALAR"
    },
    {
      "bufferView": 36,
      "byteOffset": 0,
      "componentType": 5126,
      "normalized": false,
      "count": 24,
      "min": [
        -0.25,
        -0.3125,
        -0.125
      ],
      "max": [
        0.25,
        0,
        0.125
      ],
      "type": "VEC3"
    },
    {
      "bufferView": 37,
      "byteOffset": 0,
      "componentType": 5126,
      "normalized": false,
      "count": 24,
      "min": [
        -1,
        -1,
        -1
      ],
      "max": [
        1,
        1,
        1
      ],
      "type": "VEC3"
    },
    {
      "bufferView": 38,
      "byteOffset": 0,
      "componentType": 5126,
      "normalized": false,
      "count": 24,
      "min": [
        0,
        0
      ],
      "max": [
        1,
        0.9375
      ],
      "type": "VEC2"
    },
    {
      "bufferView": 39,
      "byteOffset": 0,
      "componentType": 5123,
      "normalized": false,
      "count": 36,
      "min": [
        0
      ],
      "max": [
        23
      ],
      "type": "SCALAR"
    },
    {
      "bufferView": 40,
      "byteOffset": 0,
      "componentType": 5126,
      "normalized": false,
      "count": 24,
      "min": [
        -0.25,
        -0.1875,
        -0.125
      ],
      "max": [
        0.25,
        0.1875,
        0.125
      ],
      "type": "VEC3"
    },
    {
      "bufferView": 41,
      "byteOffset": 0,
      "componentType": 5126,
      "normalized": false,
      "count": 24,
      "min": [
        -1,
        -1,
        -1
      ],
      "max": [
        1,
        1,
        1
      ],
      "type": "VEC3"
    },
    {
      "bufferView": 42,
      "byteOffset": 0,
      "componentType": 5126,
      "normalized": false,
      "count": 24,
      "min": [
        0,
        0
      ],
      "max": [
        0.5,
        0.5625
      ],
      "type": "VEC2"
    },
    {
      "bufferView": 43,
      "byteOffset": 0,
      "componentType": 5123,
      "normalized": false,
      "count": 36,
      "min": [
        0
      ],
      "max": [
        23
      ],
      "type": "SCALAR"
    },
    {
      "bufferView": 44,
      "byteOffset": 0,
      "componentType": 5126,
      "count": 5,
      "type": "SCALAR",
      "min": [
        0
      ],
      "max": [
        1
      ]
    },
    {
      "bufferView": 45,
      "byteOffset": 0,
      "componentType": 5126,
      "count": 5,
      "type": "VEC3",
      "min": [
        0,
        -0.012500000186264515,
        0.15625
      ],
      "max": [
        0,
        0.0062500000931322575,
        0.15625
      ]
    },
    {
      "bufferView": 46,
      "byteOffset": 0,
      "componentType": 5126,
      "count": 5,
      "type": "SCALAR",
      "min": [
        0
      ],
      "max": [
        1
      ]
    },
    {
      "bufferView": 47,
      "byteOffset": 0,
      "componentType": 5126,
      "count": 5,
      "type": "VEC4",
      "min": [
        -0.2164396196603775,
        0,
        0,
        0.9762960076332092
      ],
      "max": [
        0.2164396196603775,
        0,
        0,
        1
      ]
    },
    {
      "bufferView": 48,
      "byteOffset": 0,
      "componentType": 5126,
      "count": 5,
      "type": "SCALAR",
      "min": [
        0
      ],
      "max": [
        1
      ]
    },
    {
      "bufferView": 49,
      "byteOffset": 0,
      "componentType": 5126,
      "count": 5,
      "type": "VEC4",
      "min": [
        0,
        0,
        0.3420201539993286,
        0.8870108127593994
      ],
      "max": [
        0,
        0,
        0.4617486000061035,
        0.9396926164627075
      ]
    },
    {
      "bufferView": 50,
      "byteOffset": 0,
      "componentType": 5126,
      "count": 5,
      "type": "SCALAR",
      "min": [
        0
      ],
      "max": [
        1
      ]
    },
    {
      "bufferView": 51,
      "byteOffset": 0,
      "componentType": 5126,
      "count": 5,
      "type": "VEC4",
      "min": [
        0,
        0,
        -0.4809887707233429,
        0.8767267465591431
      ],
      "max": [
        0,
        0,
        -0.36243805289268494,
        0.9320078492164612
      ]
    },
    {
      "bufferView": 52,
      "byteOffset": 0,
      "componentType": 5126,
      "count": 5,
      "type": "SCALAR",
      "min": [
        0
      ],
      "max": [
        1
      ]
    },
    {
      "bufferView": 53,
      "byteOffset": 0,
      "componentType": 5126,
      "count": 5,
      "type": "VEC4",
      "min": [
        -0.2164396196603775,
        0,
        0,
        0.9762960076332092
      ],
      "max": [
        0.2164396196603775,
        0,
        0,
        1
      ]
    },
    {
      "bufferView": 54,
      "byteOffset": 0,
      "componentType": 5126,
      "count": 5,
      "type": "SCALAR",
      "min": [
        0
      ],
      "max": [
        1
      ]
    },
    {
      "bufferView": 55,
      "byteOffset": 0,
      "componentType": 5126,
      "count": 5,
      "type": "VEC4",
      "min": [
        -0.2164396196603775,
        0,
        0,
        0.9762960076332092
      ],
      "max": [
        0.2164396196603775,
        0,
        0,
        1
      ]
    },
    {
      "bufferView": 56,
      "byteOffset": 0,
      "componentType": 5126,
      "count": 5,
      "type": "SCALAR",
      "min": [
        0
      ],
      "max": [
        1
      ]
    },
    {
      "bufferView": 57,
      "byteOffset": 0,
      "componentType": 5126,
      "count": 5,
      "type": "VEC4",
      "min": [
        -0.2164396196603775,
        0,
        0,
        0.9762960076332092
      ],
      "max": [
        0.2164396196603775,
        0,
        0,
        1
      ]
    },
    {
      "bufferView": 58,
      "byteOffset": 0,
      "componentType": 5126,
      "count": 1,
      "type": "SCALAR",
      "min": [
        0
      ],
      "max": [
        0
      ]
    },
    {
      "bufferView": 59,
      "byteOffset": 0,
      "componentType": 5126,
      "count": 1,
      "type": "VEC3",
      "min": [
        0,
        0.0062500000931322575,
        0.15625
      ],
      "max": [
        0,
        0.0062500000931322575,
        0.15625
      ]
    },
    {
      "bufferView": 60,
      "byteOffset": 0,
      "componentType": 5126,
      "count": 3,
      "type": "SCALAR",
      "min": [
        0
      ],
      "max": [
        2
      ]
    },
    {
      "bufferView": 61,
      "byteOffset": 0,
      "componentType": 5126,
      "count": 3,
      "type": "VEC3",
      "min": [
        0,
        0.1826149970293045,
        -0.18215186893939972
      ],
      "max": [
        0,
        0.2138649970293045,
        -0.18215186893939972
      ]
    },
    {
      "bufferView": 62,
      "byteOffset": 0,
      "componentType": 5126,
      "count": 3,
      "type": "SCALAR",
      "min": [
        0
      ],
      "max": [
        2
      ]
    },
    {
      "bufferView": 63,
      "byteOffset": 0,
      "componentType": 5126,
      "count": 3,
      "type": "VEC4",
      "min": [
        0,
        0,
        0.3420201539993286,
        0.8870108127593994
      ],
      "max": [
        0,
        0,
        0.4617486000061035,
        0.9396926164627075
      ]
    },
    {
      "bufferView": 64,
      "byteOffset": 0,
      "componentType": 5126,
      "count": 3,
      "type": "SCALAR",
      "min": [
        0
      ],
      "max": [
        2
      ]
    },
    {
      "bufferView": 65,
      "byteOffset": 0,
      "componentType": 5126,
      "count": 3,
      "type": "VEC4",
      "min": [
        0,
        0,
        -0.4617486000061035,
        0.8870108127593994
      ],
      "max": [
        0,
        0,
        -0.3420201539993286,
        0.9396926164627075
      ]
    },
    {
      "bufferView": 66,
      "byteOffset": 0,
      "componentType": 5126,
      "count": 3,
      "type": "SCALAR",
      "min": [
        0
      ],
      "max": [
        0.25
      ]
    },
    {
      "bufferView": 67,
      "byteOffset": 0,
      "componentType": 5126,
      "count": 3,
      "type": "VEC4",
      "min": [
        0,
        0,
        0,
        0.9600498676300049
      ],
      "max": [
        0.2798290252685547,
        0,
        0,
        1
      ]
    },
    {
      "bufferView": 68,
      "byteOffset": 0,
      "componentType": 5126,
      "count": 3,
      "type": "SCALAR",
      "min": [
        0
      ],
      "max": [
        0.25
      ]
    },
    {
      "bufferView": 69,
      "byteOffset": 0,
      "componentType": 5126,
      "count": 3,
      "type": "VEC3",
      "min": [
        0,
        -0.4437499940395355,
        0.15625
      ],
      "max": [
        0,
        0.03125,
        0.15625
      ]
    },
    {
      "bufferView": 70,
      "byteOffset": 0,
      "componentType": 5126,
      "count": 3,
      "type": "SCALAR",
      "min": [
        0
      ],
      "max": [
        0.25
      ]
    },
    {
      "bufferView": 71,
      "byteOffset": 0,
      "componentType": 5126,
      "count": 3,
      "type": "VEC4",
      "min": [
        0,
        0,
        0,
        0.7071067690849304
      ],
      "max": [
        0.7071067690849304,
        0,
        0,
        1
      ]
    },
    {
      "bufferView": 72,
      "byteOffset": 0,
      "componentType": 5126,
      "count": 3,
      "type": "SCALAR",
      "min": [
        0
      ],
      "max": [
        0.25
      ]
    },
    {
      "bufferView": 73,
      "byteOffset": 0,
      "componentType": 5126,
      "count": 3,
      "type": "VEC4",
      "min": [
        0,
        0,
        0,
        0.7071067690849304
      ],
      "max": [
        0.7071067690849304,
        0,
        0,
        1
      ]
    },
    {
      "bufferView": 74,
      "byteOffset": 0,
      "componentType": 5126,
      "count": 3,
      "type": "SCALAR",
      "min": [
        0
      ],
      "max": [
        0.25
      ]
    },
    {
      "bufferView": 75,
      "byteOffset": 0,
      "componentType": 5126,
      "count": 3,
      "type": "VEC4",
      "min": [
        0,
        0,
        0.3420201539993286,
        0.7071067690849304
      ],
      "max": [
        0,
        0,
        0.7071067690849304,
        0.9396926164627075
      ]
    },
    {
      "bufferView": 76,
      "byteOffset": 0,
      "componentType": 5126,
      "count": 3,
      "type": "SCALAR",
      "min": [
        0
      ],
      "max": [
        0.25
      ]
    },
    {
      "bufferView": 77,
      "byteOffset": 0,
      "componentType": 5126,
      "count": 3,
      "type": "VEC4",
      "min": [
        0,
        0,
        -0.7223639488220215,
        0.6915130615234375
      ],
      "max": [
        0,
        0,
        -0.3420201539993286,
        0.9396926164627075
      ]
    },
    {
      "bufferView": 78,
      "byteOffset": 0,
      "componentType": 5126,
      "count": 3,
      "type": "SCALAR",
      "min": [
        0
      ],
      "max": [
        0.25
      ]
    },
    {
      "bufferView": 79,
      "byteOffset": 0,
      "componentType": 5126,
      "count": 3,
      "type": "VEC4",
      "min": [
        -0.7071067690849304,
        0,
        0,
        0.7071067690849304
      ],
      "max": [
        0,
        0,
        0,
        1
      ]
    },
    {
      "bufferView": 80,
      "byteOffset": 0,
      "componentType": 5126,
      "count": 3,
      "type": "SCALAR",
      "min": [
        0
      ],
      "max": [
        0.25
      ]
    },
    {
      "bufferView": 81,
      "byteOffset": 0,
      "componentType": 5126,
      "count": 3,
      "type": "VEC4",
      "min": [
        -0.8314695954322815,
        0,
        0,
        0.5555702447891235
      ],
      "max": [
        0,
        0,
        0,
        1
      ]
    },
    {
      "bufferView": 82,
      "byteOffset": 0,
      "componentType": 5126,
      "count": 4,
      "type": "SCALAR",
      "min": [
        0
      ],
      "max": [
        0.5
      ]
    },
    {
      "bufferView": 83,
      "byteOffset": 0,
      "componentType": 5126,
      "count": 4,
      "type": "VEC4",
      "min": [
        -0.2798290252685547,
        0,
        0,
        -0.9600498676300049
      ],
      "max": [
        0.9713420867919922,
        0,
        0,
        0.9600498676300049
      ]
    },
    {
      "bufferView": 84,
      "byteOffset": 0,
      "componentType": 5126,
      "count": 13,
      "type": "SCALAR",
      "min": [
        0
      ],
      "max": [
        0.5
      ]
    },
    {
      "bufferView": 85,
      "byteOffset": 0,
      "componentType": 5126,
      "count": 13,
      "type": "VEC3",
      "min": [
        0,
        -0.49000000953674316,
        0.03125
      ],
      "max": [
        0,
        -0.3531250059604645,
        0.03125
      ]
    },
    {
      "bufferView": 86,
      "byteOffset": 0,
      "componentType": 5126,
      "count": 1,
      "type": "SCALAR",
      "min": [
        0
      ],
      "max": [
        0
      ]
    },
    {
      "bufferView": 87,
      "byteOffset": 0,
      "componentType": 5126,
      "count": 1,
      "type": "VEC4",
      "min": [
        0.7071067690849304,
        0,
        0,
        0.7071067690849304
      ],
      "max": [
        0.7071067690849304,
        0,
        0,
        0.7071067690849304
      ]
    },
    {
      "bufferView": 88,
      "byteOffset": 0,
      "componentType": 5126,
      "count": 1,
      "type": "SCALAR",
      "min": [
        0
      ],
      "max": [
        0
      ]
    },
    {
      "bufferView": 89,
      "byteOffset": 0,
      "componentType": 5126,
      "count": 1,
      "type": "VEC4",
      "min": [
        0.7071067690849304,
        0,
        0,
        0.7071067690849304
      ],
      "max": [
        0.7071067690849304,
        0,
        0,
        0.7071067690849304
      ]
    },
    {
      "bufferView": 90,
      "byteOffset": 0,
      "componentType": 5126,
      "count": 1,
      "type": "SCALAR",
      "min": [
        0
      ],
      "max": [
        0
      ]
    },
    {
      "bufferView": 91,
      "byteOffset": 0,
      "componentType": 5126,
      "count": 1,
      "type": "VEC4",
      "min": [
        0,
        0,
        0.7071067690849304,
        0.7071067690849304
      ],
      "max": [
        0,
        0,
        0.7071067690849304,
        0.7071067690849304
      ]
    },
    {
      "bufferView": 92,
      "byteOffset": 0,
      "componentType": 5126,
      "count": 1,
      "type": "SCALAR",
      "min": [
        0
      ],
      "max": [
        0
      ]
    },
    {
      "bufferView": 93,
      "byteOffset": 0,
      "componentType": 5126,
      "count": 1,
      "type": "VEC4",
      "min": [
        0,
        0,
        -0.7223639488220215,
        0.6915130615234375
      ],
      "max": [
        0,
        0,
        -0.7223639488220215,
        0.6915130615234375
      ]
    },
    {
      "bufferView": 94,
      "byteOffset": 0,
      "componentType": 5126,
      "count": 1,
      "type": "SCALAR",
      "min": [
        0
      ],
      "max": [
        0
      ]
    },
    {
      "bufferView": 95,
      "byteOffset": 0,
      "componentType": 5126,
      "count": 1,
      "type": "VEC4",
      "min": [
        -0.7071067690849304,
        0,
        0,
        0.7071067690849304
      ],
      "max": [
        -0.7071067690849304,
        0,
        0,
        0.7071067690849304
      ]
    },
    {
      "bufferView": 96,
      "byteOffset": 0,
      "componentType": 5126,
      "count": 1,
      "type": "SCALAR",
      "min": [
        0
      ],
      "max": [
        0
      ]
    },
    {
      "bufferView": 97,
      "byteOffset": 0,
      "componentType": 5126,
      "count": 1,
      "type": "VEC4",
      "min": [
        -0.8314695954322815,
        0,
        0,
        0.5555702447891235
      ],
      "max": [
        -0.8314695954322815,
        0,
        0,
        0.5555702447891235
      ]
    },
    {
      "bufferView": 98,
      "byteOffset": 0,
      "componentType": 5126,
      "count": 3,
      "type": "SCALAR",
      "min": [
        0
      ],
      "max": [
        0.25
      ]
    },
    {
      "bufferView": 99,
      "byteOffset": 0,
      "componentType": 5126,
      "count": 3,
      "type": "VEC4",
      "min": [
        0,
        0,
        0,
        0.9600498676300049
      ],
      "max": [
        0.2798290252685547,
        0,
        0,
        1
      ]
    },
    {
      "bufferView": 100,
      "byteOffset": 0,
      "componentType": 5126,
      "count": 3,
      "type": "SCALAR",
      "min": [
        0
      ],
      "max": [
        0.25
      ]
    },
    {
      "bufferView": 101,
      "byteOffset": 0,
      "componentType": 5126,
      "count": 3,
      "type": "VEC3",
      "min": [
        0,
        -0.4437499940395355,
        0.15625
      ],
      "max": [
        0,
        0.03125,
        0.15625
      ]
    },
    {
      "bufferView": 102,
      "byteOffset": 0,
      "componentType": 5126,
      "count": 3,
      "type": "SCALAR",
      "min": [
        0
      ],
      "max": [
        0.25
      ]
    },
    {
      "bufferView": 103,
      "byteOffset": 0,
      "componentType": 5126,
      "count": 3,
      "type": "VEC4",
      "min": [
        0,
        0,
        0,
        0.7071067690849304
      ],
      "max": [
        0.7071067690849304,
        0,
        0,
        1
      ]
    },
    {
      "bufferView": 104,
      "byteOffset": 0,
      "componentType": 5126,
      "count": 3,
      "type": "SCALAR",
      "min": [
        0
      ],
      "max": [
        0.25
      ]
    },
    {
      "bufferView": 105,
      "byteOffset": 0,
      "componentType": 5126,
      "count": 3,
      "type": "VEC4",
      "min": [
        0,
        0,
        0,
        0.7071067690849304
      ],
      "max": [
        0.7071067690849304,
        0,
        0,
        1
      ]
    },
    {
      "bufferView": 106,
      "byteOffset": 0,
      "componentType": 5126,
      "count": 3,
      "type": "SCALAR",
      "min": [
        0
      ],
      "max": [
        0.25
      ]
    },
    {
      "bufferView": 107,
      "byteOffset": 0,
      "componentType": 5126,
      "count": 3,
      "type": "VEC4",
      "min": [
        0,
        0,
        0.3420201539993286,
        0.7071067690849304
      ],
      "max": [
        0,
        0,
        0.7071067690849304,
        0.9396926164627075
      ]
    },
    {
      "bufferView": 108,
      "byteOffset": 0,
      "componentType": 5126,
      "count": 3,
      "type": "SCALAR",
      "min": [
        0
      ],
      "max": [
        0.25
      ]
    },
    {
      "bufferView": 109,
      "byteOffset": 0,
      "componentType": 5126,
      "count": 3,
      "type": "VEC4",
      "min": [
        0,
        0,
        -0.7223639488220215,
        0.6915130615234375
      ],
      "max": [
        0,
        0,
        0,
        1
      ]
    },
    {
      "bufferView": 110,
      "byteOffset": 0,
      "componentType": 5126,
      "count": 2,
      "type": "SCALAR",
      "min": [
        0
      ],
      "max": [
        0.25
      ]
    },
    {
      "bufferView": 111,
      "byteOffset": 0,
      "componentType": 5126,
      "count": 2,
      "type": "VEC4",
      "min": [
        -0.7071067690849304,
        0,
        0,
        0.7071067690849304
      ],
      "max": [
        0,
        0,
        0,
        1
      ]
    },
    {
      "bufferView": 112,
      "byteOffset": 0,
      "componentType": 5126,
      "count": 3,
      "type": "SCALAR",
      "min": [
        0
      ],
      "max": [
        0.25
      ]
    },
    {
      "bufferView": 113,
      "byteOffset": 0,
      "componentType": 5126,
      "count": 3,
      "type": "VEC4",
      "min": [
        -0.8314695954322815,
        0,
        0,
        0.5555702447891235
      ],
      "max": [
        0,
        0,
        0,
        1
      ]
    }
  ],
  "scene": 0,
  "scenes": [
    {
      "nodes": [
        28
      ]
    }
  ],
  "nodes": [
    {
      "name": "cube",
      "matrix": [
        1,
        0,
        0,
        0,
        0,
        1,
        0,
        0,
        0,
        0,
        1,
        0,
        0.0625,
        0,
        0,
        1
      ],
      "mesh": 0
    },
    {
      "name": "left ear",
      "children": [
        0
      ],
      "matrix": [
        0.6976354122161865,
        0.716452956199646,
        0,
        0,
        -0.716452956199646,
        0.6976354122161865,
        0,
        0,
        0,
        0,
        1,
        0,
        -0.1875,
        0,
        0,
        1
      ]
    },
    {
      "name": "cube",
      "matrix": [
        1,
        0,
        0,
        0,
        0,
        1,
        0,
        0,
        0,
        0,
        1,
        0,
        -0.0625,
        0,
        0,
        1
      ],
      "mesh": 1
    },
    {
      "name": "right ear",
      "children": [
        2
      ],
      "matrix": [
        0.6657201647758484,
        -0.7462014555931091,
        0,
        0,
        0.7462014555931091,
        0.6657201647758484,
        0,
        0,
        0,
        0,
        1,
        0,
        0.1875,
        0,
        0,
        1
      ]
    },
    {
      "name": "ears",
      "children": [
        1,
        3
      ],
      "matrix": [
        1,
        0,
        0,
        0,
        0,
        1,
        0,
        0,
        0,
        0,
        1,
        0,
        0,
        0.28125,
        0,
        1
      ]
    },
    {
      "name": "cube",
      "matrix": [
        1,
        0,
        0,
        0,
        0,
        1,
        0,
        0,
        0,
        0,
        1,
        0,
        0,
        0,
        -0.0625,
        1
      ],
      "mesh": 2
    },
    {
      "name": "snout",
      "children": [
        5
      ],
      "matrix": [
        1,
        0,
        0,
        0,
        0,
        1,
        0,
        0,
        0,
        0,
        1,
        0,
        0,
        0.09375,
        0.1875,
        1
      ]
    },
    {
      "name": "cube",
      "mesh": 3
    },
    {
      "name": "head",
      "children": [
        4,
        6,
        7
      ],
      "matrix": [
        1,
        0,
        0,
        0,
        0,
        1,
        0,
        0,
        0,
        0,
        1,
        0,
        0,
        0.25,
        0,
        1
      ]
    },
    {
      "name": "top body",
      "matrix": [
        1,
        0,
        0,
        0,
        0,
        1,
        0,
        0,
        0,
        0,
        1,
        0,
        0,
        -0.0625,
        0,
        1
      ],
      "mesh": 4
    },
    {
      "name": "top body",
      "children": [
        8,
        9
      ],
      "matrix": [
        1,
        0,
        0,
        0,
        0,
        1,
        0,
        0,
        0,
        0,
        1,
        0,
        0,
        0.18425796926021576,
        -0.18215186893939972,
        1
      ]
    },
    {
      "name": "cube",
      "matrix": [
        1,
        0,
        0,
        0,
        0,
        1,
        0,
        0,
        0,
        0,
        1,
        0,
        0,
        0.0625,
        0,
        1
      ],
      "mesh": 5
    },
    {
      "name": "bottom left leg",
      "children": [
        11
      ],
      "matrix": [
        1,
        0,
        0,
        0,
        0,
        0.9641139507293701,
        -0.2654888331890106,
        0,
        0,
        0.2654888331890106,
        0.9641139507293701,
        0,
        0,
        -0.1875,
        0,
        1
      ]
    },
    {
      "name": "cube",
      "matrix": [
        1,
        0,
        0,
        0,
        0,
        1,
        0,
        0,
        0,
        0,
        1,
        0,
        0,
        0.0625,
        0,
        1
      ],
      "mesh": 6
    },
    {
      "name": "top left leg",
      "children": [
        12,
        13
      ],
      "matrix": [
        1,
        0,
        0,
        0,
        0,
        0.9641139507293701,
        0.2654888331890106,
        0,
        0,
        -0.2654888331890106,
        0.9641139507293701,
        0,
        0,
        0,
        0,
        1
      ]
    },
    {
      "name": "left leg",
      "children": [
        14
      ],
      "matrix": [
        1,
        0,
        0,
        0,
        0,
        1,
        0,
        0,
        0,
        0,
        1,
        0,
        -0.125,
        0,
        0,
        1
      ]
    },
    {
      "name": "cube",
      "matrix": [
        1,
        0,
        0,
        0,
        0,
        1,
        0,
        0,
        0,
        0,
        1,
        0,
        0,
        0.0625,
        0,
        1
      ],
      "mesh": 7
    },
    {
      "name": "bottom right leg",
      "children": [
        16
      ],
      "matrix": [
        1,
        0,
        0,
        0,
        0,
        0.9641139507293701,
        0.2654888331890106,
        0,
        0,
        -0.2654888331890106,
        0.9641139507293701,
        0,
        0,
        -0.1875,
        0,
        1
      ]
    },
    {
      "name": "cube",
      "matrix": [
        1,
        0,
        0,
        0,
        0,
        1,
        0,
        0,
        0,
        0,
        1,
        0,
        0,
        0.0625,
        0,
        1
      ],
      "mesh": 8
    },
    {
      "name": "top right leg",
      "children": [
        17,
        18
      ],
      "matrix": [
        1,
        0,
        0,
        0,
        0,
        0.9641139507293701,
        -0.2654888331890106,
        0,
        0,
        0.2654888331890106,
        0.9641139507293701,
        0,
        0,
        0,
        0,
        1
      ]
    },
    {
      "name": "right leg",
      "children": [
        19
      ],
      "matrix": [
        1,
        0,
        0,
        0,
        0,
        1,
        0,
        0,
        0,
        0,
        1,
        0,
        0.125,
        0,
        0,
        1
      ]
    },
    {
      "name": "legs",
      "children": [
        15,
        20
      ],
      "matrix": [
        1,
        0,
        0,
        0,
        0,
        1,
        0,
        0,
        0,
        0,
        1,
        0,
        0,
        -0.25,
        0,
        1
      ]
    },
    {
      "name": "bottom body",
      "matrix": [
        1,
        0,
        0,
        0,
        0,
        1,
        0,
        0,
        0,
        0,
        1,
        0,
        0,
        0.0625,
        0,
        1
      ],
      "mesh": 9
    },
    {
      "name": "bottom body",
      "children": [
        21,
        22
      ],
      "matrix": [
        1,
        0,
        0,
        0,
        0,
        1,
        0,
        0,
        0,
        0,
        1,
        0,
        0,
        -0.1923850029706955,
        -0.18215186893939972,
        1
      ]
    },
    {
      "name": "middle body",
      "matrix": [
        1,
        0,
        0,
        0,
        0,
        1,
        0,
        0,
        0,
        0,
        1,
        0,
        0,
        -0.004885000176727772,
        -0.18215186893939972,
        1
      ],
      "mesh": 10
    },
    {
      "name": "middle body",
      "children": [
        10,
        23,
        24
      ],
      "matrix": [
        1,
        0,
        0,
        0,
        0,
        1,
        0,
        0,
        0,
        0,
        1,
        0,
        0,
        -0.005297000054270029,
        0.15625,
        1
      ]
    },
    {
      "name": "body",
      "children": [
        25
      ]
    },
    {
      "name": "Armadillo",
      "children": [
        26
      ],
      "matrix": [
        1,
        0,
        0,
        0,
        0,
        1,
        0,
        0,
        0,
        0,
        1,
        0,
        0,
        0.75,
        0,
        1
      ]
    },
    {
      "children": [
        27
      ]
    }
  ],
  "meshes": [
    {
      "primitives": [
        {
          "material": 0,
          "mode": 4,
          "attributes": {
            "POSITION": 0,
            "NORMAL": 1,
            "TEXCOORD_0": 2
          },
          "indices": 3
        }
      ]
    },
    {
      "primitives": [
        {
          "material": 1,
          "mode": 4,
          "attributes": {
            "POSITION": 4,
            "NORMAL": 5,
            "TEXCOORD_0": 6
          },
          "indices": 7
        }
      ]
    },
    {
      "primitives": [
        {
          "material": 2,
          "mode": 4,
          "attributes": {
            "POSITION": 8,
            "NORMAL": 9,
            "TEXCOORD_0": 10
          },
          "indices": 11
        }
      ]
    },
    {
      "primitives": [
        {
          "material": 3,
          "mode": 4,
          "attributes": {
            "POSITION": 12,
            "NORMAL": 13,
            "TEXCOORD_0": 14
          },
          "indices": 15
        }
      ]
    },
    {
      "primitives": [
        {
          "material": 4,
          "mode": 4,
          "attributes": {
            "POSITION": 16,
            "NORMAL": 17,
            "TEXCOORD_0": 18
          },
          "indices": 19
        }
      ]
    },
    {
      "primitives": [
        {
          "material": 5,
          "mode": 4,
          "attributes": {
            "POSITION": 20,
            "NORMAL": 21,
            "TEXCOORD_0": 22
          },
          "indices": 23
        }
      ]
    },
    {
      "primitives": [
        {
          "material": 6,
          "mode": 4,
          "attributes": {
            "POSITION": 24,
            "NORMAL": 25,
            "TEXCOORD_0": 26
          },
          "indices": 27
        }
      ]
    },
    {
      "primitives": [
        {
          "material": 7,
          "mode": 4,
          "attributes": {
            "POSITION": 28,
            "NORMAL": 29,
            "TEXCOORD_0": 30
          },
          "indices": 31
        }
      ]
    },
    {
      "primitives": [
        {
          "material": 8,
          "mode": 4,
          "attributes": {
            "POSITION": 32,
            "NORMAL": 33,
            "TEXCOORD_0": 34
          },
          "indices": 35
        }
      ]
    },
    {
      "primitives": [
        {
          "material": 9,
          "mode": 4,
          "attributes": {
            "POSITION": 36,
            "NORMAL": 37,
            "TEXCOORD_0": 38
          },
          "indices": 39
        }
      ]
    },
    {
      "primitives": [
        {
          "material": 10,
          "mode": 4,
          "attributes": {
            "POSITION": 40,
            "NORMAL": 41,
            "TEXCOORD_0": 42
          },
          "indices": 43
        }
      ]
    }
  ],
  "materials": [
    {
      "name": "",
      "pbrMetallicRoughness": {
        "baseColorFactor": [
          0.00392156862745098,
          0.21568627450980393,
          0.00784313725490196,
          1
        ],
        "metallicFactor": 0,
        "roughnessFactor": 1,
        "baseColorTexture": {
          "index": 0,
          "texCoord": 0
        }
      },
      "emissiveFactor": [
        0,
        0,
        0
      ],
      "alphaMode": "MASK",
      "doubleSided": true,
      "alphaCutoff": 0.05
    },
    {
      "name": "",
      "pbrMetallicRoughness": {
        "baseColorFactor": [
          0.00392156862745098,
          0.21568627450980393,
          0.00784313725490196,
          1
        ],
        "metallicFactor": 0,
        "roughnessFactor": 1,
        "baseColorTexture": {
          "index": 1,
          "texCoord": 0
        }
      },
      "emissiveFactor": [
        0,
        0,
        0
      ],
      "alphaMode": "MASK",
      "doubleSided": true,
      "alphaCutoff": 0.05
    },
    {
      "name": "",
      "pbrMetallicRoughness": {
        "baseColorFactor": [
          0.00392156862745098,
          0.21568627450980393,
          0.00784313725490196,
          1
        ],
        "metallicFactor": 0,
        "roughnessFactor": 1,
        "baseColorTexture": {
          "index": 2,
          "texCoord": 0
        }
      },
      "emissiveFactor": [
        0,
        0,
        0
      ],
      "alphaMode": "MASK",
      "doubleSided": true,
      "alphaCutoff": 0.05
    },
    {
      "name": "",
      "pbrMetallicRoughness": {
        "baseColorFactor": [
          0.01568627450980392,
          0.4235294117647059,
          0.023529411764705882,
          1
        ],
        "metallicFactor": 0,
        "roughnessFactor": 1,
        "baseColorTexture": {
          "index": 3,
          "texCoord": 0
        }
      },
      "emissiveFactor": [
        0,
        0,
        0
      ],
      "alphaMode": "MASK",
      "doubleSided": true,
      "alphaCutoff": 0.05
    },
    {
      "name": "",
      "pbrMetallicRoughness": {
        "baseColorFactor": [
          0.01568627450980392,
          0.4235294117647059,
          0.023529411764705882,
          1
        ],
        "metallicFactor": 0,
        "roughnessFactor": 1,
        "baseColorTexture": {
          "index": 4,
          "texCoord": 0
        }
      },
      "emissiveFactor": [
        0,
        0,
        0
      ],
      "alphaMode": "MASK",
      "doubleSided": true,
      "alphaCutoff": 0.05
    },
    {
      "name": "",
      "pbrMetallicRoughness": {
        "baseColorFactor": [
          0.00784313725490196,
          0.2627450980392157,
          0.011764705882352941,
          1
        ],
        "metallicFactor": 0,
        "roughnessFactor": 1,
        "baseColorTexture": {
          "index": 5,
          "texCoord": 0
        }
      },
      "emissiveFactor": [
        0,
        0,
        0
      ],
      "alphaMode": "MASK",
      "doubleSided": true,
      "alphaCutoff": 0.05
    },
    {
      "name": "",
      "pbrMetallicRoughness": {
        "baseColorFactor": [
          0.00784313725490196,
          0.2627450980392157,
          0.011764705882352941,
          1
        ],
        "metallicFactor": 0,
        "roughnessFactor": 1,
        "baseColorTexture": {
          "index": 6,
          "texCoord": 0
        }
      },
      "emissiveFactor": [
        0,
        0,
        0
      ],
      "alphaMode": "MASK",
      "doubleSided": true,
      "alphaCutoff": 0.05
    },
    {
      "name": "",
      "pbrMetallicRoughness": {
        "baseColorFactor": [
          0.00784313725490196,
          0.2627450980392157,
          0.011764705882352941,
          1
        ],
        "metallicFactor": 0,
        "roughnessFactor": 1,
        "baseColorTexture": {
          "index": 7,
          "texCoord": 0
        }
      },
      "emissiveFactor": [
        0,
        0,
        0
      ],
      "alphaMode": "MASK",
      "doubleSided": true,
      "alphaCutoff": 0.05
    },
    {
      "name": "",
      "pbrMetallicRoughness": {
        "baseColorFactor": [
          0.00784313725490196,
          0.2627450980392157,
          0.011764705882352941,
          1
        ],
        "metallicFactor": 0,
        "roughnessFactor": 1,
        "baseColorTexture": {
          "index": 8,
          "texCoord": 0
        }
      },
      "emissiveFactor": [
        0,
        0,
        0
      ],
      "alphaMode": "MASK",
      "doubleSided": true,
      "alphaCutoff": 0.05
    },
    {
      "name": "",
      "pbrMetallicRoughness": {
        "baseColorFactor": [
          0.01568627450980392,
          0.4235294117647059,
          0.023529411764705882,
          1
        ],
        "metallicFactor": 0,
        "roughnessFactor": 1,
        "baseColorTexture": {
          "index": 9,
          "texCoord": 0
        }
      },
      "emissiveFactor": [
        0,
        0,
        0
      ],
      "alphaMode": "MASK",
      "doubleSided": true,
      "alphaCutoff": 0.05
    },
    {
      "name": "",
      "pbrMetallicRoughness": {
        "baseColorFactor": [
          0.01568627450980392,
          0.4235294117647059,
          0.023529411764705882,
          1
        ],
        "metallicFactor": 0,
        "roughnessFactor": 1,
        "baseColorTexture": {
          "index": 10,
          "texCoord": 0
        }
      },
      "emissiveFactor": [
        0,
        0,
        0
      ],
      "alphaMode": "MASK",
      "doubleSided": true,
      "alphaCutoff": 0.05
    }
  ],
  "textures": [
    {
      "sampler": 0,
      "name": "left ear.jpg",
      "source": 0
    },
    {
      "sampler": 1,
      "name": "right ear.jpg",
      "source": 1
    },
    {
      "sampler": 2,
      "name": "snout.jpg",
      "source": 2
    },
    {
      "sampler": 3,
      "name": "head.jpg",
      "source": 3
    },
    {
      "sampler": 4,
      "name": "top body.jpg",
      "source": 4
    },
    {
      "sampler": 5,
      "name": "left leg bottom.jpg",
      "source": 5
    },
    {
      "sampler": 6,
      "name": "left leg top.jpg",
      "source": 6
    },
    {
      "sampler": 7,
      "name": "right leg bottom.jpg",
      "source": 7
    },
    {
      "sampler": 8,
      "name": "right leg top.jpg",
      "source": 8
    },
    {
      "sampler": 9,
      "name": "bottom body.jpg",
      "source": 9
    },
    {
      "sampler": 10,
      "name": "middle body.jpg",
      "source": 10
    }
  ],
  "samplers": [
    {
      "magFilter": 9728,
      "minFilter": 9728,
      "wrapS": 33071,
      "wrapT": 33071
    },
    {
      "magFilter": 9728,
      "minFilter": 9728,
      "wrapS": 33071,
      "wrapT": 33071
    },
    {
      "magFilter": 9728,
      "minFilter": 9728,
      "wrapS": 33071,
      "wrapT": 33071
    },
    {
      "magFilter": 9728,
      "minFilter": 9728,
      "wrapS": 33071,
      "wrapT": 33071
    },
    {
      "magFilter": 9728,
      "minFilter": 9728,
      "wrapS": 33071,
      "wrapT": 33071
    },
    {
      "magFilter": 9728,
      "minFilter": 9728,
      "wrapS": 33071,
      "wrapT": 33071
    },
    {
      "magFilter": 9728,
      "minFilter": 9728,
      "wrapS": 33071,
      "wrapT": 33071
    },
    {
      "magFilter": 9728,
      "minFilter": 9728,
      "wrapS": 33071,
      "wrapT": 33071
    },
    {
      "magFilter": 9728,
      "minFilter": 9728,
      "wrapS": 33071,
      "wrapT": 33071
    },
    {
      "magFilter": 9728,
      "minFilter": 9728,
      "wrapS": 33071,
      "wrapT": 33071
    },
    {
      "magFilter": 9728,
      "minFilter": 9728,
      "wrapS": 33071,
      "wrapT": 33071
    }
  ],
  "images": [
    {
      "uri": "left ear.jpg",
      "mimeType": "image/jpeg",
      "name": "left ear.jpg"
    },
    {
      "uri": "right ear.jpg",
      "mimeType": "image/jpeg",
      "name": "right ear.jpg"
    },
    {
      "uri": "snout.jpg",
      "mimeType": "image/jpeg",
      "name": "snout.jpg"
    },
    {
      "uri": "head.jpg",
      "mimeType": "image/jpeg",
      "name": "head.jpg"
    },
    {
      "uri": "top body.jpg",
      "mimeType": "image/jpeg",
      "name": "top body.jpg"
    },
    {
      "uri": "left leg bottom.jpg",
      "mimeType": "image/jpeg",
      "name": "left leg bottom.jpg"
    },
    {
      "uri": "left leg top.jpg",
      "mimeType": "image/jpeg",
      "name": "left leg top.jpg"
    },
    {
      "uri": "right leg bottom.jpg",
      "mimeType": "image/jpeg",
      "name": "right leg bottom.jpg"
    },
    {
      "uri": "right leg top.jpg",
      "mimeType": "image/jpeg",
      "name": "right leg top.jpg"
    },
    {
      "uri": "bottom body.jpg",
      "mimeType": "image/jpeg",
      "name": "bottom body.jpg"
    },
    {
      "uri": "middle body.jpg",
      "mimeType": "image/jpeg",
      "name": "middle body.jpg"
    }
  ],
  "animations": [
    {
      "name": "walk",
      "samplers": [
        {
          "input": 44,
          "output": 45,
          "interpolation": "LINEAR"
        },
        {
          "input": 46,
          "output": 47,
          "interpolation": "LINEAR"
        },
        {
          "input": 48,
          "output": 49,
          "interpolation": "LINEAR"
        },
        {
          "input": 50,
          "output": 51,
          "interpolation": "LINEAR"
        },
        {
          "input": 52,
          "output": 53,
          "interpolation": "LINEAR"
        },
        {
          "input": 54,
          "output": 55,
          "interpolation": "LINEAR"
        },
        {
          "input": 56,
          "output": 57,
          "interpolation": "LINEAR"
        }
      ],
      "channels": [
        {
          "sampler": 0,
          "target": {
            "node": 25,
            "path": "translation"
          }
        },
        {
          "sampler": 1,
          "target": {
            "node": 19,
            "path": "rotation"
          }
        },
        {
          "sampler": 2,
          "target": {
            "node": 1,
            "path": "rotation"
          }
        },
        {
          "sampler": 3,
          "target": {
            "node": 3,
            "path": "rotation"
          }
        },
        {
          "sampler": 4,
          "target": {
            "node": 14,
            "path": "rotation"
          }
        },
        {
          "sampler": 5,
          "target": {
            "node": 12,
            "path": "rotation"
          }
        },
        {
          "sampler": 6,
          "target": {
            "node": 17,
            "path": "rotation"
          }
        }
      ]
    },
    {
      "name": "idle",
      "samplers": [
        {
          "input": 58,
          "output": 59,
          "interpolation": "LINEAR"
        },
        {
          "input": 60,
          "output": 61,
          "interpolation": "LINEAR"
        },
        {
          "input": 62,
          "output": 63,
          "interpolation": "LINEAR"
        },
        {
          "input": 64,
          "output": 65,
          "interpolation": "LINEAR"
        }
      ],
      "channels": [
        {
          "sampler": 0,
          "target": {
            "node": 25,
            "path": "translation"
          }
        },
        {
          "sampler": 1,
          "target": {
            "node": 10,
            "path": "translation"
          }
        },
        {
          "sampler": 2,
          "target": {
            "node": 1,
            "path": "rotation"
          }
        },
        {
          "sampler": 3,
          "target": {
            "node": 3,
            "path": "rotation"
          }
        }
      ]
    },
    {
      "name": "rollup",
      "samplers": [
        {
          "input": 66,
          "output": 67,
          "interpolation": "LINEAR"
        },
        {
          "input": 68,
          "output": 69,
          "interpolation": "LINEAR"
        },
        {
          "input": 70,
          "output": 71,
          "interpolation": "LINEAR"
        },
        {
          "input": 72,
          "output": 73,
          "interpolation": "LINEAR"
        },
        {
          "input": 74,
          "output": 75,
          "interpolation": "LINEAR"
        },
        {
          "input": 76,
          "output": 77,
          "interpolation": "LINEAR"
        },
        {
          "input": 78,
          "output": 79,
          "interpolation": "LINEAR"
        },
        {
          "input": 80,
          "output": 81,
          "interpolation": "LINEAR"
        }
      ],
      "channels": [
        {
          "sampler": 0,
          "target": {
            "node": 25,
            "path": "rotation"
          }
        },
        {
          "sampler": 1,
          "target": {
            "node": 25,
            "path": "translation"
          }
        },
        {
          "sampler": 2,
          "target": {
            "node": 10,
            "path": "rotation"
          }
        },
        {
          "sampler": 3,
          "target": {
            "node": 8,
            "path": "rotation"
          }
        },
        {
          "sampler": 4,
          "target": {
            "node": 1,
            "path": "rotation"
          }
        },
        {
          "sampler": 5,
          "target": {
            "node": 3,
            "path": "rotation"
          }
        },
        {
          "sampler": 6,
          "target": {
            "node": 23,
            "path": "rotation"
          }
        },
        {
          "sampler": 7,
          "target": {
            "node": 21,
            "path": "rotation"
          }
        }
      ]
    },
    {
      "name": "rollspin",
      "samplers": [
        {
          "input": 82,
          "output": 83,
          "interpolation": "LINEAR"
        },
        {
          "input": 84,
          "output": 85,
          "interpolation": "LINEAR"
        },
        {
          "input": 86,
          "output": 87,
          "interpolation": "LINEAR"
        },
        {
          "input": 88,
          "output": 89,
          "interpolation": "LINEAR"
        },
        {
          "input": 90,
          "output": 91,
          "interpolation": "LINEAR"
        },
        {
          "input": 92,
          "output": 93,
          "interpolation": "LINEAR"
        },
        {
          "input": 94,
          "output": 95,
          "interpolation": "LINEAR"
        },
        {
          "input": 96,
          "output": 97,
          "interpolation": "LINEAR"
        }
      ],
      "channels": [
        {
          "sampler": 0,
          "target": {
            "node": 25,
            "path": "rotation"
          }
        },
        {
          "sampler": 1,
          "target": {
            "node": 25,
            "path": "translation"
          }
        },
        {
          "sampler": 2,
          "target": {
            "node": 10,
            "path": "rotation"
          }
        },
        {
          "sampler": 3,
          "target": {
            "node": 8,
            "path": "rotation"
          }
        },
        {
          "sampler": 4,
          "target": {
            "node": 1,
            "path": "rotation"
          }
        },
        {
          "sampler": 5,
          "target": {
            "node": 3,
            "path": "rotation"
          }
        },
        {
          "sampler": 6,
          "target": {
            "node": 23,
            "path": "rotation"
          }
        },
        {
          "sampler": 7,
          "target": {
            "node": 21,
            "path": "rotation"
          }
        }
      ]
    },
    {
      "name": "rolldown",
      "samplers": [
        {
          "input": 98,
          "output": 99,
          "interpolation": "LINEAR"
        },
        {
          "input": 100,
          "output": 101,
          "interpolation": "LINEAR"
        },
        {
          "input": 102,
          "output": 103,
          "interpolation": "LINEAR"
        },
        {
          "input": 104,
          "output": 105,
          "interpolation": "LINEAR"
        },
        {
          "input": 106,
          "output": 107,
          "interpolation": "LINEAR"
        },
        {
          "input": 108,
          "output": 109,
          "interpolation": "LINEAR"
        },
        {
          "input": 110,
          "output": 111,
          "interpolation": "LINEAR"
        },
        {
          "input": 112,
          "output": 113,
          "interpolation": "LINEAR"
        }
      ],
      "channels": [
        {
          "sampler": 0,
          "target": {
            "node": 25,
            "path": "rotation"
          }
        },
        {
          "sampler": 1,
          "target": {
            "node": 25,
            "path": "translation"
          }
        },
        {
          "sampler": 2,
          "target": {
            "node": 10,
            "path": "rotation"
          }
        },
        {
          "sampler": 3,
          "target": {
            "node": 8,
            "path": "rotation"
          }
        },
        {
          "sampler": 4,
          "target": {
            "node": 1,
            "path": "rotation"
          }
        },
        {
          "sampler": 5,
          "target": {
            "node": 3,
            "path": "rotation"
          }
        },
        {
          "sampler": 6,
          "target": {
            "node": 23,
            "path": "rotation"
          }
        },
        {
          "sampler": 7,
          "target": {
            "node": 21,
            "path": "rotation"
          }
        }
      ]
    }
  ],
  "extensions": {}
}