# Object Export From Tinkercad Server 2015

mtllib obj.mtl

o obj_0
v 41 		27 		22
v 41 		28 		22
v 41 		27 		2
v 41 		28 		2
v -7 		28 		22
v -7 		27 		22
v -7 		28 		2
v -7 		27 		2
# 8 vertices

g group_0_2829873

usemtl color_2829873
s 0

f 1 	3 	2
f 3 	4 	2
f 5 	7 	6
f 7 	8 	6
f 5 	6 	2
f 6 	1 	2
f 8 	7 	3
f 7 	4 	3
f 6 	8 	1
f 8 	3 	1
f 2 	4 	5
f 4 	7 	5
# 12 faces

 #end of obj_0

o obj_1
v 40 		26.5 		21
v 40 		28 		21
v 40 		26.5 		3
v 40 		28 		3
v -6 		28 		21
v -6 		26.5 		21
v -6 		28 		3
v -6 		26.5 		3
# 8 vertices

g group_1_6383466

usemtl color_6383466
s 0

f 9 	11 	10
f 11 	12 	10
f 13 	15 	14
f 15 	16 	14
f 13 	14 	10
f 14 	9 	10
f 16 	15 	11
f 15 	12 	11
f 14 	16 	9
f 16 	11 	9
f 10 	12 	13
f 12 	15 	13
# 12 faces

 #end of obj_1

o obj_2
v 19.3053 		26.0128 		0
v 18 		26 		0
v 18 		27.5 		0
v 20.5882 		26.0511 		0
v 21.8268 		26.1142 		0
v 23 		26.201 		0
v 24.0876 		26.31 		0
v 25.0711 		26.4393 		0
v 25.9335 		26.5869 		0
v 26.6603 		26.75 		0
v 27.2388 		26.926 		0
v 27.6593 		27.1118 		0
v 27.9144 		27.3042 		0
v 28 		27.5 		0
v 27.9144 		27.6958 		0
v 27.6593 		27.8882 		0
v 27.2388 		28.074 		0
v 26.6603 		28.25 		0
v 25.9335 		28.4131 		0
v 25.0711 		28.5607 		0
v 24.0876 		28.69 		0
v 23 		28.799 		0
v 21.8268 		28.8858 		0
v 20.5882 		28.9489 		0
v 19.3053 		28.9872 		0
v 18 		29 		0
v 16.6947 		28.9872 		0
v 15.4118 		28.9489 		0
v 14.1732 		28.8858 		0
v 13 		28.799 		0
v 11.9124 		28.69 		0
v 10.9289 		28.5607 		0
v 10.0665 		28.4131 		0
v 9.3397 		28.25 		0
v 8.7612 		28.074 		0
v 8.3407 		27.8882 		0
v 8.0856 		27.6958 		0
v 8 		27.5 		0
v 8.0856 		27.3042 		0
v 8.3407 		27.1118 		0
v 8.7612 		26.926 		0
v 9.3397 		26.75 		0
v 10.0665 		26.5869 		0
v 10.9289 		26.4393 		0
v 11.9124 		26.31 		0
v 13 		26.201 		0
v 14.1732 		26.1142 		0
v 15.4118 		26.0511 		0
v 16.6947 		26.0128 		0
v 18 		26 		2
v 19.3053 		26.0128 		2
v 18 		27.5 		2
v 20.5882 		26.0511 		2
v 21.8268 		26.1142 		2
v 23 		26.201 		2
v 24.0876 		26.31 		2
v 25.0711 		26.4393 		2
v 25.9335 		26.5869 		2
v 26.6603 		26.75 		2
v 27.2388 		26.926 		2
v 27.6593 		27.1118 		2
v 27.9144 		27.3042 		2
v 28 		27.5 		2
v 27.9144 		27.6958 		2
v 27.6593 		27.8882 		2
v 27.2388 		28.074 		2
v 26.6603 		28.25 		2
v 25.9335 		28.4131 		2
v 25.0711 		28.5607 		2
v 24.0876 		28.69 		2
v 23 		28.799 		2
v 21.8268 		28.8858 		2
v 20.5882 		28.9489 		2
v 19.3053 		28.9872 		2
v 18 		29 		2
v 16.6947 		28.9872 		2
v 15.4118 		28.9489 		2
v 14.1732 		28.8858 		2
v 13 		28.799 		2
v 11.9124 		28.69 		2
v 10.9289 		28.5607 		2
v 10.0665 		28.4131 		2
v 9.3397 		28.25 		2
v 8.7612 		28.074 		2
v 8.3407 		27.8882 		2
v 8.0856 		27.6958 		2
v 8 		27.5 		2
v 8.0856 		27.3042 		2
v 8.3407 		27.1118 		2
v 8.7612 		26.926 		2
v 9.3397 		26.75 		2
v 10.0665 		26.5869 		2
v 10.9289 		26.4393 		2
v 11.9124 		26.31 		2
v 13 		26.201 		2
v 14.1732 		26.1142 		2
v 15.4118 		26.0511 		2
v 16.6947 		26.0128 		2
# 98 vertices

g group_2_2829873

usemtl color_2829873
s 0

f 17 	18 	19
f 20 	17 	19
f 21 	20 	19
f 22 	21 	19
f 23 	22 	19
f 24 	23 	19
f 25 	24 	19
f 26 	25 	19
f 27 	26 	19
f 28 	27 	19
f 29 	28 	19
f 30 	29 	19
f 31 	30 	19
f 32 	31 	19
f 33 	32 	19
f 34 	33 	19
f 35 	34 	19
f 36 	35 	19
f 37 	36 	19
f 38 	37 	19
f 39 	38 	19
f 40 	39 	19
f 41 	40 	19
f 42 	41 	19
f 43 	42 	19
f 44 	43 	19
f 45 	44 	19
f 46 	45 	19
f 47 	46 	19
f 48 	47 	19
f 49 	48 	19
f 50 	49 	19
f 51 	50 	19
f 52 	51 	19
f 53 	52 	19
f 54 	53 	19
f 55 	54 	19
f 56 	55 	19
f 57 	56 	19
f 58 	57 	19
f 59 	58 	19
f 60 	59 	19
f 61 	60 	19
f 62 	61 	19
f 63 	62 	19
f 64 	63 	19
f 65 	64 	19
f 18 	65 	19
f 66 	67 	68
f 67 	69 	68
f 69 	70 	68
f 70 	71 	68
f 71 	72 	68
f 72 	73 	68
f 73 	74 	68
f 74 	75 	68
f 75 	76 	68
f 76 	77 	68
f 77 	78 	68
f 78 	79 	68
f 79 	80 	68
f 80 	81 	68
f 81 	82 	68
f 82 	83 	68
f 83 	84 	68
f 84 	85 	68
f 85 	86 	68
f 86 	87 	68
f 87 	88 	68
f 88 	89 	68
f 89 	90 	68
f 90 	91 	68
f 91 	92 	68
f 92 	93 	68
f 93 	94 	68
f 94 	95 	68
f 95 	96 	68
f 96 	97 	68
f 97 	98 	68
f 98 	99 	68
f 99 	100 	68
f 100 	101 	68
f 101 	102 	68
f 102 	103 	68
f 103 	104 	68
f 104 	105 	68
f 105 	106 	68
f 106 	107 	68
f 107 	108 	68
f 108 	109 	68
f 109 	110 	68
f 110 	111 	68
f 111 	112 	68
f 112 	113 	68
f 113 	114 	68
f 114 	66 	68
f 18 	17 	17
f 17 	20 	20
f 20 	21 	21
f 21 	22 	22
f 22 	23 	23
f 23 	24 	24
f 24 	25 	25
f 25 	26 	26
f 26 	27 	27
f 27 	28 	28
f 28 	29 	29
f 29 	30 	30
f 30 	31 	31
f 31 	32 	32
f 32 	33 	33
f 33 	34 	34
f 34 	35 	35
f 35 	36 	36
f 36 	37 	37
f 37 	38 	38
f 38 	39 	39
f 39 	40 	40
f 40 	41 	41
f 41 	42 	42
f 42 	43 	43
f 43 	44 	44
f 44 	45 	45
f 45 	46 	46
f 46 	47 	47
f 47 	48 	48
f 48 	49 	49
f 49 	50 	50
f 50 	51 	51
f 51 	52 	52
f 52 	53 	53
f 53 	54 	54
f 54 	55 	55
f 55 	56 	56
f 56 	57 	57
f 57 	58 	58
f 58 	59 	59
f 59 	60 	60
f 60 	61 	61
f 61 	62 	62
f 62 	63 	63
f 63 	64 	64
f 64 	65 	65
f 65 	18 	18
f 18 	17 	67
f 18 	67 	66
f 17 	20 	69
f 17 	69 	67
f 20 	21 	70
f 20 	70 	69
f 21 	22 	71
f 21 	71 	70
f 22 	23 	72
f 22 	72 	71
f 23 	24 	73
f 23 	73 	72
f 24 	25 	74
f 24 	74 	73
f 25 	26 	75
f 25 	75 	74
f 26 	27 	76
f 26 	76 	75
f 27 	28 	77
f 27 	77 	76
f 28 	29 	78
f 28 	78 	77
f 29 	30 	79
f 29 	79 	78
f 30 	31 	80
f 30 	80 	79
f 31 	32 	81
f 31 	81 	80
f 32 	33 	82
f 32 	82 	81
f 33 	34 	83
f 33 	83 	82
f 34 	35 	84
f 34 	84 	83
f 35 	36 	85
f 35 	85 	84
f 36 	37 	86
f 36 	86 	85
f 37 	38 	87
f 37 	87 	86
f 38 	39 	88
f 38 	88 	87
f 39 	40 	89
f 39 	89 	88
f 40 	41 	90
f 40 	90 	89
f 41 	42 	91
f 41 	91 	90
f 42 	43 	92
f 42 	92 	91
f 43 	44 	93
f 43 	93 	92
f 44 	45 	94
f 44 	94 	93
f 45 	46 	95
f 45 	95 	94
f 46 	47 	96
f 46 	96 	95
f 47 	48 	97
f 47 	97 	96
f 48 	49 	98
f 48 	98 	97
f 49 	50 	99
f 49 	99 	98
f 50 	51 	100
f 50 	100 	99
f 51 	52 	101
f 51 	101 	100
f 52 	53 	102
f 52 	102 	101
f 53 	54 	103
f 53 	103 	102
f 54 	55 	104
f 54 	104 	103
f 55 	56 	105
f 55 	105 	104
f 56 	57 	106
f 56 	106 	105
f 57 	58 	107
f 57 	107 	106
f 58 	59 	108
f 58 	108 	107
f 59 	60 	109
f 59 	109 	108
f 60 	61 	110
f 60 	110 	109
f 61 	62 	111
f 61 	111 	110
f 62 	63 	112
f 62 	112 	111
f 63 	64 	113
f 63 	113 	112
f 64 	65 	114
f 64 	114 	113
f 65 	18 	66
f 65 	66 	114
f 66 	67 	67
f 67 	69 	69
f 69 	70 	70
f 70 	71 	71
f 71 	72 	72
f 72 	73 	73
f 73 	74 	74
f 74 	75 	75
f 75 	76 	76
f 76 	77 	77
f 77 	78 	78
f 78 	79 	79
f 79 	80 	80
f 80 	81 	81
f 81 	82 	82
f 82 	83 	83
f 83 	84 	84
f 84 	85 	85
f 85 	86 	86
f 86 	87 	87
f 87 	88 	88
f 88 	89 	89
f 89 	90 	90
f 90 	91 	91
f 91 	92 	92
f 92 	93 	93
f 93 	94 	94
f 94 	95 	95
f 95 	96 	96
f 96 	97 	97
f 97 	98 	98
f 98 	99 	99
f 99 	100 	100
f 100 	101 	101
f 101 	102 	102
f 102 	103 	103
f 103 	104 	104
f 104 	105 	105
f 105 	106 	106
f 106 	107 	107
f 107 	108 	108
f 108 	109 	109
f 109 	110 	110
f 110 	111 	111
f 111 	112 	112
f 112 	113 	113
f 113 	114 	114
f 114 	66 	66
# 288 faces

 #end of obj_2

