# Object Export From Tinkercad Server 2015

mtllib obj.mtl

o obj_0
v -2 		-46.1086 		44
v -2 		-46.1086 		41
v -2 		-27 		44
v -2 		-27 		41
v -5 		-27 		44
v -5 		-27 		41
v -5 		-46.1086 		44
v -5 		-46.1086 		41
# 8 vertices

g group_0_6306067

usemtl color_6306067
s 0

f 1 	2 	3
f 2 	4 	3
f 5 	6 	7
f 6 	8 	7
f 5 	7 	3
f 7 	1 	3
f 8 	6 	2
f 6 	4 	2
f 7 	8 	1
f 8 	2 	1
f 3 	4 	5
f 4 	6 	5
# 12 faces

 #end of obj_0

o obj_1
v -3 		-54 		41
v -3 		-54 		40
v -3 		-7.1951 		41
v -3 		-7.1951 		40
v -4 		-7.1951 		41
v -4 		-7.1951 		40
v -4 		-54 		41
v -4 		-54 		40
# 8 vertices

g group_1_6383466

usemtl color_6383466
s 0

f 9 	10 	11
f 10 	12 	11
f 13 	14 	15
f 14 	16 	15
f 13 	15 	11
f 15 	9 	11
f 16 	14 	10
f 14 	12 	10
f 15 	16 	9
f 16 	10 	9
f 11 	12 	13
f 12 	14 	13
# 12 faces

 #end of obj_1

o obj_2
v -1 		-25.0954 		45
v -1 		-25.0954 		41
v -1 		-5.6386 		45
v -1 		-5.6386 		41
v -5 		-5.6386 		45
v -5 		-5.6386 		41
v -5 		-25.0954 		45
v -5 		-25.0954 		41
# 8 vertices

g group_2_6383466

usemtl color_6383466
s 0

f 17 	18 	19
f 18 	20 	19
f 21 	22 	23
f 22 	24 	23
f 21 	23 	19
f 23 	17 	19
f 24 	22 	18
f 22 	20 	18
f 23 	24 	17
f 24 	18 	17
f 19 	20 	21
f 20 	22 	21
# 12 faces

 #end of obj_2

o obj_3
v -2.5 		-46.8869 		42
v -2.5 		-46.8869 		39
v -2.5 		-26.6519 		42
v -2.5 		-26.6519 		39
v -4 		-26.6519 		42
v -4 		-26.6519 		39
v -4 		-46.8869 		42
v -4 		-46.8869 		39
# 8 vertices

g group_3_6306067

usemtl color_6306067
s 0

f 25 	26 	27
f 26 	28 	27
f 29 	30 	31
f 30 	32 	31
f 29 	31 	27
f 31 	25 	27
f 32 	30 	26
f 30 	28 	26
f 31 	32 	25
f 32 	26 	25
f 27 	28 	29
f 28 	30 	29
# 12 faces

 #end of obj_3

o obj_4
v -1 		-26.6519 		42
v -1 		-26.6519 		39
v -1 		-6.0277 		42
v -1 		-6.0277 		39
v -5 		-6.0277 		42
v -5 		-6.0277 		39
v -5 		-26.6519 		42
v -5 		-26.6519 		39
# 8 vertices

g group_4_6383466

usemtl color_6383466
s 0

f 33 	34 	35
f 34 	36 	35
f 37 	38 	39
f 38 	40 	39
f 37 	39 	35
f 39 	33 	35
f 40 	38 	34
f 38 	36 	34
f 39 	40 	33
f 40 	34 	33
f 35 	36 	37
f 36 	38 	37
# 12 faces

 #end of obj_4

o obj_5
v -3 		-23.5388 		39.8658
v -3 		-25.9744 		41
v -3 		-27.9104 		28
v -3 		-30.346 		29.1342
v -3.5 		-27.9104 		28
v -3.5 		-30.346 		29.1342
v -3.5 		-23.5388 		39.8658
v -3.5 		-25.9744 		41
# 8 vertices

g group_5_6383466

usemtl color_6383466
s 0

f 41 	42 	43
f 42 	44 	43
f 45 	46 	47
f 46 	48 	47
f 45 	47 	43
f 47 	41 	43
f 48 	46 	42
f 46 	44 	42
f 47 	48 	41
f 48 	42 	41
f 43 	44 	45
f 44 	46 	45
# 12 faces

 #end of obj_5

o obj_6
v -3.4618 		-14.4963 		42.8658
v -3.4891 		-12.0612 		44
v -3.5108 		-10.1254 		31
v -3.5381 		-7.6902 		32.1342
v -3.0109 		-10.1118 		31
v -3.0382 		-7.6766 		32.1342
v -2.9619 		-14.4828 		42.8658
v -2.9892 		-12.0476 		44
# 8 vertices

g group_6_6306067

usemtl color_6306067
s 0

f 49 	50 	51
f 50 	52 	51
f 53 	54 	55
f 54 	56 	55
f 53 	55 	51
f 55 	49 	51
f 56 	54 	50
f 54 	52 	50
f 55 	56 	49
f 56 	50 	49
f 51 	52 	53
f 52 	54 	53
# 12 faces

 #end of obj_6

o obj_7
v -4 		-11.4599 		43.7288
v -4 		10 		44.9027
v -4 		8.9169 		35
v -2 		8.9169 		35
v -2 		10 		44.9027
v -2 		-11.4599 		43.7288
# 6 vertices

g group_7_6306067

usemtl color_6306067
s 0

f 57 	58 	59
f 60 	61 	62
f 57 	59 	62
f 59 	60 	62
f 59 	58 	60
f 58 	61 	60
f 58 	57 	61
f 57 	62 	61
# 8 faces

 #end of obj_7

