# Object Export From Tinkercad Server 2015

mtllib obj.mtl

o obj_0
v 12 		-26 		16
v 12 		-6 		16
v 12 		-26 		7
v 12 		-6 		7
v -14 		-6 		16
v -14 		-26 		16
v -14 		-6 		7
v -14 		-26 		7
# 8 vertices

g group_0_10988977

usemtl color_10988977
s 0

f 1 	3 	2
f 3 	4 	2
f 5 	7 	6
f 7 	8 	6
f 5 	6 	2
f 6 	1 	2
f 8 	7 	3
f 7 	4 	3
f 6 	8 	1
f 8 	3 	1
f 2 	4 	5
f 4 	7 	5
# 12 faces

 #end of obj_0

o obj_1
v -8 		-24 		7
v -8 		-16 		7
v -8 		-24 		0
v -8 		-16 		0
v -13 		-16 		7
v -13 		-24 		7
v -13 		-16 		0
v -13 		-24 		0
# 8 vertices

g group_1_2829873

usemtl color_2829873
s 0

f 9 	11 	10
f 11 	12 	10
f 13 	15 	14
f 15 	16 	14
f 13 	14 	10
f 14 	9 	10
f 16 	15 	11
f 15 	12 	11
f 14 	16 	9
f 16 	11 	9
f 10 	12 	13
f 12 	15 	13
# 12 faces

 #end of obj_1

o obj_2
v 10 		-24 		7
v 10 		-16 		7
v 10 		-24 		0
v 10 		-16 		0
v 6 		-16 		7
v 6 		-24 		7
v 6 		-16 		0
v 6 		-24 		0
# 8 vertices

g group_2_2829873

usemtl color_2829873
s 0

f 17 	19 	18
f 19 	20 	18
f 21 	23 	22
f 23 	24 	22
f 21 	22 	18
f 22 	17 	18
f 24 	23 	19
f 23 	20 	19
f 22 	24 	17
f 24 	19 	17
f 18 	20 	21
f 20 	23 	21
# 12 faces

 #end of obj_2

o obj_3
v 11 		31 		7
v 11 		39 		7
v 11 		31 		0
v 11 		39 		0
v 7 		39 		7
v 7 		31 		7
v 7 		39 		0
v 7 		31 		0
# 8 vertices

g group_3_2829873

usemtl color_2829873
s 0

f 25 	27 	26
f 27 	28 	26
f 29 	31 	30
f 31 	32 	30
f 29 	30 	26
f 30 	25 	26
f 32 	31 	27
f 31 	28 	27
f 30 	32 	25
f 32 	27 	25
f 26 	28 	29
f 28 	31 	29
# 12 faces

 #end of obj_3

o obj_4
v -8 		31 		7
v -8 		39 		7
v -8 		31 		0
v -8 		39 		0
v -13 		39 		7
v -13 		31 		7
v -13 		39 		0
v -13 		31 		0
# 8 vertices

g group_4_2829873

usemtl color_2829873
s 0

f 33 	35 	34
f 35 	36 	34
f 37 	39 	38
f 39 	40 	38
f 37 	38 	34
f 38 	33 	34
f 40 	39 	35
f 39 	36 	35
f 38 	40 	33
f 40 	35 	33
f 34 	36 	37
f 36 	39 	37
# 12 faces

 #end of obj_4

o obj_5
v 12.2112 		-19 		34
v 12.2112 		-6 		34
v 12.2112 		-19 		16
v 12.2112 		-6 		16
v -14 		-6 		34
v -14 		-19 		34
v -14 		-6 		16
v -14 		-19 		16
# 8 vertices

g group_5_10988977

usemtl color_10988977
s 0

f 41 	43 	42
f 43 	44 	42
f 45 	47 	46
f 47 	48 	46
f 45 	46 	42
f 46 	41 	42
f 48 	47 	43
f 47 	44 	43
f 46 	48 	41
f 48 	43 	41
f 42 	44 	45
f 44 	47 	45
# 12 faces

 #end of obj_5

o obj_6
v 11 		-18.5 		16.7333
v 11 		-18.5 		31
v 11 		-19.5 		16.7333
v 11 		-19.5 		31
v -13 		-18.5 		31
v -13 		-18.5 		16.7333
v -13 		-19.5 		31
v -13 		-19.5 		16.7333
# 8 vertices

g group_6_8768998

usemtl color_8768998
s 0

f 51 	49 	50
f 52 	51 	50
f 55 	53 	54
f 56 	55 	54
f 54 	53 	50
f 49 	54 	50
f 55 	56 	51
f 52 	55 	51
f 56 	54 	49
f 51 	56 	49
f 52 	50 	53
f 55 	52 	53
# 12 faces

 #end of obj_6

o obj_7
v -5 		-27 		15
v -5 		-26 		15
v -5 		-27 		13
v -5 		-26 		13
v -13 		-26 		15
v -13 		-27 		15
v -13 		-26 		13
v -13 		-27 		13
# 8 vertices

g group_7_16768282

usemtl color_16768282
s 0

f 57 	59 	58
f 59 	60 	58
f 61 	63 	62
f 63 	64 	62
f 61 	62 	58
f 62 	57 	58
f 64 	63 	59
f 63 	60 	59
f 62 	64 	57
f 64 	59 	57
f 58 	60 	61
f 60 	63 	61
# 12 faces

 #end of obj_7

o obj_8
v 11 		-27 		15
v 11 		-26 		15
v 11 		-27 		13
v 11 		-26 		13
v 3 		-26 		15
v 3 		-27 		15
v 3 		-26 		13
v 3 		-27 		13
# 8 vertices

g group_8_16768282

usemtl color_16768282
s 0

f 65 	67 	66
f 67 	68 	66
f 69 	71 	70
f 71 	72 	70
f 69 	70 	66
f 70 	65 	66
f 72 	71 	67
f 71 	68 	67
f 70 	72 	65
f 72 	67 	65
f 66 	68 	69
f 68 	71 	69
# 12 faces

 #end of obj_8

o obj_9
v 11 		43 		12
v 11 		44 		12
v 11 		43 		10
v 11 		44 		10
v 3 		44 		12
v 3 		43 		12
v 3 		44 		10
v 3 		43 		10
# 8 vertices

g group_9_9771553

usemtl color_9771553
s 0

f 73 	75 	74
f 75 	76 	74
f 77 	79 	78
f 79 	80 	78
f 77 	78 	74
f 78 	73 	74
f 80 	79 	75
f 79 	76 	75
f 78 	80 	73
f 80 	75 	73
f 74 	76 	77
f 76 	79 	77
# 12 faces

 #end of obj_9

o obj_10
v -5 		43 		12
v -5 		44 		12
v -5 		43 		10
v -5 		44 		10
v -13 		44 		12
v -13 		43 		12
v -13 		44 		10
v -13 		43 		10
# 8 vertices

g group_10_9771553

usemtl color_9771553
s 0

f 81 	83 	82
f 83 	84 	82
f 85 	87 	86
f 87 	88 	86
f 85 	86 	82
f 86 	81 	82
f 88 	87 	83
f 87 	84 	83
f 86 	88 	81
f 88 	83 	81
f 82 	84 	85
f 84 	87 	85
# 12 faces

 #end of obj_10

o obj_11
v 12 		-27 		9
v 12 		-26 		9
v 12 		-27 		7
v 12 		-26 		7
v -14 		-26 		9
v -14 		-27 		9
v -14 		-26 		7
v -14 		-27 		7
# 8 vertices

g group_11_6383466

usemtl color_6383466
s 0

f 89 	91 	90
f 91 	92 	90
f 93 	95 	94
f 95 	96 	94
f 93 	94 	90
f 94 	89 	90
f 96 	95 	91
f 95 	92 	91
f 94 	96 	89
f 96 	91 	89
f 90 	92 	93
f 92 	95 	93
# 12 faces

 #end of obj_11

o obj_12
v 12 		42.5 		9
v 12 		43.5 		9
v 12 		42.5 		7
v 12 		43.5 		7
v -14 		43.5 		9
v -14 		42.5 		9
v -14 		43.5 		7
v -14 		42.5 		7
# 8 vertices

g group_12_6383466

usemtl color_6383466
s 0

f 97 	99 	98
f 99 	100 	98
f 101 	103 	102
f 103 	104 	102
f 101 	102 	98
f 102 	97 	98
f 104 	103 	99
f 103 	100 	99
f 102 	104 	97
f 104 	99 	97
f 98 	100 	101
f 100 	103 	101
# 12 faces

 #end of obj_12

o obj_13
v -13.5464 		42.953 		9
v -14.5462 		43 		9
v -13.5464 		42.953 		7
v -14.5462 		43 		7
v -15 		-26.953 		9
v -14.0002 		-27 		9
v -15 		-26.953 		7
v -14.0002 		-27 		7
# 8 vertices

g group_13_6383466

usemtl color_6383466
s 0

f 105 	107 	106
f 107 	108 	106
f 109 	111 	110
f 111 	112 	110
f 109 	110 	106
f 110 	105 	106
f 112 	111 	107
f 111 	108 	107
f 110 	112 	105
f 112 	107 	105
f 106 	108 	109
f 108 	111 	109
# 12 faces

 #end of obj_13

o obj_14
v 13 		42.953 		9
v 12.0002 		43 		9
v 13 		42.953 		7
v 12.0002 		43 		7
v 11.5464 		-26.953 		9
v 12.5462 		-27 		9
v 11.5464 		-26.953 		7
v 12.5462 		-27 		7
# 8 vertices

g group_14_6383466

usemtl color_6383466
s 0

f 113 	115 	114
f 115 	116 	114
f 117 	119 	118
f 119 	120 	118
f 117 	118 	114
f 118 	113 	114
f 120 	119 	115
f 119 	116 	115
f 118 	120 	113
f 120 	115 	113
f 114 	116 	117
f 116 	119 	117
# 12 faces

 #end of obj_14

o obj_15
v 12 		-7.5 		16.7333
v 12 		-7.5 		31
v 13 		-7.5 		16.7333
v 13 		-7.5 		31
v 12 		-18 		31
v 12 		-18 		16.7333
v 13 		-18 		31
v 13 		-18 		16.7333
# 8 vertices

g group_15_8768998

usemtl color_8768998
s 0

f 123 	121 	122
f 124 	123 	122
f 127 	125 	126
f 128 	127 	126
f 126 	125 	122
f 121 	126 	122
f 127 	128 	123
f 124 	127 	123
f 128 	126 	121
f 123 	128 	121
f 124 	122 	125
f 127 	124 	125
# 12 faces

 #end of obj_15

o obj_16
v -14.5 		-7.25 		16.7333
v -14.5 		-7.25 		31
v -13.5 		-7.25 		16.7333
v -13.5 		-7.25 		31
v -14.5 		-18 		31
v -14.5 		-18 		16.7333
v -13.5 		-18 		31
v -13.5 		-18 		16.7333
# 8 vertices

g group_16_8768998

usemtl color_8768998
s 0

f 131 	129 	130
f 132 	131 	130
f 135 	133 	134
f 136 	135 	134
f 134 	133 	130
f 129 	134 	130
f 135 	136 	131
f 132 	135 	131
f 136 	134 	129
f 131 	136 	129
f 132 	130 	133
f 135 	132 	133
# 12 faces

 #end of obj_16

o obj_17
v 12.2112 		-5.5 		36
v 12.2112 		43.5 		36
v 12.2112 		-5.5 		9
v 12.2112 		43.5 		9
v -14 		43.5 		36
v -14 		-5.5 		36
v -14 		43.5 		9
v -14 		-5.5 		9
# 8 vertices

g group_17_2259650

usemtl color_2259650
s 0

f 137 	139 	138
f 139 	140 	138
f 141 	143 	142
f 143 	144 	142
f 141 	142 	138
f 142 	137 	138
f 144 	143 	139
f 143 	140 	139
f 142 	144 	137
f 144 	139 	137
f 138 	140 	141
f 140 	143 	141
# 12 faces

 #end of obj_17

