# Object Export From Tinkercad Server 2015

mtllib obj.mtl

o obj_0
v 1 		-5 		29
v 1 		-1 		29
v 1 		-5 		14
v 1 		-1 		14
v 0 		-1 		29
v 0 		-5 		29
v 0 		-1 		14
v 0 		-5 		14
# 8 vertices

g group_0_10988977

usemtl color_10988977
s 0

f 1 	3 	2
f 3 	4 	2
f 5 	7 	6
f 7 	8 	6
f 5 	6 	2
f 6 	1 	2
f 8 	7 	3
f 7 	4 	3
f 6 	8 	1
f 8 	3 	1
f 2 	4 	5
f 4 	7 	5
# 12 faces

 #end of obj_0

o obj_1
v 1 		-5 		31
v 1 		-2 		31
v 1 		-5 		29
v 1 		-2 		29
v 0 		-2 		31
v 0 		-5 		31
v 0 		-2 		29
v 0 		-5 		29
# 8 vertices

g group_1_10988977

usemtl color_10988977
s 0

f 9 	11 	10
f 11 	12 	10
f 13 	15 	14
f 15 	16 	14
f 13 	14 	10
f 14 	9 	10
f 16 	15 	11
f 15 	12 	11
f 14 	16 	9
f 16 	11 	9
f 10 	12 	13
f 12 	15 	13
# 12 faces

 #end of obj_1

o obj_2
v 1 		-5 		33
v 1 		-3 		33
v 1 		-5 		31
v 1 		-3 		31
v 0 		-3 		33
v 0 		-5 		33
v 0 		-3 		31
v 0 		-5 		31
# 8 vertices

g group_2_10988977

usemtl color_10988977
s 0

f 17 	19 	18
f 19 	20 	18
f 21 	23 	22
f 23 	24 	22
f 21 	22 	18
f 22 	17 	18
f 24 	23 	19
f 23 	20 	19
f 22 	24 	17
f 24 	19 	17
f 18 	20 	21
f 20 	23 	21
# 12 faces

 #end of obj_2

o obj_3
v 1 		-5 		35
v 1 		-4 		35
v 1 		-5 		33
v 1 		-4 		33
v 0 		-4 		35
v 0 		-5 		35
v 0 		-4 		33
v 0 		-5 		33
# 8 vertices

g group_3_10988977

usemtl color_10988977
s 0

f 25 	27 	26
f 27 	28 	26
f 29 	31 	30
f 31 	32 	30
f 29 	30 	26
f 30 	25 	26
f 32 	31 	27
f 31 	28 	27
f 30 	32 	25
f 32 	27 	25
f 26 	28 	29
f 28 	31 	29
# 12 faces

 #end of obj_3

o obj_4
v 2 		-6 		14
v 2 		0 		14
v 2 		-6 		13
v 2 		0 		13
v -1 		0 		14
v -1 		-6 		14
v -1 		0 		13
v -1 		-6 		13
# 8 vertices

g group_4_2829873

usemtl color_2829873
s 0

f 33 	35 	34
f 35 	36 	34
f 37 	39 	38
f 39 	40 	38
f 37 	38 	34
f 38 	33 	34
f 40 	39 	35
f 39 	36 	35
f 38 	40 	33
f 40 	35 	33
f 34 	36 	37
f 36 	39 	37
# 12 faces

 #end of obj_4

o obj_5
v 2 		-5 		13
v 2 		-1 		13
v 2 		-5 		0
v 2 		-1 		0
v -1 		-1 		13
v -1 		-5 		13
v -1 		-1 		0
v -1 		-5 		0
# 8 vertices

g group_5_2829873

usemtl color_2829873
s 0

f 41 	43 	42
f 43 	44 	42
f 45 	47 	46
f 47 	48 	46
f 45 	46 	42
f 46 	41 	42
f 48 	47 	43
f 47 	44 	43
f 46 	48 	41
f 48 	43 	41
f 42 	44 	45
f 44 	47 	45
# 12 faces

 #end of obj_5

