# Object Export From Tinkercad Server 2015

mtllib obj.mtl

o obj_0
v 21 		-63 		0.01
v 21 		-63 		0
v 21 		65 		0.01
v 21 		65 		0
v -18 		65 		0.01
v -18 		65 		0
v -18 		-63 		0.01
v -18 		-63 		0
# 8 vertices

g group_0_6383466

usemtl color_6383466
s 0

f 1 	2 	3
f 2 	4 	3
f 5 	6 	7
f 6 	8 	7
f 5 	7 	3
f 7 	1 	3
f 8 	6 	2
f 6 	4 	2
f 7 	8 	1
f 8 	2 	1
f 3 	4 	5
f 4 	6 	5
# 12 faces

 #end of obj_0

o obj_1
v 2 		37 		0
v 2 		37 		0.03
v 2 		56 		0
v 2 		56 		0.03
v -2 		56 		0
v -2 		56 		0.03
v -2 		37 		0
v -2 		37 		0.03
# 8 vertices

g group_1_16448250

usemtl color_16448250
s 0

f 10 	9 	11
f 12 	10 	11
f 14 	13 	15
f 16 	14 	15
f 15 	13 	11
f 9 	15 	11
f 14 	16 	10
f 12 	14 	10
f 16 	15 	9
f 10 	16 	9
f 12 	11 	13
f 14 	12 	13
# 12 faces

 #end of obj_1

o obj_2
v 2 		7 		0
v 2 		7 		0.03
v 2 		26 		0
v 2 		26 		0.03
v -2 		26 		0
v -2 		26 		0.03
v -2 		7 		0
v -2 		7 		0.03
# 8 vertices

g group_2_16448250

usemtl color_16448250
s 0

f 18 	17 	19
f 20 	18 	19
f 22 	21 	23
f 24 	22 	23
f 23 	21 	19
f 17 	23 	19
f 22 	24 	18
f 20 	22 	18
f 24 	23 	17
f 18 	24 	17
f 20 	19 	21
f 22 	20 	21
# 12 faces

 #end of obj_2

o obj_3
v 2 		-23 		0
v 2 		-23 		0.03
v 2 		-4 		0
v 2 		-4 		0.03
v -2 		-4 		0
v -2 		-4 		0.03
v -2 		-23 		0
v -2 		-23 		0.03
# 8 vertices

g group_3_16448250

usemtl color_16448250
s 0

f 26 	25 	27
f 28 	26 	27
f 30 	29 	31
f 32 	30 	31
f 31 	29 	27
f 25 	31 	27
f 30 	32 	26
f 28 	30 	26
f 32 	31 	25
f 26 	32 	25
f 28 	27 	29
f 30 	28 	29
# 12 faces

 #end of obj_3

o obj_4
v 2 		7 		0
v 2 		7 		0.03
v 2 		26 		0
v 2 		26 		0.03
v -2 		26 		0
v -2 		26 		0.03
v -2 		7 		0
v -2 		7 		0.03
# 8 vertices

g group_4_16448250

usemtl color_16448250
s 0

f 34 	33 	35
f 36 	34 	35
f 38 	37 	39
f 40 	38 	39
f 39 	37 	35
f 33 	39 	35
f 38 	40 	34
f 36 	38 	34
f 40 	39 	33
f 34 	40 	33
f 36 	35 	37
f 38 	36 	37
# 12 faces

 #end of obj_4

o obj_5
v 2 		-23 		0
v 2 		-23 		0.03
v 2 		-4 		0
v 2 		-4 		0.03
v -2 		-4 		0
v -2 		-4 		0.03
v -2 		-23 		0
v -2 		-23 		0.03
# 8 vertices

g group_5_16448250

usemtl color_16448250
s 0

f 42 	41 	43
f 44 	42 	43
f 46 	45 	47
f 48 	46 	47
f 47 	45 	43
f 41 	47 	43
f 46 	48 	42
f 44 	46 	42
f 48 	47 	41
f 42 	48 	41
f 44 	43 	45
f 46 	44 	45
# 12 faces

 #end of obj_5

o obj_6
v 2 		-53 		0
v 2 		-53 		0.03
v 2 		-34 		0
v 2 		-34 		0.03
v -2 		-34 		0
v -2 		-34 		0.03
v -2 		-53 		0
v -2 		-53 		0.03
# 8 vertices

g group_6_16448250

usemtl color_16448250
s 0

f 50 	49 	51
f 52 	50 	51
f 54 	53 	55
f 56 	54 	55
f 55 	53 	51
f 49 	55 	51
f 54 	56 	50
f 52 	54 	50
f 56 	55 	49
f 50 	56 	49
f 52 	51 	53
f 54 	52 	53
# 12 faces

 #end of obj_6

