# Object Export From Tinkercad Server 2015

mtllib obj.mtl

o obj_0
v 24 		-6 		5
v 24 		7 		5
v 24 		-6 		0
v 24 		7 		0
v -22 		7 		5
v -22 		-6 		5
v -22 		7 		0
v -22 		-6 		0
# 8 vertices

g group_0_15277357

usemtl color_15277357
s 0

f 1 	3 	2
f 3 	4 	2
f 5 	7 	6
f 7 	8 	6
f 5 	6 	2
f 6 	1 	2
f 8 	7 	3
f 7 	4 	3
f 6 	8 	1
f 8 	3 	1
f 2 	4 	5
f 4 	7 	5
# 12 faces

 #end of obj_0

o obj_1
v 22.3916 		7 		3.0299
v 22 		7 		3
v 22 		7 		6.5
v 22.7765 		7 		3.1193
v 23.1481 		7 		3.2664
v 23.5 		7 		3.4689
v 23.8263 		7 		3.7233
v 24.1213 		7 		4.0251
v 24.3801 		7 		4.3693
v 24.5981 		7 		4.75
v 24.7716 		7 		5.1606
v 24.8978 		7 		5.5941
v 24.9743 		7 		6.0432
v 25 		7 		6.5
v 24.9743 		7 		6.9568
v 24.8978 		7 		7.4059
v 24.7716 		7 		7.8394
v 24.5981 		7 		8.25
v 24.3801 		7 		8.6307
v 24.1213 		7 		8.9749
v 23.8263 		7 		9.2767
v 23.5 		7 		9.5311
v 23.1481 		7 		9.7336
v 22.7765 		7 		9.8807
v 22.3916 		7 		9.9701
v 22 		7 		10
v 21.6084 		7 		9.9701
v 21.2235 		7 		9.8807
v 20.8519 		7 		9.7336
v 20.5 		7 		9.5311
v 20.1737 		7 		9.2767
v 19.8787 		7 		8.9749
v 19.6199 		7 		8.6307
v 19.4019 		7 		8.25
v 19.2284 		7 		7.8394
v 19.1022 		7 		7.4059
v 19.0257 		7 		6.9568
v 19 		7 		6.5
v 19.0257 		7 		6.0432
v 19.1022 		7 		5.5941
v 19.2284 		7 		5.1606
v 19.4019 		7 		4.75
v 19.6199 		7 		4.3693
v 19.8787 		7 		4.0251
v 20.1737 		7 		3.7233
v 20.5 		7 		3.4689
v 20.8519 		7 		3.2664
v 21.2235 		7 		3.1193
v 21.6084 		7 		3.0299
v 22 		-6 		3
v 22.3916 		-6 		3.0299
v 22 		-6 		6.5
v 22.7765 		-6 		3.1193
v 23.1481 		-6 		3.2664
v 23.5 		-6 		3.4689
v 23.8263 		-6 		3.7233
v 24.1213 		-6 		4.0251
v 24.3801 		-6 		4.3693
v 24.5981 		-6 		4.75
v 24.7716 		-6 		5.1606
v 24.8978 		-6 		5.5941
v 24.9743 		-6 		6.0432
v 25 		-6 		6.5
v 24.9743 		-6 		6.9568
v 24.8978 		-6 		7.4059
v 24.7716 		-6 		7.8394
v 24.5981 		-6 		8.25
v 24.3801 		-6 		8.6307
v 24.1213 		-6 		8.9749
v 23.8263 		-6 		9.2767
v 23.5 		-6 		9.5311
v 23.1481 		-6 		9.7336
v 22.7765 		-6 		9.8807
v 22.3916 		-6 		9.9701
v 22 		-6 		10
v 21.6084 		-6 		9.9701
v 21.2235 		-6 		9.8807
v 20.8519 		-6 		9.7336
v 20.5 		-6 		9.5311
v 20.1737 		-6 		9.2767
v 19.8787 		-6 		8.9749
v 19.6199 		-6 		8.6307
v 19.4019 		-6 		8.25
v 19.2284 		-6 		7.8394
v 19.1022 		-6 		7.4059
v 19.0257 		-6 		6.9568
v 19 		-6 		6.5
v 19.0257 		-6 		6.0432
v 19.1022 		-6 		5.5941
v 19.2284 		-6 		5.1606
v 19.4019 		-6 		4.75
v 19.6199 		-6 		4.3693
v 19.8787 		-6 		4.0251
v 20.1737 		-6 		3.7233
v 20.5 		-6 		3.4689
v 20.8519 		-6 		3.2664
v 21.2235 		-6 		3.1193
v 21.6084 		-6 		3.0299
# 98 vertices

g group_1_15277357

usemtl color_15277357
s 0

f 9 	10 	11
f 12 	9 	11
f 13 	12 	11
f 14 	13 	11
f 15 	14 	11
f 16 	15 	11
f 17 	16 	11
f 18 	17 	11
f 19 	18 	11
f 20 	19 	11
f 21 	20 	11
f 22 	21 	11
f 23 	22 	11
f 24 	23 	11
f 25 	24 	11
f 26 	25 	11
f 27 	26 	11
f 28 	27 	11
f 29 	28 	11
f 30 	29 	11
f 31 	30 	11
f 32 	31 	11
f 33 	32 	11
f 34 	33 	11
f 35 	34 	11
f 36 	35 	11
f 37 	36 	11
f 38 	37 	11
f 39 	38 	11
f 40 	39 	11
f 41 	40 	11
f 42 	41 	11
f 43 	42 	11
f 44 	43 	11
f 45 	44 	11
f 46 	45 	11
f 47 	46 	11
f 48 	47 	11
f 49 	48 	11
f 50 	49 	11
f 51 	50 	11
f 52 	51 	11
f 53 	52 	11
f 54 	53 	11
f 55 	54 	11
f 56 	55 	11
f 57 	56 	11
f 10 	57 	11
f 58 	59 	60
f 59 	61 	60
f 61 	62 	60
f 62 	63 	60
f 63 	64 	60
f 64 	65 	60
f 65 	66 	60
f 66 	67 	60
f 67 	68 	60
f 68 	69 	60
f 69 	70 	60
f 70 	71 	60
f 71 	72 	60
f 72 	73 	60
f 73 	74 	60
f 74 	75 	60
f 75 	76 	60
f 76 	77 	60
f 77 	78 	60
f 78 	79 	60
f 79 	80 	60
f 80 	81 	60
f 81 	82 	60
f 82 	83 	60
f 83 	84 	60
f 84 	85 	60
f 85 	86 	60
f 86 	87 	60
f 87 	88 	60
f 88 	89 	60
f 89 	90 	60
f 90 	91 	60
f 91 	92 	60
f 92 	93 	60
f 93 	94 	60
f 94 	95 	60
f 95 	96 	60
f 96 	97 	60
f 97 	98 	60
f 98 	99 	60
f 99 	100 	60
f 100 	101 	60
f 101 	102 	60
f 102 	103 	60
f 103 	104 	60
f 104 	105 	60
f 105 	106 	60
f 106 	58 	60
f 10 	9 	9
f 9 	12 	12
f 12 	13 	13
f 13 	14 	14
f 14 	15 	15
f 15 	16 	16
f 16 	17 	17
f 17 	18 	18
f 18 	19 	19
f 19 	20 	20
f 20 	21 	21
f 21 	22 	22
f 22 	23 	23
f 23 	24 	24
f 24 	25 	25
f 25 	26 	26
f 26 	27 	27
f 27 	28 	28
f 28 	29 	29
f 29 	30 	30
f 30 	31 	31
f 31 	32 	32
f 32 	33 	33
f 33 	34 	34
f 34 	35 	35
f 35 	36 	36
f 36 	37 	37
f 37 	38 	38
f 38 	39 	39
f 39 	40 	40
f 40 	41 	41
f 41 	42 	42
f 42 	43 	43
f 43 	44 	44
f 44 	45 	45
f 45 	46 	46
f 46 	47 	47
f 47 	48 	48
f 48 	49 	49
f 49 	50 	50
f 50 	51 	51
f 51 	52 	52
f 52 	53 	53
f 53 	54 	54
f 54 	55 	55
f 55 	56 	56
f 56 	57 	57
f 57 	10 	10
f 10 	9 	59
f 10 	59 	58
f 9 	12 	61
f 9 	61 	59
f 12 	13 	62
f 12 	62 	61
f 13 	14 	63
f 13 	63 	62
f 14 	15 	64
f 14 	64 	63
f 15 	16 	65
f 15 	65 	64
f 16 	17 	66
f 16 	66 	65
f 17 	18 	67
f 17 	67 	66
f 18 	19 	68
f 18 	68 	67
f 19 	20 	69
f 19 	69 	68
f 20 	21 	70
f 20 	70 	69
f 21 	22 	71
f 21 	71 	70
f 22 	23 	72
f 22 	72 	71
f 23 	24 	73
f 23 	73 	72
f 24 	25 	74
f 24 	74 	73
f 25 	26 	75
f 25 	75 	74
f 26 	27 	76
f 26 	76 	75
f 27 	28 	77
f 27 	77 	76
f 28 	29 	78
f 28 	78 	77
f 29 	30 	79
f 29 	79 	78
f 30 	31 	80
f 30 	80 	79
f 31 	32 	81
f 31 	81 	80
f 32 	33 	82
f 32 	82 	81
f 33 	34 	83
f 33 	83 	82
f 34 	35 	84
f 34 	84 	83
f 35 	36 	85
f 35 	85 	84
f 36 	37 	86
f 36 	86 	85
f 37 	38 	87
f 37 	87 	86
f 38 	39 	88
f 38 	88 	87
f 39 	40 	89
f 39 	89 	88
f 40 	41 	90
f 40 	90 	89
f 41 	42 	91
f 41 	91 	90
f 42 	43 	92
f 42 	92 	91
f 43 	44 	93
f 43 	93 	92
f 44 	45 	94
f 44 	94 	93
f 45 	46 	95
f 45 	95 	94
f 46 	47 	96
f 46 	96 	95
f 47 	48 	97
f 47 	97 	96
f 48 	49 	98
f 48 	98 	97
f 49 	50 	99
f 49 	99 	98
f 50 	51 	100
f 50 	100 	99
f 51 	52 	101
f 51 	101 	100
f 52 	53 	102
f 52 	102 	101
f 53 	54 	103
f 53 	103 	102
f 54 	55 	104
f 54 	104 	103
f 55 	56 	105
f 55 	105 	104
f 56 	57 	106
f 56 	106 	105
f 57 	10 	58
f 57 	58 	106
f 58 	59 	59
f 59 	61 	61
f 61 	62 	62
f 62 	63 	63
f 63 	64 	64
f 64 	65 	65
f 65 	66 	66
f 66 	67 	67
f 67 	68 	68
f 68 	69 	69
f 69 	70 	70
f 70 	71 	71
f 71 	72 	72
f 72 	73 	73
f 73 	74 	74
f 74 	75 	75
f 75 	76 	76
f 76 	77 	77
f 77 	78 	78
f 78 	79 	79
f 79 	80 	80
f 80 	81 	81
f 81 	82 	82
f 82 	83 	83
f 83 	84 	84
f 84 	85 	85
f 85 	86 	86
f 86 	87 	87
f 87 	88 	88
f 88 	89 	89
f 89 	90 	90
f 90 	91 	91
f 91 	92 	92
f 92 	93 	93
f 93 	94 	94
f 94 	95 	95
f 95 	96 	96
f 96 	97 	97
f 97 	98 	98
f 98 	99 	99
f 99 	100 	100
f 100 	101 	101
f 101 	102 	102
f 102 	103 	103
f 103 	104 	104
f 104 	105 	105
f 105 	106 	106
f 106 	58 	58
# 288 faces

 #end of obj_1

o obj_2
v -19.6084 		7 		3.0299
v -20 		7 		3
v -20 		7 		6.5
v -19.2235 		7 		3.1193
v -18.8519 		7 		3.2664
v -18.5 		7 		3.4689
v -18.1737 		7 		3.7233
v -17.8787 		7 		4.0251
v -17.6199 		7 		4.3693
v -17.4019 		7 		4.75
v -17.2284 		7 		5.1606
v -17.1022 		7 		5.5941
v -17.0257 		7 		6.0432
v -17 		7 		6.5
v -17.0257 		7 		6.9568
v -17.1022 		7 		7.4059
v -17.2284 		7 		7.8394
v -17.4019 		7 		8.25
v -17.6199 		7 		8.6307
v -17.8787 		7 		8.9749
v -18.1737 		7 		9.2767
v -18.5 		7 		9.5311
v -18.8519 		7 		9.7336
v -19.2235 		7 		9.8807
v -19.6084 		7 		9.9701
v -20 		7 		10
v -20.3916 		7 		9.9701
v -20.7765 		7 		9.8807
v -21.1481 		7 		9.7336
v -21.5 		7 		9.5311
v -21.8263 		7 		9.2767
v -22.1213 		7 		8.9749
v -22.3801 		7 		8.6307
v -22.5981 		7 		8.25
v -22.7716 		7 		7.8394
v -22.8978 		7 		7.4059
v -22.9743 		7 		6.9568
v -23 		7 		6.5
v -22.9743 		7 		6.0432
v -22.8978 		7 		5.5941
v -22.7716 		7 		5.1606
v -22.5981 		7 		4.75
v -22.3801 		7 		4.3693
v -22.1213 		7 		4.0251
v -21.8263 		7 		3.7233
v -21.5 		7 		3.4689
v -21.1481 		7 		3.2664
v -20.7765 		7 		3.1193
v -20.3916 		7 		3.0299
v -20 		-6 		3
v -19.6084 		-6 		3.0299
v -20 		-6 		6.5
v -19.2235 		-6 		3.1193
v -18.8519 		-6 		3.2664
v -18.5 		-6 		3.4689
v -18.1737 		-6 		3.7233
v -17.8787 		-6 		4.0251
v -17.6199 		-6 		4.3693
v -17.4019 		-6 		4.75
v -17.2284 		-6 		5.1606
v -17.1022 		-6 		5.5941
v -17.0257 		-6 		6.0432
v -17 		-6 		6.5
v -17.0257 		-6 		6.9568
v -17.1022 		-6 		7.4059
v -17.2284 		-6 		7.8394
v -17.4019 		-6 		8.25
v -17.6199 		-6 		8.6307
v -17.8787 		-6 		8.9749
v -18.1737 		-6 		9.2767
v -18.5 		-6 		9.5311
v -18.8519 		-6 		9.7336
v -19.2235 		-6 		9.8807
v -19.6084 		-6 		9.9701
v -20 		-6 		10
v -20.3916 		-6 		9.9701
v -20.7765 		-6 		9.8807
v -21.1481 		-6 		9.7336
v -21.5 		-6 		9.5311
v -21.8263 		-6 		9.2767
v -22.1213 		-6 		8.9749
v -22.3801 		-6 		8.6307
v -22.5981 		-6 		8.25
v -22.7716 		-6 		7.8394
v -22.8978 		-6 		7.4059
v -22.9743 		-6 		6.9568
v -23 		-6 		6.5
v -22.9743 		-6 		6.0432
v -22.8978 		-6 		5.5941
v -22.7716 		-6 		5.1606
v -22.5981 		-6 		4.75
v -22.3801 		-6 		4.3693
v -22.1213 		-6 		4.0251
v -21.8263 		-6 		3.7233
v -21.5 		-6 		3.4689
v -21.1481 		-6 		3.2664
v -20.7765 		-6 		3.1193
v -20.3916 		-6 		3.0299
# 98 vertices

g group_2_15277357

usemtl color_15277357
s 0

f 107 	108 	109
f 110 	107 	109
f 111 	110 	109
f 112 	111 	109
f 113 	112 	109
f 114 	113 	109
f 115 	114 	109
f 116 	115 	109
f 117 	116 	109
f 118 	117 	109
f 119 	118 	109
f 120 	119 	109
f 121 	120 	109
f 122 	121 	109
f 123 	122 	109
f 124 	123 	109
f 125 	124 	109
f 126 	125 	109
f 127 	126 	109
f 128 	127 	109
f 129 	128 	109
f 130 	129 	109
f 131 	130 	109
f 132 	131 	109
f 133 	132 	109
f 134 	133 	109
f 135 	134 	109
f 136 	135 	109
f 137 	136 	109
f 138 	137 	109
f 139 	138 	109
f 140 	139 	109
f 141 	140 	109
f 142 	141 	109
f 143 	142 	109
f 144 	143 	109
f 145 	144 	109
f 146 	145 	109
f 147 	146 	109
f 148 	147 	109
f 149 	148 	109
f 150 	149 	109
f 151 	150 	109
f 152 	151 	109
f 153 	152 	109
f 154 	153 	109
f 155 	154 	109
f 108 	155 	109
f 156 	157 	158
f 157 	159 	158
f 159 	160 	158
f 160 	161 	158
f 161 	162 	158
f 162 	163 	158
f 163 	164 	158
f 164 	165 	158
f 165 	166 	158
f 166 	167 	158
f 167 	168 	158
f 168 	169 	158
f 169 	170 	158
f 170 	171 	158
f 171 	172 	158
f 172 	173 	158
f 173 	174 	158
f 174 	175 	158
f 175 	176 	158
f 176 	177 	158
f 177 	178 	158
f 178 	179 	158
f 179 	180 	158
f 180 	181 	158
f 181 	182 	158
f 182 	183 	158
f 183 	184 	158
f 184 	185 	158
f 185 	186 	158
f 186 	187 	158
f 187 	188 	158
f 188 	189 	158
f 189 	190 	158
f 190 	191 	158
f 191 	192 	158
f 192 	193 	158
f 193 	194 	158
f 194 	195 	158
f 195 	196 	158
f 196 	197 	158
f 197 	198 	158
f 198 	199 	158
f 199 	200 	158
f 200 	201 	158
f 201 	202 	158
f 202 	203 	158
f 203 	204 	158
f 204 	156 	158
f 108 	107 	107
f 107 	110 	110
f 110 	111 	111
f 111 	112 	112
f 112 	113 	113
f 113 	114 	114
f 114 	115 	115
f 115 	116 	116
f 116 	117 	117
f 117 	118 	118
f 118 	119 	119
f 119 	120 	120
f 120 	121 	121
f 121 	122 	122
f 122 	123 	123
f 123 	124 	124
f 124 	125 	125
f 125 	126 	126
f 126 	127 	127
f 127 	128 	128
f 128 	129 	129
f 129 	130 	130
f 130 	131 	131
f 131 	132 	132
f 132 	133 	133
f 133 	134 	134
f 134 	135 	135
f 135 	136 	136
f 136 	137 	137
f 137 	138 	138
f 138 	139 	139
f 139 	140 	140
f 140 	141 	141
f 141 	142 	142
f 142 	143 	143
f 143 	144 	144
f 144 	145 	145
f 145 	146 	146
f 146 	147 	147
f 147 	148 	148
f 148 	149 	149
f 149 	150 	150
f 150 	151 	151
f 151 	152 	152
f 152 	153 	153
f 153 	154 	154
f 154 	155 	155
f 155 	108 	108
f 108 	107 	157
f 108 	157 	156
f 107 	110 	159
f 107 	159 	157
f 110 	111 	160
f 110 	160 	159
f 111 	112 	161
f 111 	161 	160
f 112 	113 	162
f 112 	162 	161
f 113 	114 	163
f 113 	163 	162
f 114 	115 	164
f 114 	164 	163
f 115 	116 	165
f 115 	165 	164
f 116 	117 	166
f 116 	166 	165
f 117 	118 	167
f 117 	167 	166
f 118 	119 	168
f 118 	168 	167
f 119 	120 	169
f 119 	169 	168
f 120 	121 	170
f 120 	170 	169
f 121 	122 	171
f 121 	171 	170
f 122 	123 	172
f 122 	172 	171
f 123 	124 	173
f 123 	173 	172
f 124 	125 	174
f 124 	174 	173
f 125 	126 	175
f 125 	175 	174
f 126 	127 	176
f 126 	176 	175
f 127 	128 	177
f 127 	177 	176
f 128 	129 	178
f 128 	178 	177
f 129 	130 	179
f 129 	179 	178
f 130 	131 	180
f 130 	180 	179
f 131 	132 	181
f 131 	181 	180
f 132 	133 	182
f 132 	182 	181
f 133 	134 	183
f 133 	183 	182
f 134 	135 	184
f 134 	184 	183
f 135 	136 	185
f 135 	185 	184
f 136 	137 	186
f 136 	186 	185
f 137 	138 	187
f 137 	187 	186
f 138 	139 	188
f 138 	188 	187
f 139 	140 	189
f 139 	189 	188
f 140 	141 	190
f 140 	190 	189
f 141 	142 	191
f 141 	191 	190
f 142 	143 	192
f 142 	192 	191
f 143 	144 	193
f 143 	193 	192
f 144 	145 	194
f 144 	194 	193
f 145 	146 	195
f 145 	195 	194
f 146 	147 	196
f 146 	196 	195
f 147 	148 	197
f 147 	197 	196
f 148 	149 	198
f 148 	198 	197
f 149 	150 	199
f 149 	199 	198
f 150 	151 	200
f 150 	200 	199
f 151 	152 	201
f 151 	201 	200
f 152 	153 	202
f 152 	202 	201
f 153 	154 	203
f 153 	203 	202
f 154 	155 	204
f 154 	204 	203
f 155 	108 	156
f 155 	156 	204
f 156 	157 	157
f 157 	159 	159
f 159 	160 	160
f 160 	161 	161
f 161 	162 	162
f 162 	163 	163
f 163 	164 	164
f 164 	165 	165
f 165 	166 	166
f 166 	167 	167
f 167 	168 	168
f 168 	169 	169
f 169 	170 	170
f 170 	171 	171
f 171 	172 	172
f 172 	173 	173
f 173 	174 	174
f 174 	175 	175
f 175 	176 	176
f 176 	177 	177
f 177 	178 	178
f 178 	179 	179
f 179 	180 	180
f 180 	181 	181
f 181 	182 	182
f 182 	183 	183
f 183 	184 	184
f 184 	185 	185
f 185 	186 	186
f 186 	187 	187
f 187 	188 	188
f 188 	189 	189
f 189 	190 	190
f 190 	191 	191
f 191 	192 	192
f 192 	193 	193
f 193 	194 	194
f 194 	195 	195
f 195 	196 	196
f 196 	197 	197
f 197 	198 	198
f 198 	199 	199
f 199 	200 	200
f 200 	201 	201
f 201 	202 	202
f 202 	203 	203
f 203 	204 	204
f 204 	156 	156
# 288 faces

 #end of obj_2

o obj_3
v 1 		-5.8449 		5
v 0.9567 		-5.8449 		5.196
v 0.8271 		-5.8449 		5.3902
v 0.6125 		-5.8449 		5.5806
v 0.3149 		-5.8449 		5.7654
v -0.0627 		-5.8449 		5.9428
v -0.5168 		-5.8449 		6.1111
v -1.0429 		-5.8449 		6.2688
v -1.636 		-5.8449 		6.4142
v -2.2905 		-5.8449 		6.546
v -2.9999 		-5.8449 		6.6629
v -3.7574 		-5.8449 		6.7638
v -4.5558 		-5.8449 		6.8478
v -5.3874 		-5.8449 		6.9139
v -6.2442 		-5.8449 		6.9616
v -7.1178 		-5.8449 		6.9904
v -8 		-5.8449 		7
v -8.8822 		-5.8449 		6.9904
v -9.7558 		-5.8449 		6.9616
v -10.6126 		-5.8449 		6.9139
v -11.4442 		-5.8449 		6.8478
v -12.2426 		-5.8449 		6.7638
v -13.0001 		-5.8449 		6.6629
v -13.7095 		-5.8449 		6.546
v -14.364 		-5.8449 		6.4142
v -14.9571 		-5.8449 		6.2688
v -15.4832 		-5.8449 		6.1111
v -15.9373 		-5.8449 		5.9428
v -16.3149 		-5.8449 		5.7654
v -16.6125 		-5.8449 		5.5806
v -16.8271 		-5.8449 		5.3902
v -16.9567 		-5.8449 		5.196
v -17 		-5.8449 		5
v 1 		7.1551 		5
v 0.9567 		7.1551 		5.196
v 0.8271 		7.1551 		5.3902
v 0.6125 		7.1551 		5.5806
v 0.3149 		7.1551 		5.7654
v -0.0627 		7.1551 		5.9428
v -0.5168 		7.1551 		6.1111
v -1.0429 		7.1551 		6.2688
v -1.636 		7.1551 		6.4142
v -2.2905 		7.1551 		6.546
v -2.9999 		7.1551 		6.6629
v -3.7574 		7.1551 		6.7638
v -4.5558 		7.1551 		6.8478
v -5.3874 		7.1551 		6.9139
v -6.2442 		7.1551 		6.9616
v -7.1178 		7.1551 		6.9904
v -8 		7.1551 		7
v -8.8822 		7.1551 		6.9904
v -9.7558 		7.1551 		6.9616
v -10.6126 		7.1551 		6.9139
v -11.4442 		7.1551 		6.8478
v -12.2426 		7.1551 		6.7638
v -13.0001 		7.1551 		6.6629
v -13.7095 		7.1551 		6.546
v -14.364 		7.1551 		6.4142
v -14.9571 		7.1551 		6.2688
v -15.4832 		7.1551 		6.1111
v -15.9373 		7.1551 		5.9428
v -16.3149 		7.1551 		5.7654
v -16.6125 		7.1551 		5.5806
v -16.8271 		7.1551 		5.3902
v -16.9567 		7.1551 		5.196
v -17 		7.1551 		5
v -8 		-5.8449 		5
v -8 		7.1551 		5
# 68 vertices

g group_3_9771553

usemtl color_9771553
s 0

f 238 	239 	206
f 205 	238 	206
f 239 	240 	207
f 206 	239 	207
f 240 	241 	208
f 207 	240 	208
f 241 	242 	209
f 208 	241 	209
f 242 	243 	210
f 209 	242 	210
f 243 	244 	211
f 210 	243 	211
f 244 	245 	212
f 211 	244 	212
f 245 	246 	213
f 212 	245 	213
f 246 	247 	214
f 213 	246 	214
f 247 	248 	215
f 214 	247 	215
f 248 	249 	216
f 215 	248 	216
f 249 	250 	217
f 216 	249 	217
f 250 	251 	218
f 217 	250 	218
f 251 	252 	219
f 218 	251 	219
f 252 	253 	220
f 219 	252 	220
f 253 	254 	221
f 220 	253 	221
f 254 	255 	222
f 221 	254 	222
f 255 	256 	223
f 222 	255 	223
f 256 	257 	224
f 223 	256 	224
f 257 	258 	225
f 224 	257 	225
f 258 	259 	226
f 225 	258 	226
f 259 	260 	227
f 226 	259 	227
f 260 	261 	228
f 227 	260 	228
f 261 	262 	229
f 228 	261 	229
f 262 	263 	230
f 229 	262 	230
f 263 	264 	231
f 230 	263 	231
f 264 	265 	232
f 231 	264 	232
f 265 	266 	233
f 232 	265 	233
f 266 	267 	234
f 233 	266 	234
f 267 	268 	235
f 234 	267 	235
f 268 	269 	236
f 235 	268 	236
f 269 	270 	237
f 236 	269 	237
f 205 	206 	271
f 206 	207 	271
f 207 	208 	271
f 208 	209 	271
f 209 	210 	271
f 210 	211 	271
f 211 	212 	271
f 212 	213 	271
f 213 	214 	271
f 214 	215 	271
f 215 	216 	271
f 216 	217 	271
f 217 	218 	271
f 218 	219 	271
f 219 	220 	271
f 220 	221 	271
f 221 	222 	271
f 222 	223 	271
f 223 	224 	271
f 224 	225 	271
f 225 	226 	271
f 226 	227 	271
f 227 	228 	271
f 228 	229 	271
f 229 	230 	271
f 230 	231 	271
f 231 	232 	271
f 232 	233 	271
f 233 	234 	271
f 234 	235 	271
f 235 	236 	271
f 236 	237 	271
f 239 	238 	272
f 240 	239 	272
f 241 	240 	272
f 242 	241 	272
f 243 	242 	272
f 244 	243 	272
f 245 	244 	272
f 246 	245 	272
f 247 	246 	272
f 248 	247 	272
f 249 	248 	272
f 250 	249 	272
f 251 	250 	272
f 252 	251 	272
f 253 	252 	272
f 254 	253 	272
f 255 	254 	272
f 256 	255 	272
f 257 	256 	272
f 258 	257 	272
f 259 	258 	272
f 260 	259 	272
f 261 	260 	272
f 262 	261 	272
f 263 	262 	272
f 264 	263 	272
f 265 	264 	272
f 266 	265 	272
f 267 	266 	272
f 268 	267 	272
f 269 	268 	272
f 270 	269 	272
f 205 	237 	238
f 238 	237 	270
# 130 faces

 #end of obj_3

o obj_4
v 19 		-6 		5
v 18.9567 		-6 		5.196
v 18.8271 		-6 		5.3902
v 18.6125 		-6 		5.5806
v 18.3149 		-6 		5.7654
v 17.9373 		-6 		5.9428
v 17.4832 		-6 		6.1111
v 16.9571 		-6 		6.2688
v 16.364 		-6 		6.4142
v 15.7095 		-6 		6.546
v 15.0001 		-6 		6.6629
v 14.2426 		-6 		6.7638
v 13.4442 		-6 		6.8478
v 12.6126 		-6 		6.9139
v 11.7558 		-6 		6.9616
v 10.8822 		-6 		6.9904
v 10 		-6 		7
v 9.1178 		-6 		6.9904
v 8.2442 		-6 		6.9616
v 7.3874 		-6 		6.9139
v 6.5558 		-6 		6.8478
v 5.7574 		-6 		6.7638
v 4.9999 		-6 		6.6629
v 4.2905 		-6 		6.546
v 3.636 		-6 		6.4142
v 3.0429 		-6 		6.2688
v 2.5168 		-6 		6.1111
v 2.0627 		-6 		5.9428
v 1.6851 		-6 		5.7654
v 1.3875 		-6 		5.5806
v 1.1729 		-6 		5.3902
v 1.0433 		-6 		5.196
v 1 		-6 		5
v 19 		7 		5
v 18.9567 		7 		5.196
v 18.8271 		7 		5.3902
v 18.6125 		7 		5.5806
v 18.3149 		7 		5.7654
v 17.9373 		7 		5.9428
v 17.4832 		7 		6.1111
v 16.9571 		7 		6.2688
v 16.364 		7 		6.4142
v 15.7095 		7 		6.546
v 15.0001 		7 		6.6629
v 14.2426 		7 		6.7638
v 13.4442 		7 		6.8478
v 12.6126 		7 		6.9139
v 11.7558 		7 		6.9616
v 10.8822 		7 		6.9904
v 10 		7 		7
v 9.1178 		7 		6.9904
v 8.2442 		7 		6.9616
v 7.3874 		7 		6.9139
v 6.5558 		7 		6.8478
v 5.7574 		7 		6.7638
v 4.9999 		7 		6.6629
v 4.2905 		7 		6.546
v 3.636 		7 		6.4142
v 3.0429 		7 		6.2688
v 2.5168 		7 		6.1111
v 2.0627 		7 		5.9428
v 1.6851 		7 		5.7654
v 1.3875 		7 		5.5806
v 1.1729 		7 		5.3902
v 1.0433 		7 		5.196
v 1 		7 		5
v 10 		-6 		5
v 10 		7 		5
# 68 vertices

g group_4_9771553

usemtl color_9771553
s 0

f 306 	307 	274
f 273 	306 	274
f 307 	308 	275
f 274 	307 	275
f 308 	309 	276
f 275 	308 	276
f 309 	310 	277
f 276 	309 	277
f 310 	311 	278
f 277 	310 	278
f 311 	312 	279
f 278 	311 	279
f 312 	313 	280
f 279 	312 	280
f 313 	314 	281
f 280 	313 	281
f 314 	315 	282
f 281 	314 	282
f 315 	316 	283
f 282 	315 	283
f 316 	317 	284
f 283 	316 	284
f 317 	318 	285
f 284 	317 	285
f 318 	319 	286
f 285 	318 	286
f 319 	320 	287
f 286 	319 	287
f 320 	321 	288
f 287 	320 	288
f 321 	322 	289
f 288 	321 	289
f 322 	323 	290
f 289 	322 	290
f 323 	324 	291
f 290 	323 	291
f 324 	325 	292
f 291 	324 	292
f 325 	326 	293
f 292 	325 	293
f 326 	327 	294
f 293 	326 	294
f 327 	328 	295
f 294 	327 	295
f 328 	329 	296
f 295 	328 	296
f 329 	330 	297
f 296 	329 	297
f 330 	331 	298
f 297 	330 	298
f 331 	332 	299
f 298 	331 	299
f 332 	333 	300
f 299 	332 	300
f 333 	334 	301
f 300 	333 	301
f 334 	335 	302
f 301 	334 	302
f 335 	336 	303
f 302 	335 	303
f 336 	337 	304
f 303 	336 	304
f 337 	338 	305
f 304 	337 	305
f 273 	274 	339
f 274 	275 	339
f 275 	276 	339
f 276 	277 	339
f 277 	278 	339
f 278 	279 	339
f 279 	280 	339
f 280 	281 	339
f 281 	282 	339
f 282 	283 	339
f 283 	284 	339
f 284 	285 	339
f 285 	286 	339
f 286 	287 	339
f 287 	288 	339
f 288 	289 	339
f 289 	290 	339
f 290 	291 	339
f 291 	292 	339
f 292 	293 	339
f 293 	294 	339
f 294 	295 	339
f 295 	296 	339
f 296 	297 	339
f 297 	298 	339
f 298 	299 	339
f 299 	300 	339
f 300 	301 	339
f 301 	302 	339
f 302 	303 	339
f 303 	304 	339
f 304 	305 	339
f 307 	306 	340
f 308 	307 	340
f 309 	308 	340
f 310 	309 	340
f 311 	310 	340
f 312 	311 	340
f 313 	312 	340
f 314 	313 	340
f 315 	314 	340
f 316 	315 	340
f 317 	316 	340
f 318 	317 	340
f 319 	318 	340
f 320 	319 	340
f 321 	320 	340
f 322 	321 	340
f 323 	322 	340
f 324 	323 	340
f 325 	324 	340
f 326 	325 	340
f 327 	326 	340
f 328 	327 	340
f 329 	328 	340
f 330 	329 	340
f 331 	330 	340
f 332 	331 	340
f 333 	332 	340
f 334 	333 	340
f 335 	334 	340
f 336 	335 	340
f 337 	336 	340
f 338 	337 	340
f 273 	305 	306
f 306 	305 	338
# 130 faces

 #end of obj_4

o obj_5
v -21 		8 		0
v -21 		8 		15
v -21 		5 		0
v -21 		5 		15
v 24 		8 		15
v 24 		8 		0
v 24 		5 		15
v 24 		5 		0
# 8 vertices

g group_5_15277357

usemtl color_15277357
s 0

f 341 	343 	342
f 343 	344 	342
f 345 	347 	346
f 347 	348 	346
f 345 	346 	342
f 346 	341 	342
f 348 	347 	343
f 347 	344 	343
f 346 	348 	341
f 348 	343 	341
f 342 	344 	345
f 344 	347 	345
# 12 faces

 #end of obj_5

